<svg version="1.1" viewBox="0 0 128 96" xmlns="http://www.w3.org/2000/svg"><defs><filter id="shadow-filter"><feDropShadow dx=".6" dy=".6" stdDeviation="0.5" flood-opacity="0.6"/></filter></defs><rect x="0" y="0" width="128" height="96" fill="white"/><g filter="url(#shadow-filter)"><rect x="-3.8534804187047595" y="-5.783503004837425" width="9.65203847782383" height="9.65203847782383" transform="rotate(85.2028703068359 0.9725388202071552 -0.9574837659255102)"/><rect x="5.086529702343812" y="-4.425208149987902" width="7.228468262357406" height="7.228468262357406" transform="rotate(80.70220587459964 8.700763833522515 -0.8109740188091987)"/><rect x="12.604435388145472" y="-3.6897517891910367" width="7.350871437233665" height="7.350871437233665" transform="rotate(41.758975174598056 16.279871106762304 -0.014316070574204254)"/><rect x="19.927076034696682" y="-4.7246470571264805" width="9.203158923198483" height="9.203158923198483" transform="rotate(51.70705472520562 24.528655496295922 -0.12306759552723934)"/><rect x="28.994737629850068" y="-3.9163032970828278" width="7.132308769740921" height="7.132308769740921" transform="rotate(77.3071052812821 32.56089201472053 -0.35014891221236755)"/><rect x="35.996270435336235" y="-5.887364227027268" width="9.830201551082936" height="9.830201551082936" transform="rotate(74.21889223987503 40.911371210877704 -0.9722634514857993)"/><rect x="44.03909313590798" y="-4.994091363547248" width="9.15527036703316" height="9.15527036703316" transform="rotate(60.92954880542049 48.61672831942456 -0.416456180030669)"/><rect x="51.95329426424776" y="-5.567117319427981" width="9.971019411620041" height="9.971019411620041" transform="rotate(60.951957822992604 56.938803970057776 -0.5816076136179595)"/><rect x="60.54463616293371" y="-5.047712320003146" width="8.879274099985597" height="8.879274099985597" transform="rotate(36.771215282483446 64.98427321292651 -0.6080752700103482)"/><rect x="68.73261937542624" y="-4.63692289911549" width="8.528819394178095" height="8.528819394178095" transform="rotate(73.73673624698081 72.99702907251529 -0.37251320202644234)"/><rect x="75.71951750036307" y="-5.856121473757531" width="9.943015695972495" height="9.943015695972495" transform="rotate(82.90908750814664 80.69102534834931 -0.8846136257712838)"/><rect x="84.10530887664686" y="-4.5169893211704215" width="8.157725724706248" height="8.157725724706248" transform="rotate(83.45133305693362 88.18417173899998 -0.4381264588172977)"/><rect x="92.57810413834989" y="-4.442103859552045" width="8.110880273263263" height="8.110880273263263" transform="rotate(47.3724811580704 96.63354427498152 -0.38666372292041373)"/><rect x="100.62441613030903" y="-4.318438950912276" width="7.575007364797807" height="7.575007364797807" transform="rotate(85.60534781916596 104.41191981270794 -0.5309352685133715)"/><rect x="108.16434077417429" y="-4.94545514371576" width="9.462387678869991" height="9.462387678869991" transform="rotate(21.608231481085912 112.89553461360929 -0.21426130428076462)"/><rect x="116.23845314233033" y="-4.176372122584145" width="7.650742712375897" height="7.650742712375897" transform="rotate(24.630358913270747 120.06382449851827 -0.3510007663961965)"/><rect x="124.11931100954634" y="-4.329522399853191" width="8.281476095860494" height="8.281476095860494" transform="rotate(36.75770892992756 128.26004905747658 -0.18878435192294374)"/><rect x="-1.3053157668090574" y="2.6454753088902465" width="3.1053054438418775" height="3.1053054438418775" transform="rotate(49.71580149971391 0.24733695511188136 4.198128030811185)"/><rect x="4.556248118299978" y="3.943320431432256" width="3.7973475461058293" height="3.7973475461058293" transform="rotate(7.174407025845124 6.4549218913528925 5.841994204485171)"/><rect x="10.486998570540992" y="2.087889229778493" width="3.983554345154751" height="3.983554345154751" transform="rotate(20.38641695000888 12.478775743118367 4.079666402355868)"/><rect x="19.06244853334645" y="2.644197495815126" width="3.120606643619844" height="3.120606643619844" transform="rotate(1.5248894945835811 20.622751855156373 4.204500817625048)"/><rect x="24.0918111145188" y="2.850844731982827" width="3.6649527966392528" height="3.6649527966392528" transform="rotate(7.744781103097895 25.92428751283843 4.683321130302454)"/><rect x="30.82187721773091" y="3.250616418634575" width="3.509339672084984" height="3.509339672084984" transform="rotate(12.80862254975774 32.5765470537734 5.005286254677067)"/><rect x="35.101309559782734" y="3.1519428004979346" width="3.2915301413645914" height="3.2915301413645914" transform="rotate(59.12825186382547 36.74707463046503 4.79770787118023)"/><rect x="40.870618094594874" y="3.6980439540514904" width="3.340269665290627" height="3.340269665290627" transform="rotate(10.397549955780303 42.540752927240185 5.368178786696804)"/><rect x="47.549544195767794" y="2.69078384508199" width="3.3474344155768048" height="3.3474344155768048" transform="rotate(38.06042899712688 49.223261403556194 4.364501052870392)"/><rect x="53.38337852268858" y="3.7286804965091105" width="3.3348922425153757" height="3.3348922425153757" transform="rotate(45.62106444105858 55.05082464394627 5.396126617766798)"/><rect x="59.84452507971161" y="3.2947945588135754" width="3.4316362636204953" height="3.4316362636204953" transform="rotate(38.24404673331111 61.560343211521854 5.010612690623823)"/><rect x="65.0064107448482" y="3.839587597023544" width="3.9480284793463367" height="3.9480284793463367" transform="rotate(48.05852906482408 66.98042498452136 5.813601836696712)"/><rect x="70.45671526956941" y="3.979858590984652" width="3.132763016006943" height="3.132763016006943" transform="rotate(16.130062461132763 72.02309677757289 5.5462400989881235)"/><rect x="79.23948766889856" y="2.972059474519168" width="3.2918446006164546" height="3.2918446006164546" transform="rotate(0.1294436562379131 80.88540996920679 4.6179817748273955)"/><rect x="82.87205769860907" y="2.451226726431226" width="3.80113335046651" height="3.80113335046651" transform="rotate(45.54556540467171 84.77262437384232 4.351793401664481)"/><rect x="88.76834262670701" y="3.1531378515440025" width="3.2227088775237855" height="3.2227088775237855" transform="rotate(13.409205036834246 90.3796970654689 4.7644922903058955)"/><rect x="95.09682652885239" y="3.749858378229957" width="3.830987852044749" height="3.830987852044749" transform="rotate(69.60599291980486 97.01232045487477 5.665352304252331)"/><rect x="101.40214577642125" y="2.688687448084593" width="3.5794369936286055" height="3.5794369936286055" transform="rotate(44.4998521720515 103.19186427323555 4.4784059448988955)"/><rect x="107.05615213420654" y="3.591368123760924" width="3.118556585900957" height="3.118556585900957" transform="rotate(60.16596238949051 108.61543042715702 5.150646416711402)"/><rect x="114.84384434995015" y="3.854996991161091" width="3.0049889556758846" height="3.0049889556758846" transform="rotate(42.34464345810581 116.34633882778809 5.357491468999033)"/><rect x="119.26904898893076" y="3.3462761349633765" width="3.652046254638127" height="3.652046254638127" transform="rotate(69.36975480300383 121.09507211624982 5.17229926228244)"/><rect x="124.3481927796238" y="3.359870294965967" width="3.864522390000299" height="3.864522390000299" transform="rotate(60.29072454972085 126.28045397462395 5.292131489966117)"/><rect x="0.6131676912895914" y="7.869918893457029" width="1.0488835448470235" height="1.0488835448470235" transform="rotate(17.542940897184177 1.1376094637131031 8.39436066588054)"/><rect x="5.015863544749029" y="7.804706937336211" width="1.0656810002194654" height="1.0656810002194654" transform="rotate(54.281270022094496 5.548704044858762 8.337547437445943)"/><rect x="6.676959407403219" y="8.236775402995642" width="1.0597746135349466" height="1.0597746135349466" transform="rotate(77.68368379578082 7.206846714170692 8.766662709763116)"/><rect x="11.300816206017302" y="8.255472171728972" width="1.112508307605566" height="1.112508307605566" transform="rotate(1.1833569695616664 11.857070359820085 8.811726325531755)"/><rect x="13.589116992018576" y="8.008953218315026" width="1.1469832792119832" height="1.1469832792119832" transform="rotate(8.97328299759333 14.162608631624568 8.582444857921018)"/><rect x="15.482964704748525" y="6.385420407240232" width="1.3232543920602793" height="1.3232543920602793" transform="rotate(43.61194474542243 16.144591900778664 7.0470476032703715)"/><rect x="18.774262985620677" y="7.7107240908679096" width="1.2820387048775213" height="1.2820387048775213" transform="rotate(54.555795009707055 19.415282338059438 8.35174344330667)"/><rect x="21.13997084580255" y="7.284994192065889" width="1.142901962623552" height="1.142901962623552" transform="rotate(27.569808670366044 21.71142182711433 7.856445173377665)"/><rect x="26.17971311869846" y="6.569660763055097" width="1.3661257287965682" height="1.3661257287965682" transform="rotate(3.400081576443532 26.862775983096743 7.252723627453381)"/><rect x="27.77341936275332" y="6.662467476673236" width="1.2398176882489742" height="1.2398176882489742" transform="rotate(51.642445532259835 28.393328206877808 7.282376320797724)"/><rect x="30.060262533670684" y="6.565745429291024" width="1.1806074660291719" height="1.1806074660291719" transform="rotate(21.661986126511188 30.65056626668527 7.15604916230561)"/><rect x="33.24763823649307" y="8.07744720560023" width="1.275334511544954" height="1.275334511544954" transform="rotate(29.92054244412131 33.885305492265545 8.715114461372707)"/><rect x="36.515931950236165" y="6.557719755938633" width="1.3310313711982966" height="1.3310313711982966" transform="rotate(65.61205808908083 37.18144763583531 7.223235441537781)"/><rect x="40.060013701188126" y="7.389029839157776" width="1.1257688821644263" height="1.1257688821644263" transform="rotate(40.21786053962476 40.62289814227034 7.951914280239989)"/><rect x="43.805198474970574" y="6.404603323163113" width="1.327061861148092" height="1.327061861148092" transform="rotate(76.82259097492312 44.46872940554462 7.068134253737159)"/><rect x="46.791588542681616" y="7.140714351048692" width="1.1721774227382278" height="1.1721774227382278" transform="rotate(3.517374434327303 47.37767725405073 7.726803062417806)"/><rect x="48.31912337786759" y="7.28971734119321" width="1.1146683758301412" height="1.1146683758301412" transform="rotate(37.52331271516488 48.87645756578266 7.847051529108281)"/><rect x="50.89850759785332" y="6.980794943223107" width="1.2738213498549869" height="1.2738213498549869" transform="rotate(32.78936811540815 51.53541827278081 7.617705618150601)"/><rect x="55.25645675015202" y="7.868411616951734" width="1.0304031469034696" height="1.0304031469034696" transform="rotate(46.204732866448225 55.77165832360375 8.38361319040347)"/><rect x="58.20668367722199" y="7.291776010563201" width="1.448505625923974" height="1.448505625923974" transform="rotate(42.359634779451646 58.930936490183974 8.016028823525188)"/><rect x="61.18955043760524" y="8.07962390838285" width="1.3645517687782474" height="1.3645517687782474" transform="rotate(20.287557203944875 61.87182632199436 8.761899792771974)"/><rect x="64.89268700300627" y="7.045142851752493" width="1.087046602780589" height="1.087046602780589" transform="rotate(35.40435448001802 65.43621030439657 7.588666153142787)"/><rect x="66.45894205225568" y="6.77070364748159" width="1.0360477207866678" height="1.0360477207866678" transform="rotate(2.3862024515053037 66.976965912649 7.288727507874924)"/><rect x="70.1818616967394" y="6.482978159802051" width="1.2444857306926007" height="1.2444857306926007" transform="rotate(8.135820196261445 70.8041045620857 7.105221025148351)"/><rect x="72.71619943304586" y="8.043837026190204" width="1.232368696514262" height="1.232368696514262" transform="rotate(0.1288279604243603 73.332383781303 8.660021374447334)"/><rect x="77.01645059222297" y="6.9906208250443225" width="1.1799322236574845" height="1.1799322236574845" transform="rotate(22.023265880850808 77.60641670405171 7.580586936873065)"/><rect x="80.20641612340219" y="6.9079073519055605" width="1.190379071528194" height="1.190379071528194" transform="rotate(80.27833096412697 80.80160565916628 7.503096887669657)"/><rect x="81.05531780139286" y="7.97611267497251" width="1.3988319845258839" height="1.3988319845258839" transform="rotate(36.874767578600945 81.7547337936558 8.675528667235453)"/><rect x="86.02969819942301" y="7.394690295931471" width="1.1401069092321898" height="1.1401069092321898" transform="rotate(36.68718334953695 86.59975165403911 7.964743750547566)"/><rect x="87.27075119995173" y="7.5623376493625925" width="1.4652348231582253" height="1.4652348231582253" transform="rotate(79.71891754692145 88.00336861153085 8.294955060941705)"/><rect x="91.5280255826608" y="7.543775533159893" width="1.264436940129517" height="1.264436940129517" transform="rotate(23.756285784554056 92.16024405272556 8.175994003224652)"/><rect x="95.36360440122246" y="6.412376519012391" width="1.2536232760032013" height="1.2536232760032013" transform="rotate(78.59595919894451 95.99041603922406 7.039188157013992)"/><rect x="96.94931294172918" y="6.524007522286811" width="1.1099020061111697" height="1.1099020061111697" transform="rotate(79.37389068467097 97.50426394478475 7.078958525342396)"/><rect x="100.77409282153873" y="6.5329728411035255" width="1.2371709137555662" height="1.2371709137555662" transform="rotate(25.191705946934093 101.39267827841651 7.151558297981309)"/><rect x="102.2086859890816" y="6.524154607829538" width="1.2993290885940731" height="1.2993290885940731" transform="rotate(22.87228853433978 102.85835053337864 7.173819152126574)"/><rect x="106.28216954227524" y="7.367036080278351" width="1.0921257007370055" height="1.0921257007370055" transform="rotate(13.971556872921935 106.82823239264374 7.9130989306468535)"/><rect x="108.03695212773201" y="7.489940187765212" width="1.2958045147023856" height="1.2958045147023856" transform="rotate(36.595624560932144 108.6848543850832 8.137842445116405)"/><rect x="112.9692922799399" y="6.631869169247051" width="1.1384859997260097" height="1.1384859997260097" transform="rotate(13.288355242771841 113.53853527980291 7.201112169110056)"/><rect x="116.31927715838408" y="8.242314826369663" width="1.3473896224793327" height="1.3473896224793327" transform="rotate(27.200174739701502 116.99297196962375 8.91600963760933)"/><rect x="119.24494823512545" y="7.5263161390708015" width="1.0238887899609659" height="1.0238887899609659" transform="rotate(87.03740891854785 119.75689263010594 8.038260534051284)"/><rect x="120.3597368135429" y="8.059861603503453" width="1.1665111685641731" height="1.1665111685641731" transform="rotate(35.53686493145835 120.94299239782498 8.64311718778554)"/><rect x="124.61284405373736" y="6.528885185708153" width="1.4930231623522148" height="1.4930231623522148" transform="rotate(65.86720410817655 125.35935563491347 7.27539676688426)"/><rect x="127.15841779485321" y="6.942743413484231" width="1.1028527379982171" height="1.1028527379982171" transform="rotate(9.134467405486662 127.70984416385231 7.49416978248334)"/></g></svg>