<svg version="1.1" viewBox="0 0 128 96" xmlns="http://www.w3.org/2000/svg"><defs><filter id="shadow-filter"><feDropShadow dx=".6" dy=".6" stdDeviation="0.5" flood-opacity="0.6"/></filter><mask id="section-mask"><rect x="16" y="0" width="128" height="96" fill="white"/><rect x="16" y="2" width="4" height="4"/><rect x="20.076185999019227" y="-1.6550110256393962" width="3.7171604457525986" height="3.7171604457525986" transform="rotate(4.410442941724174 21.934766221895526 0.20356919723690314)"/><rect x="25.172160360944538" y="2.4411390091276464" width="2.5479775587342894" height="2.5479775587342894" transform="rotate(-4.726768129822361 26.446149140311682 3.715127788494791)"/><rect x="29.15017436060062" y="-1.4212731677371968" width="1.971555963887309" height="1.971555963887309" transform="rotate(-29.527068468328757 30.135952342544275 -0.4354951857935423)"/><rect x="16" y="10" width="4" height="4"/><rect x="19.970286383663986" y="6.082204923005612" width="3.8200676880078968" height="3.8200676880078968" transform="rotate(-5.291980342142697 21.880320227667934 7.99223876700956)"/><rect x="24.930819102944106" y="10.287166165017368" width="2.5249044711326074" height="2.5249044711326074" transform="rotate(-4.633684766023105 26.19327133851041 11.549618400583672)"/><rect x="29.452989947947156" y="6.982932349863127" width="1.6583744787620986" height="1.6583744787620986" transform="rotate(-11.930805200774156 30.282177187328205 7.812119589244176)"/><rect x="16" y="18" width="4" height="4"/><rect x="20.061928980650848" y="14.265509339331873" width="3.74129621496571" height="3.74129621496571" transform="rotate(0.7478375404016546 21.9325770881337 16.136157446814728)"/><rect x="24.919092483490722" y="18.537608014495632" width="2.8524156275004726" height="2.8524156275004726" transform="rotate(-8.798548684143066 26.345300297240957 19.963815828245867)"/><rect x="29.4458486468555" y="14.985590411042551" width="1.9310450122012521" height="1.9310450122012521" transform="rotate(-11.678457256862739 30.411371152956125 15.951112917143178)"/><rect x="16" y="26" width="4" height="4"/><rect x="19.73250902147588" y="21.94661563897835" width="3.9770667338033676" height="3.9770667338033676" transform="rotate(4.973917150608219 21.721042388377565 23.935149005880035)"/><rect x="24.4105063427928" y="26.251301579691724" width="2.6945224542562065" height="2.6945224542562065" transform="rotate(1.1467800125027878 25.757767569920905 27.598562806819828)"/><rect x="28.639358978687728" y="23.53603219128016" width="1.7480673539880414" height="1.7480673539880414" transform="rotate(6.813600180671088 29.51339265568175 24.41006586827418)"/><rect x="16" y="34" width="4" height="4"/><rect x="19.85442588535102" y="30.641053625860614" width="3.701590876639089" height="3.701590876639089" transform="rotate(3.6743639494821423 21.705221323670564 32.49184906418016)"/><rect x="24.88551084630165" y="34.61014414973257" width="2.5699378804531072" height="2.5699378804531072" transform="rotate(19.4922402634651 26.170479786528205 35.895113089959125)"/><rect x="29.54536893319314" y="30.98935840153319" width="1.5360846825999577" height="1.5360846825999577" transform="rotate(20.067060645700366 30.313411274493117 31.75740074283317)"/><rect x="16" y="42" width="4" height="4"/><rect x="20.34094261962839" y="38.03085496268214" width="3.926467026113935" height="3.926467026113935" transform="rotate(5.965213737814331 22.304176132685356 39.99408847573911)"/><rect x="24.925589660455646" y="42.11305201773358" width="2.8479800452910355" height="2.8479800452910355" transform="rotate(12.462646033392588 26.349579683101165 43.5370420403791)"/><rect x="28.71708472284879" y="39.2634882183326" width="1.5667019285680723" height="1.5667019285680723" transform="rotate(20.744951870844552 29.500435687132825 40.04683918261664)"/><rect x="16" y="50" width="4" height="4"/><rect x="19.918402199040074" y="46.586735815894336" width="3.6818842259304643" height="3.6818842259304643" transform="rotate(3.8130152401222706 21.759344312005307 48.427677928859566)"/><rect x="24.955480760114455" y="50.56836932146075" width="2.9586220108130483" height="2.9586220108130483" transform="rotate(7.60158812244822 26.434791765520977 52.04768032686727)"/><rect x="29.26438279677629" y="46.73503530880073" width="1.8906740740885097" height="1.8906740740885097" transform="rotate(20.09242840053379 30.209719833820543 47.68037234584499)"/><rect x="16" y="58" width="4" height="4"/><rect x="19.72670585651925" y="54.070440550111435" width="3.8423964319159385" height="3.8423964319159385" transform="rotate(-7.73864281945472 21.647904072477218 55.99163876606941)"/><rect x="24.633354607003263" y="59.0594917666732" width="2.6818113781039434" height="2.6818113781039434" transform="rotate(-3.5618269213891196 25.974260296055235 60.40039745572517)"/><rect x="28.6946949783013" y="54.81290126875811" width="1.7330140669462928" height="1.7330140669462928" transform="rotate(14.52672567488036 29.561202011774444 55.67940830223126)"/><rect x="16" y="66" width="4" height="4"/><rect x="19.96634883876784" y="62.4548743544302" width="3.5808806321813833" height="3.5808806321813833" transform="rotate(-1.2324579263635407 21.75678915485853 64.2453146705209)"/><rect x="24.555317402578293" y="66.26213916479358" width="2.7301728275700627" height="2.7301728275700627" transform="rotate(-15.709058215145735 25.920403816363326 67.62722557857862)"/><rect x="29.00702849171059" y="63.01845811672768" width="1.9357927353605002" height="1.9357927353605002" transform="rotate(-6.594159082557347 29.97492485939084 63.986354484407926)"/><rect x="16" y="74" width="4" height="4"/><rect x="20.12964520774944" y="70.14929414919169" width="3.756744475668069" height="3.756744475668069" transform="rotate(1.2537146402654429 22.008017445583477 72.02766638702572)"/><rect x="24.988731565785177" y="74.8290161364369" width="2.7745920335183465" height="2.7745920335183465" transform="rotate(17.00826504234879 26.37602758254435 76.21631215319609)"/><rect x="29.026781824868866" y="70.79738694611433" width="1.7161202532962085" height="1.7161202532962085" transform="rotate(17.44870049307763 29.88484195151697 71.65544707276243)"/><rect x="16" y="82" width="4" height="4"/><rect x="19.76776035807429" y="78.04595897939629" width="3.761040854616546" height="3.761040854616546" transform="rotate(3.514502312891686 21.648280785382564 79.92647940670456)"/><rect x="24.630637128106876" y="82.71214863447187" width="2.605285516188578" height="2.605285516188578" transform="rotate(-4.719646160859403 25.933279886201166 84.01479139256617)"/><rect x="29.584742193409465" y="78.62821887547331" width="1.817975600525413" height="1.817975600525413" transform="rotate(9.42429977292538 30.493729993672172 79.53720667573602)"/><rect x="16" y="90" width="4" height="4"/><rect x="20.593504141152792" y="86.61955282437606" width="3.6410930346248334" height="3.6410930346248334" transform="rotate(8.189926234599124 22.414050658465207 88.44009934168848)"/><rect x="24.6612189374286" y="90.55134770435295" width="2.6217438639630313" height="2.6217438639630313" transform="rotate(1.415580896697108 25.972090869410117 91.86221963633446)"/><rect x="29.49637125151946" y="87.1177301106169" width="1.6118003484289871" height="1.6118003484289871" transform="rotate(-15.495253802558082 30.302271425733952 87.9236302848314)"/><rect x="16" y="98" width="4" height="4"/><rect x="20.198410285817154" y="93.93855595602896" width="3.5990751053213095" height="3.5990751053213095" transform="rotate(-7.6657299016719405 21.99794783847781 95.73809350868962)"/><rect x="24.21873249806426" y="98.66824564549343" width="2.71914654298534" height="2.71914654298534" transform="rotate(14.894227482546484 25.57830576955693 100.02781891698609)"/><rect x="29.60722974404646" y="95.32382610238942" width="1.6696283753696237" height="1.6696283753696237" transform="rotate(-4.566377828303686 30.442043931731273 96.15864029007423)"/></mask></defs><rect x="0" y="0" width="128" height="96" fill="white"/><g filter="url(#shadow-filter)"><rect x="1.0767153488323975" y="-0.5260965771894153" width="1.8425054673703563" height="1.8425054673703563" transform="rotate(4.67204564251044 1.9979680825175756 0.39515615649576286)"/><rect x="4.867437248351978" y="2.9464180733100513" width="2.8710978371896436" height="2.8710978371896436" transform="rotate(-17.38107290087563 6.3029861669468 4.381966991904873)"/><rect x="7.650158037439679" y="-2.3624948293139134" width="3.7352126533360215" height="3.7352126533360215" transform="rotate(8.626083496767546 9.51776436410769 -0.49488850264590245)"/><rect x="12" y="2" width="4" height="4"/><rect x="0.7519263453089702" y="7.360428686839014" width="1.5169498073994006" height="1.5169498073994006" transform="rotate(29.490632754081453 1.5104012490086705 8.118903590538714)"/><rect x="4.679862412897792" y="10.31621653271253" width="2.8614116968700216" height="2.8614116968700216" transform="rotate(-19.636065414676473 6.110568261332803 11.746922381147542)"/><rect x="8.420960740667857" y="5.671048949002696" width="3.8161359656722125" height="3.8161359656722125" transform="rotate(-5.236734758295016 10.329028723503964 7.579116931838802)"/><rect x="12" y="10" width="4" height="4"/><rect x="0.6878329392828528" y="14.84577391811036" width="1.8689988786387266" height="1.8689988786387266" transform="rotate(-27.690556155644337 1.6223323786022161 15.780273357429724)"/><rect x="4.400339823600554" y="18.46643443798793" width="2.5550689357514065" height="2.5550689357514065" transform="rotate(12.988552398054473 5.677874291476257 19.743968905863635)"/><rect x="8.411367634909226" y="14.499561297610558" width="3.5292713866369763" height="3.5292713866369763" transform="rotate(-3.82520378956158 10.176003328227713 16.264196990929047)"/><rect x="12" y="18" width="4" height="4"/><rect x="0.9713035799331282" y="23.44192321736031" width="1.9138097372707041" height="1.9138097372707041" transform="rotate(18.133536341438806 1.9282084485684803 24.39882808599566)"/><rect x="4.697547682739321" y="26.772440044727308" width="2.705707864289046" height="2.705707864289046" transform="rotate(-13.12290368258652 6.050401614883844 28.12529397687183)"/><rect x="8.241608934998755" y="21.87124405483152" width="3.946935060409144" height="3.946935060409144" transform="rotate(9.021579826647628 10.215076465203326 23.844711585036094)"/><rect x="12" y="26" width="4" height="4"/><rect x="1.4238387222530482" y="30.721806744617375" width="1.970660637427168" height="1.970660637427168" transform="rotate(-1.9602179734343679 2.409169040966632 31.707137063330958)"/><rect x="4.124844271082363" y="34.35142313425894" width="2.750440462078419" height="2.750440462078419" transform="rotate(18.4857214271767 5.500064502121573 35.726643365298145)"/><rect x="7.7234101330633145" y="29.995670280051186" width="3.7286272792520663" height="3.7286272792520663" transform="rotate(-5.0219525328206505 9.587723772689348 31.85998391967722)"/><rect x="12" y="34" width="4" height="4"/><rect x="1.0755250460078067" y="39.4963942615341" width="1.9160415925449827" height="1.9160415925449827" transform="rotate(6.531807321775048 2.033545842280298 40.45441505780659)"/><rect x="4.9479292653338085" y="42.45654049834176" width="2.783253021256841" height="2.783253021256841" transform="rotate(17.154609658291278 6.3395557759622285 43.84816700897018)"/><rect x="8.00164114186834" y="38.01068360039458" width="3.9940346485552984" height="3.9940346485552984" transform="rotate(2.7446738445455168 9.99865846614599 40.00770092467223)"/><rect x="12" y="42" width="4" height="4"/><rect x="1.0902725109716638" y="47.265808680390975" width="1.9612128588087856" height="1.9612128588087856" transform="rotate(22.886618950284316 2.0708789403760566 48.24641510979537)"/><rect x="5.0845249133767485" y="50.552880415211284" width="2.573996942021765" height="2.573996942021765" transform="rotate(2.8218244110154345 6.371523384387631 51.839878886222166)"/><rect x="7.885695604801044" y="45.691917863721834" width="3.7489328489350426" height="3.7489328489350426" transform="rotate(-3.2367203079178086 9.760162029268566 47.566384288189354)"/><rect x="12" y="50" width="4" height="4"/><rect x="1.3861496252805234" y="54.73549884640813" width="1.9805265179756377" height="1.9805265179756377" transform="rotate(28.462268591318796 2.3764128842683423 55.725762105395944)"/><rect x="4.151266408045647" y="58.3037872208935" width="2.9617069674207066" height="2.9617069674207066" transform="rotate(-9.96684345923252 5.632119891756 59.78464070460385)"/><rect x="8.170029521880934" y="54.29896945108562" width="3.892220432833552" height="3.892220432833552" transform="rotate(6.726380640159697 10.11613973829771 56.245079667502395)"/><rect x="12" y="58" width="4" height="4"/><rect x="1.165558128618052" y="62.820378757806175" width="1.706199452569745" height="1.706199452569745" transform="rotate(14.832882527428566 2.0186578549029246 63.67347848409105)"/><rect x="4.965158511764546" y="66.65132094970579" width="2.6245755288707153" height="2.6245755288707153" transform="rotate(-10.34629548246297 6.277446276199903 67.96360871414115)"/><rect x="7.662261873259903" y="61.92578505096641" width="3.8889949626065783" height="3.8889949626065783" transform="rotate(3.3034459635401348 9.606759354563192 63.8702825322697)"/><rect x="12" y="66" width="4" height="4"/><rect x="1.0506366457883836" y="71.61675839906005" width="1.6087302282726366" height="1.6087302282726366" transform="rotate(-1.7633959505248207 1.8550017599247017 72.42112351319636)"/><rect x="4.2704482670778985" y="74.910345194221" width="2.7177548731100125" height="2.7177548731100125" transform="rotate(-8.744315394800148 5.6293257036329045 76.269222630776)"/><rect x="8.188821172577235" y="70.48317157612908" width="3.7432093716191406" height="3.7432093716191406" transform="rotate(5.928843757595846 10.060425858386806 72.35477626193865)"/><rect x="12" y="74" width="4" height="4"/><rect x="1.0961078139282663" y="79.05848828690867" width="1.6101875314016598" height="1.6101875314016598" transform="rotate(21.496043041144603 1.9012015796290962 79.8635820526095)"/><rect x="4.671163784996171" y="83.07831597297107" width="2.603158990987528" height="2.603158990987528" transform="rotate(-5.999784370620684 5.972743280489936 84.37989546846484)"/><rect x="7.80164431512919" y="77.87194889792413" width="3.5337611519004843" height="3.5337611519004843" transform="rotate(2.2550135854887365 9.568524891079432 79.63882947387437)"/><rect x="12" y="82" width="4" height="4"/><rect x="1.407127029139327" y="87.5145760552334" width="1.8277139422241655" height="1.8277139422241655" transform="rotate(-19.1125562951075 2.3209840002514097 88.42843302634549)"/><rect x="4.6220649649640375" y="90.91993761217809" width="2.780236945308105" height="2.780236945308105" transform="rotate(6.1774077487825885 6.0121834376180905 92.31005608483214)"/><rect x="8.455955148966952" y="86.4743229270872" width="3.5407129571727567" height="3.5407129571727567" transform="rotate(0.08317865903828192 10.226311627553331 88.24467940567358)"/><rect x="12" y="90" width="4" height="4"/><rect x="1.2185858066612247" y="94.63490015291833" width="1.8625141417511313" height="1.8625141417511313" transform="rotate(-2.258467741305598 2.1498428775367904 95.5661572237939)"/><rect x="4.818193948520801" y="98.27284829214648" width="2.507524346814732" height="2.507524346814732" transform="rotate(-3.736863371978405 6.071956121928167 99.52661046555384)"/><rect x="8.454716371848566" y="93.83903481749832" width="3.585519057973878" height="3.585519057973878" transform="rotate(-8.05885509536112 10.247475900835504 95.63179434648525)"/><rect x="12" y="98" width="4" height="4"/><rect x="67" y="0" width="64" height="96"/><rect x="16" y="0" width="128" height="96" mask="url(#section-mask)"/></g></svg>