<svg version="1.1" viewBox="0 0 128 96" xmlns="http://www.w3.org/2000/svg"><defs><filter id="shadow-filter"><feDropShadow dx=".6" dy=".6" stdDeviation="0.5" flood-opacity="0.6"/></filter></defs><rect x="0" y="0" width="128" height="96" fill="white"/><g filter="url(#shadow-filter)"><polygon points="0,25 128,5 128,71 0,91"/><rect x="-4.365500294998134" y="18.944626339365975" width="9.443366229488852" height="9.443366229488852" transform="rotate(29.348299252190188 0.35618281974629173 23.6663094541104)"/><rect x="-3.3524050072587155" y="88.53537664308635" width="8.764319681223894" height="8.764319681223894" transform="rotate(44.57816251866032 1.0297548333532314 92.9175364836983)"/><rect x="4.028881166734424" y="17.90112391509936" width="8.300412926674714" height="8.300412926674714" transform="rotate(26.940723985607175 8.17908763007178 22.051330378436717)"/><rect x="4.141332367209998" y="85.95344402219504" width="8.29373016121275" height="8.29373016121275" transform="rotate(31.894382478858056 8.288197447816373 90.10030910280142)"/><rect x="12.569176752526536" y="19.926192367892085" width="8.79108355444193" height="8.79108355444193" transform="rotate(53.663556971567324 16.9647185297475 24.321734145113048)"/><rect x="12.42385265734621" y="84.40165674864771" width="8.387243502312137" height="8.387243502312137" transform="rotate(48.49041485031041 16.61747440850228 88.59527849980378)"/><rect x="21.24703064916205" y="17.195359549501404" width="8.517704978196077" height="8.517704978196077" transform="rotate(84.65961722862207 25.50588313826009 21.454212038599444)"/><rect x="20.5110098813725" y="81.17991154214249" width="9.526453804358432" height="9.526453804358432" transform="rotate(24.607021812204476 25.274236783551718 85.9431384443217)"/><rect x="29.627553490399542" y="16.0160040583729" width="8.138051582453514" height="8.138051582453514" transform="rotate(61.587931046192196 33.6965792816263 20.085029849599657)"/><rect x="27.59835723361359" y="79.7533797127056" width="9.497271705352862" height="9.497271705352862" transform="rotate(15.94120179241971 32.34699308629002 84.50201556538202)"/><rect x="36.83571389322559" y="13.385833333015919" width="9.70767315989627" height="9.70767315989627" transform="rotate(88.66115365889682 41.689550473173725 18.239669912964054)"/><rect x="37.133616693898674" y="82.51392453327388" width="8.000443311207817" height="8.000443311207817" transform="rotate(24.033329907748012 41.13383834950258 86.51414618887779)"/><rect x="44.07788338193748" y="14.543539402541697" width="9.88901103675972" height="9.88901103675972" transform="rotate(3.762935578644222 49.022388900317345 19.488044920921556)"/><rect x="44.41730362865712" y="79.53874319306362" width="9.61129209840557" height="9.61129209840557" transform="rotate(13.832509940487366 49.22294967785991 84.3443892422664)"/><rect x="52.791895226456276" y="12.723409471334264" width="8.349400280489272" height="8.349400280489272" transform="rotate(58.981884951843654 56.966595366700915 16.8981096115789)"/><rect x="52.10120634167575" y="79.73204058283072" width="8.374878855272904" height="8.374878855272904" transform="rotate(75.22017072583469 56.288645769312204 83.91948001046717)"/><rect x="61.145400453756906" y="9.741368634090826" width="8.865964397756363" height="8.865964397756363" transform="rotate(44.63806653046015 65.57838265263509 14.174350832969006)"/><rect x="59.77369520014373" y="74.77842089363554" width="8.503641667645569" height="8.503641667645569" transform="rotate(50.71865007627302 64.02551603396651 79.03024172745833)"/><rect x="69.22653560858993" y="9.062702593100553" width="8.279608683528453" height="8.279608683528453" transform="rotate(78.1268544923888 73.36633995035416 13.202506934864779)"/><rect x="68.02062142801132" y="76.31117553634924" width="8.606201368994252" height="8.606201368994252" transform="rotate(41.75719371304472 72.32372211250845 80.61427622084636)"/><rect x="76.22639172798787" y="8.464285456288986" width="9.946886744946976" height="9.946886744946976" transform="rotate(74.13662831455649 81.19983510046136 13.437728828762474)"/><rect x="76.15295722309072" y="73.17844361527474" width="9.626689662116185" height="9.626689662116185" transform="rotate(13.761391545437615 80.96630205414881 77.99178844633283)"/><rect x="83.63072853797034" y="8.599895493000284" width="8.948007226474807" height="8.948007226474807" transform="rotate(58.167555841127 88.10473215120774 13.073899106237688)"/><rect x="85.14925171917017" y="71.77933667350787" width="9.214691924964592" height="9.214691924964592" transform="rotate(32.430509402556424 89.75659768165247 76.38668263599017)"/><rect x="93.29164192738882" y="4.410968334962264" width="8.00205844586606" height="8.00205844586606" transform="rotate(52.468949594828 97.29267115032185 8.411997557895294)"/><rect x="93.44223126558656" y="70.18000309303004" width="8.402308457764434" height="8.402308457764434" transform="rotate(73.64995438899054 97.64338549446877 74.38115732191226)"/><rect x="100.32149724708867" y="2.7086473502623845" width="8.780125422978493" height="8.780125422978493" transform="rotate(62.9316699267009 104.71155995857792 7.098710061751631)"/><rect x="100.93763847489409" y="70.52161824002907" width="8.332467283822048" height="8.332467283822048" transform="rotate(8.952337279469127 105.1038721168051 74.68785188194009)"/><rect x="108.0518804656669" y="4.957066481372824" width="8.494195211752462" height="8.494195211752462" transform="rotate(31.825606597244935 112.29897807154313 9.204164087249055)"/><rect x="108.4834099030423" y="69.19855435655204" width="8.976607690177408" height="8.976607690177408" transform="rotate(37.77718250423105 112.97171374813101 73.68685820164075)"/><rect x="115.95050087614347" y="2.9076072904600556" width="9.871724481795802" height="9.871724481795802" transform="rotate(59.31046095541204 120.88636311704137 7.8434695313579565)"/><rect x="116.41650763041756" y="69.11055280186575" width="9.633607543651532" height="9.633607543651532" transform="rotate(44.56538845092206 121.23331140224332 73.92735657369151)"/><rect x="125.09053871900484" y="-0.9606001786288987" width="9.7070796745376" height="9.7070796745376" transform="rotate(42.58886150321903 129.94407855627364 3.892939658639901)"/><rect x="123.33637633369449" y="67.31643737918705" width="9.940951598267134" height="9.940951598267134" transform="rotate(68.72719550423848 128.30685213282806 72.28691317832062)"/><rect x="-1.2208952969888491" y="15.674538097042046" width="4.802459403235622" height="4.802459403235622" transform="rotate(80.84434575549453 1.1803344046289617 18.075767798659857)"/><rect x="-1.769273520918719" y="93.59899608872925" width="4.143898319176431" height="4.143898319176431" transform="rotate(73.89974416866193 0.30267563866949665 95.67094524831747)"/><rect x="6.51914082326446" y="17.37879724422196" width="4.270781117721102" height="4.270781117721102" transform="rotate(74.8422910842157 8.654531382125011 19.51418780308251)"/><rect x="7.7241180812188155" y="91.06133740966852" width="4.236915850548484" height="4.236915850548484" transform="rotate(38.96920013246768 9.842576006493058 93.17979533494277)"/><rect x="15.226557526737759" y="15.466424020679073" width="4.859827283289827" height="4.859827283289827" transform="rotate(71.08438966792164 17.656471168382673 17.896337662323987)"/><rect x="15.10720989222381" y="91.57514010877576" width="4.901879727731492" height="4.901879727731492" transform="rotate(19.434552265015157 17.558149756089556 94.0260799726415)"/><rect x="22.08769498374591" y="12.79381077063729" width="4.781064481025388" height="4.781064481025388" transform="rotate(48.541529362970756 24.478227224258603 15.184343011149984)"/><rect x="22.33187898629614" y="90.97518421571517" width="4.200616158140173" height="4.200616158140173" transform="rotate(54.70046521688777 24.432187065366225 93.07549229478526)"/><rect x="29.78084792428539" y="13.169320013849063" width="4.478231654853202" height="4.478231654853202" transform="rotate(72.91439492451255 32.01996375171199 15.408435841275665)"/><rect x="30.98770872113377" y="89.42520182711715" width="4.9284658522323515" height="4.9284658522323515" transform="rotate(27.520504057676693 33.451941647249946 91.88943475323333)"/><rect x="38.22509055646439" y="10.885356870639677" width="4.23199716250188" height="4.23199716250188" transform="rotate(82.498177963851 40.34108913771533 13.001355451890618)"/><rect x="39.46267332527467" y="88.36625931707134" width="4.479850878031903" height="4.479850878031903" transform="rotate(53.96514056954922 41.70259876429062 90.60618475608729)"/><rect x="47.00095180449106" y="10.262614973743247" width="4.249223213219495" height="4.249223213219495" transform="rotate(46.65544614749842 49.125563411100806 12.387226580352994)"/><rect x="47.41921362500171" y="87.72616716814397" width="4.489400569551995" height="4.489400569551995" transform="rotate(9.562700413561862 49.663913909777705 89.97086745291998)"/><rect x="54.36066715702075" y="8.781858233324883" width="4.289640829826693" height="4.289640829826693" transform="rotate(82.13169463268258 56.5054875719341 10.92667864823823)"/><rect x="55.55188429769291" y="85.24549423001578" width="4.00435522562642" height="4.00435522562642" transform="rotate(9.921594286004613 57.55406191050612 87.24767184282899)"/><rect x="62.68055727358548" y="6.281452529937663" width="4.14037672684691" height="4.14037672684691" transform="rotate(5.323972760730406 64.75074563700893 8.351640893361118)"/><rect x="62.95245542018178" y="82.15905250037882" width="4.12536192282204" height="4.12536192282204" transform="rotate(25.27769122363162 65.0151363815928 84.22173346178984)"/><rect x="69.802101876374" y="5.245893029156476" width="4.46893099793628" height="4.46893099793628" transform="rotate(25.10049894604165 72.03656737534213 7.480358528124616)"/><rect x="69.76459003679702" y="83.0033748384421" width="4.556688408377367" height="4.556688408377367" transform="rotate(39.76046169877846 72.0429342409857 85.28171904263078)"/><rect x="78.79639787577808" y="3.553371377462925" width="4.058936046404797" height="4.058936046404797" transform="rotate(63.6089810188705 80.82586589898048 5.582839400665324)"/><rect x="79.49856019954856" y="82.02586055925558" width="4.980189946762147" height="4.980189946762147" transform="rotate(66.16289165478048 81.98865517292964 84.51595553263665)"/><rect x="86.74874150701194" y="4.1753179435188885" width="4.251445731593742" height="4.251445731593742" transform="rotate(12.090892705406084 88.87446437280882 6.30104080931576)"/><rect x="86.44666261958145" y="80.66928368863975" width="4.375233937098132" height="4.375233937098132" transform="rotate(39.15493373861134 88.63427958813051 82.85690065718882)"/><rect x="93.8902241305801" y="3.1677809518763826" width="4.413830512386227" height="4.413830512386227" transform="rotate(21.89271302315761 96.09713938677321 5.374696208069496)"/><rect x="95.31243303931394" y="78.51130841438886" width="4.919882361063143" height="4.919882361063143" transform="rotate(11.441802509105361 97.77237421984552 80.97124959492044)"/><rect x="101.74870280834666" y="1.5244509787981428" width="4.844955355507333" height="4.844955355507333" transform="rotate(38.95199661655996 104.17118048610033 3.946928656551809)"/><rect x="102.83893316713754" y="79.31408223230027" width="4.160041725086598" height="4.160041725086598" transform="rotate(65.47321038373951 104.91895402968083 81.39410309484356)"/><rect x="110.86316122217373" y="-1.089347468123187" width="4.068076908500948" height="4.068076908500948" transform="rotate(17.097110950886652 112.89719967642421 0.944690986127287)"/><rect x="110.70386981858461" y="77.12882532946156" width="4.53295692191893" height="4.53295692191893" transform="rotate(53.494484492733605 112.97034827954407 79.39530379042102)"/><rect x="118.50245232501756" y="0.05363597128092623" width="4.0399435741472915" height="4.0399435741472915" transform="rotate(32.322205385986614 120.5224241120912 2.073607758354572)"/><rect x="117.85758730346592" y="74.10627456736631" width="4.934707692633811" height="4.934707692633811" transform="rotate(80.76222143849556 120.32494114978283 76.57362841368322)"/><rect x="126.16332534351828" y="-3.550837103399935" width="4.992876957568149" height="4.992876957568149" transform="rotate(16.349157455551047 128.65976382230235 -1.0543986246158603)"/><rect x="126.07239273026694" y="75.65318855078762" width="4.342748435082816" height="4.342748435082816" transform="rotate(58.76139503272751 128.24376694780835 77.82456276832903)"/><rect x="0.4975211166900816" y="14.56668229714782" width="1.7064498302339126" height="1.7064498302339126" transform="rotate(80.10889093504632 1.350746031807038 15.419907212264775)"/><rect x="0.12293685470931259" y="100.89953961264207" width="1.6134787156097121" height="1.6134787156097121" transform="rotate(87.78428272981586 0.9296762125141687 101.70627897044693)"/><rect x="6.809693453183574" y="15.206912212887792" width="1.8488772567837628" height="1.8488772567837628" transform="rotate(59.49581488766116 7.7341320815754555 16.131350841279673)"/><rect x="8.669295092349982" y="97.65404884187217" width="1.9988267087539842" height="1.9988267087539842" transform="rotate(75.7981678407613 9.668708446726974 98.65346219624917)"/><rect x="12.168955363455195" y="13.141469791544457" width="1.8395893917435275" height="1.8395893917435275" transform="rotate(44.4245230207427 13.088750059326959 14.06126448741622)"/><rect x="12.532078784729233" y="96.44888543436304" width="1.9922007195915903" height="1.9922007195915903" transform="rotate(65.7267709404536 13.528179144525028 97.44498579415882)"/><rect x="19.99567302106047" y="11.538565872890864" width="1.7494982794100837" height="1.7494982794100837" transform="rotate(38.44648749229588 20.87042216076551 12.413315012595906)"/><rect x="20.09016693122983" y="94.81466367623734" width="1.7798472682246262" height="1.7798472682246262" transform="rotate(79.15627216561633 20.980090565342145 95.70458731034965)"/><rect x="25.85494257485124" y="9.811002246019289" width="1.5574166552010105" height="1.5574166552010105" transform="rotate(75.43100096783404 26.633650902451745 10.589710573619794)"/><rect x="23.15016330461378" y="94.06628029154872" width="1.8655357699838544" height="1.8655357699838544" transform="rotate(24.943619236788024 24.08293118960571 94.99904817654065)"/><rect x="31.603051011654077" y="12.009526365045684" width="1.996788961031518" height="1.996788961031518" transform="rotate(9.203946965775334 32.60144549216984 13.007920845561442)"/><rect x="31.27283663010548" y="95.06367180525389" width="1.8693687682251832" height="1.8693687682251832" transform="rotate(74.22191376376476 32.207521014218074 95.99835618936648)"/><rect x="38.20125891830456" y="9.22543757638201" width="1.7142898298942328" height="1.7142898298942328" transform="rotate(4.016565569473505 39.058403833251674 10.082582491329127)"/><rect x="38.55002735336593" y="94.65222273012785" width="1.8845809002899714" height="1.8845809002899714" transform="rotate(38.803264546948675 39.492317803510915 95.59451318027283)"/><rect x="44.45095303799796" y="9.833261659367281" width="1.8537422850694811" height="1.8537422850694811" transform="rotate(53.24353298673056 45.377824180532706 10.76013280190202)"/><rect x="43.972542048393194" y="90.56104185709636" width="1.893505839590747" height="1.893505839590747" transform="rotate(89.52933885694577 44.91929496818857 91.50779477689173)"/><rect x="50.49095036006396" y="7.085891678710239" width="1.7956630628232038" height="1.7956630628232038" transform="rotate(79.56257169470916 51.38878189147557 7.983723210121841)"/><rect x="48.586904506949196" y="92.70865206954073" width="1.8709846189365051" height="1.8709846189365051" transform="rotate(80.20222913568736 49.52239681641745 93.64414437900899)"/><rect x="55.71739081094353" y="7.969987270874902" width="1.7145161092955108" height="1.7145161092955108" transform="rotate(28.850869428544073 56.574648865591286 8.827245325522657)"/><rect x="55.928524185280686" y="88.85181484527565" width="1.8983187965577242" height="1.8983187965577242" transform="rotate(11.331816952695783 56.877683583559545 89.80097424355452)"/><rect x="61.0191126397663" y="4.909412014095523" width="1.5179745094433312" height="1.5179745094433312" transform="rotate(75.72019398791036 61.778099894487966 5.668399268817188)"/><rect x="62.48377240619204" y="90.15670920234984" width="1.683964378436098" height="1.683964378436098" transform="rotate(5.246789320116663 63.32575459541009 90.99869139156789)"/><rect x="67.57881658075826" y="4.111390448765096" width="1.6860825169537763" height="1.6860825169537763" transform="rotate(2.779380489855503 68.42185783923514 4.954431707241985)"/><rect x="65.24211937521547" y="88.78894215320155" width="1.904160157296673" height="1.904160157296673" transform="rotate(45.33570316234465 66.1941994538638 89.74102223184988)"/><rect x="74.40093310076782" y="1.8919821441885616" width="1.8465771306360343" height="1.8465771306360343" transform="rotate(65.8259910413553 75.32422166608583 2.8152707095065788)"/><rect x="74.16133006808597" y="88.44226966736368" width="1.9947639469415541" height="1.9947639469415541" transform="rotate(76.64160716823602 75.15871204155675 89.43965164083446)"/><rect x="77.84797010843238" y="1.70194715042004" width="1.8436913297781523" height="1.8436913297781523" transform="rotate(35.72881553022782 78.76981577332145 2.623792815309116)"/><rect x="80.92251367778823" y="87.73022228498041" width="1.5769546869742226" height="1.5769546869742226" transform="rotate(74.39316291506715 81.71099102127535 88.51869962846753)"/><rect x="85.5047553439379" y="1.0583497276458922" width="1.7954147634309756" height="1.7954147634309756" transform="rotate(84.36414499679704 86.4024627256534 1.9560571093613799)"/><rect x="84.9714900301131" y="87.45957675627388" width="1.7421551838617957" height="1.7421551838617957" transform="rotate(58.850530457884126 85.842567622044 88.33065434820477)"/><rect x="92.51913310915748" y="-0.8115855855165006" width="1.7367263227596288" height="1.7367263227596288" transform="rotate(75.87142819612241 93.3874962705373 0.05677757586331378)"/><rect x="91.60695743093858" y="83.98456006599838" width="1.6002321018355263" height="1.6002321018355263" transform="rotate(81.14723921508283 92.40707348185634 84.78467611691615)"/><rect x="97.91301961607444" y="-0.1593406635090726" width="1.5563250685666694" height="1.5563250685666694" transform="rotate(35.948060776340114 98.69118215035778 0.6188218707742621)"/><rect x="95.92973281768444" y="84.95814243315365" width="1.5356282333223914" height="1.5356282333223914" transform="rotate(60.77817033046442 96.69754693434564 85.72595654981485)"/><rect x="104.4619401746128" y="-0.866335421492008" width="1.8965380100949933" height="1.8965380100949933" transform="rotate(87.4441021497814 105.4102091796603 0.08193358355548863)"/><rect x="102.6002172181053" y="84.389773334245" width="1.6115832720762162" height="1.6115832720762162" transform="rotate(70.58057310334502 103.40600885414341 85.19556497028312)"/><rect x="107.22231450463535" y="-2.1578627951155567" width="1.6483379704146273" height="1.6483379704146273" transform="rotate(69.38738381628977 108.04648348984266 -1.333693809908243)"/><rect x="109.88501124473432" y="82.26591103029145" width="1.784240879621998" height="1.784240879621998" transform="rotate(17.249523655949314 110.77713168454531 83.15803147010244)"/><rect x="114.46581676667971" y="-1.6071572224245425" width="1.508197007532059" height="1.508197007532059" transform="rotate(78.55172466518945 115.21991527044574 -0.853058718658513)"/><rect x="114.47040164258195" y="82.15729552564994" width="1.9975043007312974" height="1.9975043007312974" transform="rotate(81.87107924742776 115.4691537929476 83.15604767601559)"/><rect x="120.81424487698492" y="-4.480189022019085" width="1.851143334076481" height="1.851143334076481" transform="rotate(17.564786992426704 121.73981654402316 -3.554617354980845)"/><rect x="120.47779009591488" y="80.36406076787924" width="1.8311746384197738" height="1.8311746384197738" transform="rotate(8.519663451580028 121.39337741512477 81.27964808708913)"/><rect x="125.84883706825823" y="-4.340921920209028" width="1.6651074263260477" height="1.6651074263260477" transform="rotate(72.08153565721514 126.68139078142126 -3.5083682070460043)"/><rect x="126.10249264982838" y="81.30588317291466" width="1.7213321166043967" height="1.7213321166043967" transform="rotate(86.91994901289289 126.96315870813058 82.16654923121686)"/></g></svg>