<svg id="Grid" xmlns="http://www.w3.org/2000/svg" viewBox="0 0 450 650"><defs><style>.cls-1{fill:none;stroke:#999;stroke-linecap:square;}</style></defs><title>2DCA</title><g id="Grid-2" data-name="Grid"><line class="cls-1" x1="60" y1="70" x2="60" y2="390"/><line class="cls-1" x1="100" y1="70" x2="100" y2="390"/><line class="cls-1" x1="140" y1="70" x2="140" y2="390"/><line class="cls-1" x1="180" y1="70" x2="180" y2="390"/><line class="cls-1" x1="220" y1="70" x2="220" y2="390"/><line class="cls-1" x1="260" y1="70" x2="260" y2="390"/><line class="cls-1" x1="300" y1="70" x2="300" y2="390"/><line class="cls-1" x1="340" y1="70" x2="340" y2="390"/><line class="cls-1" x1="380" y1="70" x2="380" y2="390"/><line class="cls-1" x1="60" y1="70" x2="380" y2="70"/><line class="cls-1" x1="60" y1="110" x2="380" y2="110"/><line class="cls-1" x1="60" y1="150" x2="380" y2="150"/><line class="cls-1" x1="60" y1="190" x2="380" y2="190"/><line class="cls-1" x1="60" y1="230" x2="380" y2="230"/><line class="cls-1" x1="60" y1="270" x2="380" y2="270"/><line class="cls-1" x1="60" y1="310" x2="380" y2="310"/><line class="cls-1" x1="60" y1="350" x2="380" y2="350"/><line class="cls-1" x1="60" y1="390" x2="380" y2="390"/></g></svg>