<?xml version="1.0" encoding="UTF-8" standalone="no"?>
<!DOCTYPE svg PUBLIC "-//W3C//DTD SVG 1.1//EN" "http://www.w3.org/Graphics/SVG/1.1/DTD/svg11.dtd">
<svg width="100%" height="100%" viewBox="0 0 1723 1389" version="1.1" xmlns="http://www.w3.org/2000/svg" xmlns:xlink="http://www.w3.org/1999/xlink" xml:space="preserve" xmlns:serif="http://www.serif.com/" style="fill-rule:evenodd;clip-rule:evenodd;stroke-miterlimit:10;">
    <g transform="matrix(1,0,0,1,-3875,0)">
        <g id="Page-3" serif:id="Page 3" transform="matrix(4.16667,0,0,4.16667,3875,0)">
            <rect x="0" y="0" width="413.333" height="333.333" style="fill:none;"/>
            <g id="Grid">
                <g transform="matrix(1,0,0,1,0,-0.001)">
                    <rect x="6.667" y="6.667" width="400" height="320" style="fill:none;stroke:rgb(167,169,172);stroke-width:1px;"/>
                </g>
                <g transform="matrix(1,0,0,1,6.6667,286.666)">
                    <path d="M0,0L400,0" style="fill:none;stroke:rgb(167,169,172);stroke-width:1px;"/>
                </g>
                <g transform="matrix(1,0,0,1,6.6667,246.666)">
                    <path d="M0,0L400,0" style="fill:none;stroke:rgb(167,169,172);stroke-width:1px;"/>
                </g>
                <g transform="matrix(1,0,0,1,6.6667,206.666)">
                    <path d="M0,0L400,0" style="fill:none;stroke:rgb(167,169,172);stroke-width:1px;"/>
                </g>
                <g transform="matrix(1,0,0,1,6.6667,166.666)">
                    <path d="M0,0L400,0" style="fill:none;stroke:rgb(167,169,172);stroke-width:1px;"/>
                </g>
                <g transform="matrix(1,0,0,1,6.6667,126.666)">
                    <path d="M0,0L400,0" style="fill:none;stroke:rgb(167,169,172);stroke-width:1px;"/>
                </g>
                <g transform="matrix(1,0,0,1,6.6667,86.6663)">
                    <path d="M0,0L400,0" style="fill:none;stroke:rgb(167,169,172);stroke-width:1px;"/>
                </g>
                <g transform="matrix(1,0,0,1,6.6667,46.6663)">
                    <path d="M0,0L400,0" style="fill:none;stroke:rgb(167,169,172);stroke-width:1px;"/>
                </g>
                <g transform="matrix(0,1,1,0,526.667,166.666)">
                    <path d="M-160,-160L160,-160" style="fill:none;stroke:rgb(167,169,172);stroke-width:1px;"/>
                </g>
                <g transform="matrix(0,1,1,0,486.667,166.666)">
                    <path d="M-160,-160L160,-160" style="fill:none;stroke:rgb(167,169,172);stroke-width:1px;"/>
                </g>
                <g transform="matrix(0,1,1,0,446.667,166.666)">
                    <path d="M-160,-160L160,-160" style="fill:none;stroke:rgb(167,169,172);stroke-width:1px;"/>
                </g>
                <g transform="matrix(0,1,1,0,406.667,166.666)">
                    <path d="M-160,-160L160,-160" style="fill:none;stroke:rgb(167,169,172);stroke-width:1px;"/>
                </g>
                <g transform="matrix(0,1,1,0,366.667,166.666)">
                    <path d="M-160,-160L160,-160" style="fill:none;stroke:rgb(167,169,172);stroke-width:1px;"/>
                </g>
                <g transform="matrix(0,1,1,0,326.667,166.666)">
                    <path d="M-160,-160L160,-160" style="fill:none;stroke:rgb(167,169,172);stroke-width:1px;"/>
                </g>
                <g transform="matrix(0,1,1,0,286.667,166.666)">
                    <path d="M-160,-160L160,-160" style="fill:none;stroke:rgb(167,169,172);stroke-width:1px;"/>
                </g>
                <g transform="matrix(0,1,1,0,246.667,166.666)">
                    <path d="M-160,-160L160,-160" style="fill:none;stroke:rgb(167,169,172);stroke-width:1px;"/>
                </g>
                <g transform="matrix(0,1,1,0,206.667,166.666)">
                    <path d="M-160,-160L160,-160" style="fill:none;stroke:rgb(167,169,172);stroke-width:1px;"/>
                </g>
            </g>
            <g id="Convex-Hull" serif:id="Convex Hull">
                <g>
                    <g opacity="0.300003">
                        <g transform="matrix(1,0,0,1,209.495,46.6668)">
                            <path d="M0,2.828L-2.828,0L-5.657,2.828" style="fill:none;stroke:rgb(19,117,188);stroke-width:4px;stroke-linecap:round;stroke-linejoin:round;stroke-miterlimit:4;"/>
                        </g>
                        <g transform="matrix(1,0,0,1,199.644,279.7)">
                            <path d="M0,-226.011L-32.977,-193.034L-72.977,-73.034L-72.977,0" style="fill:none;stroke:rgb(19,117,188);stroke-width:4px;stroke-linecap:round;stroke-linejoin:round;stroke-miterlimit:4;stroke-dasharray:7.91,5.93;"/>
                        </g>
                        <g transform="matrix(1,0,0,1,126.667,286.666)">
                            <path d="M0,-4L0,0L4,0" style="fill:none;stroke:rgb(19,117,188);stroke-width:4px;stroke-linecap:round;stroke-linejoin:round;stroke-miterlimit:4;"/>
                        </g>
                        <g transform="matrix(1,0,0,1,136.75,209.281)">
                            <path d="M0,77.385L29.916,77.385L223.378,0" style="fill:none;stroke:rgb(19,117,188);stroke-width:4px;stroke-linecap:round;stroke-linejoin:round;stroke-miterlimit:4;stroke-dasharray:8.11,6.08;"/>
                        </g>
                        <g transform="matrix(1,0,0,1,362.953,203.838)">
                            <path d="M0,4.314L3.714,2.828L0.885,0" style="fill:none;stroke:rgb(19,117,188);stroke-width:4px;stroke-linecap:round;stroke-linejoin:round;stroke-miterlimit:4;"/>
                        </g>
                        <g transform="matrix(-0.707107,-0.707107,-0.707107,0.707107,285.595,21.005)">
                            <path d="M-178.546,73.956L30.634,73.956" style="fill:none;stroke:rgb(19,117,188);stroke-width:4px;stroke-linecap:round;stroke-linejoin:round;stroke-miterlimit:4;stroke-dasharray:8.08,6.06;"/>
                        </g>
                    </g>
                </g>
            </g>
            <g id="Layer-4" serif:id="Layer 4">
                <g transform="matrix(-0.707102,-0.707112,-0.707112,0.707102,210.889,80.2885)">
                    <path d="M-86.377,35.779L14.82,35.779" style="fill:none;stroke:rgb(19,117,188);stroke-width:2px;"/>
                </g>
                <g transform="matrix(-0.927307,0.374303,0.374303,0.927307,167.926,100.324)">
                    <path d="M-17.626,0.126L-9.58,0.126L-3.993,5.918L-3.945,-13.136L-17.626,0.126Z" style="fill:rgb(19,117,188);fill-rule:nonzero;"/>
                </g>
                <g transform="matrix(-0.948684,0.316225,0.316225,0.948684,146.509,219.143)">
                    <path d="M-111.612,-18.112L2.939,-18.112" style="fill:none;stroke:rgb(19,117,188);stroke-width:2px;stroke-linecap:round;"/>
                </g>
                <g transform="matrix(-0.0799082,0.996802,0.996802,0.0799082,142.784,206.475)">
                    <path d="M-12.203,-2.788L-4.157,-2.788L1.429,3.004L1.478,-16.051L-12.203,-2.788Z" style="fill:rgb(19,117,188);fill-rule:nonzero;"/>
                </g>
                <g transform="matrix(-0.919144,-0.393922,-0.393922,0.919144,174.589,116.575)">
                    <path d="M-85.982,17.649L3.623,17.649" style="fill:none;stroke:rgb(19,117,188);stroke-width:2px;stroke-linecap:round;"/>
                </g>
                <g transform="matrix(-0.721924,0.691973,0.691973,0.721924,160.656,144.997)">
                    <path d="M-21.079,-5.036L-13.032,-5.036L-7.445,0.755L-7.397,-18.3L-21.079,-5.036Z" style="fill:rgb(19,117,188);fill-rule:nonzero;"/>
                </g>
            </g>
            <g id="Layer-5" serif:id="Layer 5">
                <text x="140px" y="73.332px" style="font-family:'CMUSerif-Italic', 'CMU Serif';font-weight:500;font-style:italic;font-size:36px;fill:rgb(19,117,188);">u</text>
                <text x="93.344px" y="200.016px" style="font-family:'CMUSerif-Italic', 'CMU Serif';font-weight:500;font-style:italic;font-size:36px;fill:rgb(19,117,188);">v</text>
                <text x="126.68px" y="120.024px" style="font-family:'CMUSerif-Italic', 'CMU Serif';font-weight:500;font-style:italic;font-size:36px;fill:rgb(19,117,188);">x</text>
            </g>
            <g id="Dots">
                <g>
                    <g opacity="0.300003">
                        <g transform="matrix(1,0,0,1,220,206.666)">
                            <path d="M0,0C0,-7.364 -5.97,-13.333 -13.333,-13.333C-20.697,-13.333 -26.667,-7.364 -26.667,0C-26.667,7.364 -20.697,13.333 -13.333,13.333C-5.97,13.333 0,7.364 0,0" style="fill:rgb(36,170,225);fill-rule:nonzero;"/>
                        </g>
                    </g>
                </g>
                <g>
                    <g opacity="0.300003">
                        <g transform="matrix(1,0,0,1,300,206.666)">
                            <path d="M0,0C0,-7.364 -5.97,-13.333 -13.333,-13.333C-20.697,-13.333 -26.667,-7.364 -26.667,0C-26.667,7.364 -20.697,13.333 -13.333,13.333C-5.97,13.333 0,7.364 0,0" style="fill:rgb(36,170,225);fill-rule:nonzero;"/>
                        </g>
                    </g>
                </g>
                <g>
                    <g opacity="0.300003">
                        <g transform="matrix(1,0,0,1,340,206.666)">
                            <path d="M0,0C0,-7.364 -5.97,-13.333 -13.333,-13.333C-20.697,-13.333 -26.667,-7.364 -26.667,0C-26.667,7.364 -20.697,13.333 -13.333,13.333C-5.97,13.333 0,7.364 0,0" style="fill:rgb(36,170,225);fill-rule:nonzero;"/>
                        </g>
                    </g>
                </g>
                <g>
                    <g opacity="0.300003">
                        <g transform="matrix(1,0,0,1,380,206.666)">
                            <path d="M0,0C0,-7.364 -5.97,-13.333 -13.333,-13.333C-20.697,-13.333 -26.667,-7.364 -26.667,0C-26.667,7.364 -20.697,13.333 -13.333,13.333C-5.97,13.333 0,7.364 0,0" style="fill:rgb(36,170,225);fill-rule:nonzero;"/>
                        </g>
                    </g>
                </g>
                <g transform="matrix(1,0,0,1,260,166.666)">
                    <path d="M0,0C0,-7.364 -5.97,-13.333 -13.333,-13.333C-20.697,-13.333 -26.667,-7.364 -26.667,0C-26.667,7.364 -20.697,13.333 -13.333,13.333C-5.97,13.333 0,7.364 0,0" style="fill:rgb(19,117,188);fill-rule:nonzero;"/>
                </g>
                <g transform="matrix(0,-1,-1,-0,246.666,153.333)">
                    <ellipse cx="-13.334" cy="0" rx="13.333" ry="13.334" style="fill:none;stroke:rgb(42,56,144);stroke-width:3px;"/>
                </g>
                <g>
                    <g opacity="0.300003">
                        <g transform="matrix(1,0,0,1,300,166.666)">
                            <path d="M0,0C0,-7.364 -5.97,-13.333 -13.333,-13.333C-20.697,-13.333 -26.667,-7.364 -26.667,0C-26.667,7.364 -20.697,13.333 -13.333,13.333C-5.97,13.333 0,7.364 0,0" style="fill:rgb(36,170,225);fill-rule:nonzero;"/>
                        </g>
                    </g>
                </g>
                <g>
                    <g opacity="0.300003">
                        <g transform="matrix(1,0,0,1,220,46.6663)">
                            <path d="M0,0C0,-7.364 -5.97,-13.333 -13.333,-13.333C-20.697,-13.333 -26.667,-7.364 -26.667,0C-26.667,7.364 -20.697,13.333 -13.333,13.333C-5.97,13.333 0,7.364 0,0" style="fill:rgb(36,170,225);fill-rule:nonzero;"/>
                        </g>
                    </g>
                </g>
                <g>
                    <g opacity="0.300003">
                        <g transform="matrix(1,0,0,1,220,86.6663)">
                            <path d="M0,0C0,-7.364 -5.97,-13.333 -13.333,-13.333C-20.697,-13.333 -26.667,-7.364 -26.667,0C-26.667,7.364 -20.697,13.333 -13.333,13.333C-5.97,13.333 0,7.364 0,0" style="fill:rgb(36,170,225);fill-rule:nonzero;"/>
                        </g>
                    </g>
                </g>
                <g>
                    <g opacity="0.300003">
                        <g transform="matrix(1,0,0,1,260,126.666)">
                            <path d="M0,0C0,-7.364 -5.97,-13.333 -13.333,-13.333C-20.697,-13.333 -26.667,-7.364 -26.667,0C-26.667,7.364 -20.697,13.333 -13.333,13.333C-5.97,13.333 0,7.364 0,0" style="fill:rgb(36,170,225);fill-rule:nonzero;"/>
                        </g>
                    </g>
                </g>
                <g>
                    <g opacity="0.300003">
                        <g transform="matrix(1,0,0,1,180,166.666)">
                            <path d="M0,0C0,-7.364 -5.97,-13.333 -13.333,-13.333C-20.697,-13.333 -26.667,-7.364 -26.667,0C-26.667,7.364 -20.697,13.333 -13.333,13.333C-5.97,13.333 0,7.364 0,0" style="fill:rgb(36,170,225);fill-rule:nonzero;"/>
                        </g>
                    </g>
                </g>
                <g>
                    <g opacity="0.300003">
                        <g transform="matrix(1,0,0,1,180,86.6663)">
                            <path d="M0,0C0,-7.364 -5.97,-13.333 -13.333,-13.333C-20.697,-13.333 -26.667,-7.364 -26.667,0C-26.667,7.364 -20.697,13.333 -13.333,13.333C-5.97,13.333 0,7.364 0,0" style="fill:rgb(36,170,225);fill-rule:nonzero;"/>
                        </g>
                    </g>
                </g>
                <g>
                    <g opacity="0.300003">
                        <g transform="matrix(1,0,0,1,140,286.666)">
                            <path d="M0,0C0,-7.364 -5.97,-13.333 -13.333,-13.333C-20.697,-13.333 -26.667,-7.364 -26.667,0C-26.667,7.364 -20.697,13.333 -13.333,13.333C-5.97,13.333 0,7.364 0,0" style="fill:rgb(36,170,225);fill-rule:nonzero;"/>
                        </g>
                    </g>
                </g>
                <g>
                    <g opacity="0.300003">
                        <g transform="matrix(1,0,0,1,180,286.666)">
                            <path d="M0,0C0,-7.364 -5.97,-13.333 -13.333,-13.333C-20.697,-13.333 -26.667,-7.364 -26.667,0C-26.667,7.364 -20.697,13.333 -13.333,13.333C-5.97,13.333 0,7.364 0,0" style="fill:rgb(36,170,225);fill-rule:nonzero;"/>
                        </g>
                    </g>
                </g>
                <g>
                    <g opacity="0.300003">
                        <g transform="matrix(1,0,0,1,180,246.666)">
                            <path d="M0,0C0,-7.364 -5.97,-13.333 -13.333,-13.333C-20.697,-13.333 -26.667,-7.364 -26.667,0C-26.667,7.364 -20.697,13.333 -13.333,13.333C-5.97,13.333 0,7.364 0,0" style="fill:rgb(36,170,225);fill-rule:nonzero;"/>
                        </g>
                    </g>
                </g>
                <g>
                    <g opacity="0.300003">
                        <g transform="matrix(1,0,0,1,140,206.666)">
                            <path d="M0,0C0,-7.364 -5.97,-13.333 -13.333,-13.333C-20.697,-13.333 -26.667,-7.364 -26.667,0C-26.667,7.364 -20.697,13.333 -13.333,13.333C-5.97,13.333 0,7.364 0,0" style="fill:rgb(36,170,225);fill-rule:nonzero;"/>
                        </g>
                    </g>
                </g>
                <g>
                    <g opacity="0.300003">
                        <g transform="matrix(1,0,0,1,220,246.666)">
                            <path d="M0,0C0,-7.364 -5.97,-13.333 -13.333,-13.333C-20.697,-13.333 -26.667,-7.364 -26.667,0C-26.667,7.364 -20.697,13.333 -13.333,13.333C-5.97,13.333 0,7.364 0,0" style="fill:rgb(36,170,225);fill-rule:nonzero;"/>
                        </g>
                    </g>
                </g>
            </g>
        </g>
    </g>
</svg>
