<?xml version="1.0" encoding="UTF-8" standalone="no"?>
<!DOCTYPE svg PUBLIC "-//W3C//DTD SVG 1.1//EN" "http://www.w3.org/Graphics/SVG/1.1/DTD/svg11.dtd">
<svg width="100%" height="100%" viewBox="0 0 1723 1389" version="1.1" xmlns="http://www.w3.org/2000/svg" xmlns:xlink="http://www.w3.org/1999/xlink" xml:space="preserve" xmlns:serif="http://www.serif.com/" style="fill-rule:evenodd;clip-rule:evenodd;stroke-miterlimit:10;">
    <g id="Page-1" serif:id="Page 1" transform="matrix(4.16667,0,0,4.16667,0,0)">
        <rect x="0" y="0" width="413.333" height="333.333" style="fill:none;"/>
        <g id="Grid">
            <g transform="matrix(1,0,0,1,0,-0.001)">
                <rect x="6.667" y="6.667" width="400" height="320" style="fill:none;stroke:rgb(167,169,172);stroke-width:1px;"/>
            </g>
            <g transform="matrix(1,0,0,1,6.6667,286.666)">
                <path d="M0,0L400,0" style="fill:none;stroke:rgb(167,169,172);stroke-width:1px;"/>
            </g>
            <g transform="matrix(1,0,0,1,6.6667,246.666)">
                <path d="M0,0L400,0" style="fill:none;stroke:rgb(167,169,172);stroke-width:1px;"/>
            </g>
            <g transform="matrix(1,0,0,1,6.6667,206.666)">
                <path d="M0,0L400,0" style="fill:none;stroke:rgb(167,169,172);stroke-width:1px;"/>
            </g>
            <g transform="matrix(1,0,0,1,6.6667,166.666)">
                <path d="M0,0L400,0" style="fill:none;stroke:rgb(167,169,172);stroke-width:1px;"/>
            </g>
            <g transform="matrix(1,0,0,1,6.6667,126.666)">
                <path d="M0,0L400,0" style="fill:none;stroke:rgb(167,169,172);stroke-width:1px;"/>
            </g>
            <g transform="matrix(1,0,0,1,6.6667,86.6663)">
                <path d="M0,0L400,0" style="fill:none;stroke:rgb(167,169,172);stroke-width:1px;"/>
            </g>
            <g transform="matrix(1,0,0,1,6.6667,46.6663)">
                <path d="M0,0L400,0" style="fill:none;stroke:rgb(167,169,172);stroke-width:1px;"/>
            </g>
            <g transform="matrix(0,1,1,0,526.667,166.666)">
                <path d="M-160,-160L160,-160" style="fill:none;stroke:rgb(167,169,172);stroke-width:1px;"/>
            </g>
            <g transform="matrix(0,1,1,0,486.667,166.666)">
                <path d="M-160,-160L160,-160" style="fill:none;stroke:rgb(167,169,172);stroke-width:1px;"/>
            </g>
            <g transform="matrix(0,1,1,0,446.667,166.666)">
                <path d="M-160,-160L160,-160" style="fill:none;stroke:rgb(167,169,172);stroke-width:1px;"/>
            </g>
            <g transform="matrix(0,1,1,0,406.667,166.666)">
                <path d="M-160,-160L160,-160" style="fill:none;stroke:rgb(167,169,172);stroke-width:1px;"/>
            </g>
            <g transform="matrix(0,1,1,0,366.667,166.666)">
                <path d="M-160,-160L160,-160" style="fill:none;stroke:rgb(167,169,172);stroke-width:1px;"/>
            </g>
            <g transform="matrix(0,1,1,0,326.667,166.666)">
                <path d="M-160,-160L160,-160" style="fill:none;stroke:rgb(167,169,172);stroke-width:1px;"/>
            </g>
            <g transform="matrix(0,1,1,0,286.667,166.666)">
                <path d="M-160,-160L160,-160" style="fill:none;stroke:rgb(167,169,172);stroke-width:1px;"/>
            </g>
            <g transform="matrix(0,1,1,0,246.667,166.666)">
                <path d="M-160,-160L160,-160" style="fill:none;stroke:rgb(167,169,172);stroke-width:1px;"/>
            </g>
            <g transform="matrix(0,1,1,0,206.667,166.666)">
                <path d="M-160,-160L160,-160" style="fill:none;stroke:rgb(167,169,172);stroke-width:1px;"/>
            </g>
        </g>
        <g id="Dots">
            <g transform="matrix(1,0,0,1,220,206.666)">
                <path d="M0,0C0,-7.364 -5.97,-13.333 -13.333,-13.333C-20.697,-13.333 -26.667,-7.364 -26.667,0C-26.667,7.364 -20.697,13.333 -13.333,13.333C-5.97,13.333 0,7.364 0,0" style="fill:rgb(36,170,225);fill-rule:nonzero;"/>
            </g>
            <g transform="matrix(1,0,0,1,300,206.666)">
                <path d="M0,0C0,-7.364 -5.97,-13.333 -13.333,-13.333C-20.697,-13.333 -26.667,-7.364 -26.667,0C-26.667,7.364 -20.697,13.333 -13.333,13.333C-5.97,13.333 0,7.364 0,0" style="fill:rgb(36,170,225);fill-rule:nonzero;"/>
            </g>
            <g transform="matrix(1,0,0,1,340,206.666)">
                <path d="M0,0C0,-7.364 -5.97,-13.333 -13.333,-13.333C-20.697,-13.333 -26.667,-7.364 -26.667,0C-26.667,7.364 -20.697,13.333 -13.333,13.333C-5.97,13.333 0,7.364 0,0" style="fill:rgb(36,170,225);fill-rule:nonzero;"/>
            </g>
            <g transform="matrix(1,0,0,1,380,206.666)">
                <path d="M0,0C0,-7.364 -5.97,-13.333 -13.333,-13.333C-20.697,-13.333 -26.667,-7.364 -26.667,0C-26.667,7.364 -20.697,13.333 -13.333,13.333C-5.97,13.333 0,7.364 0,0" style="fill:rgb(36,170,225);fill-rule:nonzero;"/>
            </g>
            <g transform="matrix(1,0,0,1,260,166.666)">
                <path d="M0,0C0,-7.364 -5.97,-13.333 -13.333,-13.333C-20.697,-13.333 -26.667,-7.364 -26.667,0C-26.667,7.364 -20.697,13.333 -13.333,13.333C-5.97,13.333 0,7.364 0,0" style="fill:rgb(19,117,188);fill-rule:nonzero;"/>
            </g>
            <g transform="matrix(0,-1,-1,-0,246.666,153.333)">
                <ellipse cx="-13.334" cy="0" rx="13.333" ry="13.334" style="fill:none;stroke:rgb(42,56,144);stroke-width:3px;"/>
            </g>
            <g transform="matrix(1,0,0,1,300,166.666)">
                <path d="M0,0C0,-7.364 -5.97,-13.333 -13.333,-13.333C-20.697,-13.333 -26.667,-7.364 -26.667,0C-26.667,7.364 -20.697,13.333 -13.333,13.333C-5.97,13.333 0,7.364 0,0" style="fill:rgb(36,170,225);fill-rule:nonzero;"/>
            </g>
            <g transform="matrix(1,0,0,1,220,46.6663)">
                <path d="M0,0C0,-7.364 -5.97,-13.333 -13.333,-13.333C-20.697,-13.333 -26.667,-7.364 -26.667,0C-26.667,7.364 -20.697,13.333 -13.333,13.333C-5.97,13.333 0,7.364 0,0" style="fill:rgb(36,170,225);fill-rule:nonzero;"/>
            </g>
            <g transform="matrix(1,0,0,1,220,86.6663)">
                <path d="M0,0C0,-7.364 -5.97,-13.333 -13.333,-13.333C-20.697,-13.333 -26.667,-7.364 -26.667,0C-26.667,7.364 -20.697,13.333 -13.333,13.333C-5.97,13.333 0,7.364 0,0" style="fill:rgb(36,170,225);fill-rule:nonzero;"/>
            </g>
            <g transform="matrix(1,0,0,1,260,126.666)">
                <path d="M0,0C0,-7.364 -5.97,-13.333 -13.333,-13.333C-20.697,-13.333 -26.667,-7.364 -26.667,0C-26.667,7.364 -20.697,13.333 -13.333,13.333C-5.97,13.333 0,7.364 0,0" style="fill:rgb(36,170,225);fill-rule:nonzero;"/>
            </g>
            <g transform="matrix(1,0,0,1,180,166.666)">
                <path d="M0,0C0,-7.364 -5.97,-13.333 -13.333,-13.333C-20.697,-13.333 -26.667,-7.364 -26.667,0C-26.667,7.364 -20.697,13.333 -13.333,13.333C-5.97,13.333 0,7.364 0,0" style="fill:rgb(36,170,225);fill-rule:nonzero;"/>
            </g>
            <g transform="matrix(1,0,0,1,180,86.6663)">
                <path d="M0,0C0,-7.364 -5.97,-13.333 -13.333,-13.333C-20.697,-13.333 -26.667,-7.364 -26.667,0C-26.667,7.364 -20.697,13.333 -13.333,13.333C-5.97,13.333 0,7.364 0,0" style="fill:rgb(36,170,225);fill-rule:nonzero;"/>
            </g>
            <g transform="matrix(1,0,0,1,140,286.666)">
                <path d="M0,0C0,-7.364 -5.97,-13.333 -13.333,-13.333C-20.697,-13.333 -26.667,-7.364 -26.667,0C-26.667,7.364 -20.697,13.333 -13.333,13.333C-5.97,13.333 0,7.364 0,0" style="fill:rgb(36,170,225);fill-rule:nonzero;"/>
            </g>
            <g transform="matrix(1,0,0,1,180,286.666)">
                <path d="M0,0C0,-7.364 -5.97,-13.333 -13.333,-13.333C-20.697,-13.333 -26.667,-7.364 -26.667,0C-26.667,7.364 -20.697,13.333 -13.333,13.333C-5.97,13.333 0,7.364 0,0" style="fill:rgb(36,170,225);fill-rule:nonzero;"/>
            </g>
            <g transform="matrix(1,0,0,1,180,246.666)">
                <path d="M0,0C0,-7.364 -5.97,-13.333 -13.333,-13.333C-20.697,-13.333 -26.667,-7.364 -26.667,0C-26.667,7.364 -20.697,13.333 -13.333,13.333C-5.97,13.333 0,7.364 0,0" style="fill:rgb(36,170,225);fill-rule:nonzero;"/>
            </g>
            <g transform="matrix(1,0,0,1,140,206.666)">
                <path d="M0,0C0,-7.364 -5.97,-13.333 -13.333,-13.333C-20.697,-13.333 -26.667,-7.364 -26.667,0C-26.667,7.364 -20.697,13.333 -13.333,13.333C-5.97,13.333 0,7.364 0,0" style="fill:rgb(36,170,225);fill-rule:nonzero;"/>
            </g>
            <g transform="matrix(1,0,0,1,220,246.666)">
                <path d="M0,0C0,-7.364 -5.97,-13.333 -13.333,-13.333C-20.697,-13.333 -26.667,-7.364 -26.667,0C-26.667,7.364 -20.697,13.333 -13.333,13.333C-5.97,13.333 0,7.364 0,0" style="fill:rgb(36,170,225);fill-rule:nonzero;"/>
            </g>
        </g>
    </g>
</svg>
