<?xml version="1.0" encoding="UTF-8" standalone="no"?>
<!DOCTYPE svg PUBLIC "-//W3C//DTD SVG 1.1//EN" "http://www.w3.org/Graphics/SVG/1.1/DTD/svg11.dtd">
<svg width="100%" height="100%" viewBox="0 0 1723 1389" version="1.1" xmlns="http://www.w3.org/2000/svg" xmlns:xlink="http://www.w3.org/1999/xlink" xml:space="preserve" xmlns:serif="http://www.serif.com/" style="fill-rule:evenodd;clip-rule:evenodd;stroke-miterlimit:10;">
    <g transform="matrix(1,0,0,1,-1937,0)">
        <g id="Page-2" serif:id="Page 2" transform="matrix(4.16667,0,0,4.16667,1937.5,0)">
            <rect x="0" y="0" width="413.333" height="333.333" style="fill:none;"/>
            <g id="Grid">
                <g transform="matrix(1,0,0,1,0,-0.001)">
                    <rect x="6.667" y="6.667" width="400" height="320" style="fill:none;stroke:rgb(167,169,172);stroke-width:1px;"/>
                </g>
                <g transform="matrix(1,0,0,1,6.6667,286.666)">
                    <path d="M0,0L400,0" style="fill:none;stroke:rgb(167,169,172);stroke-width:1px;"/>
                </g>
                <g transform="matrix(1,0,0,1,6.6667,246.666)">
                    <path d="M0,0L400,0" style="fill:none;stroke:rgb(167,169,172);stroke-width:1px;"/>
                </g>
                <g transform="matrix(1,0,0,1,6.6667,206.666)">
                    <path d="M0,0L400,0" style="fill:none;stroke:rgb(167,169,172);stroke-width:1px;"/>
                </g>
                <g transform="matrix(1,0,0,1,6.6667,166.666)">
                    <path d="M0,0L400,0" style="fill:none;stroke:rgb(167,169,172);stroke-width:1px;"/>
                </g>
                <g transform="matrix(1,0,0,1,6.6667,126.666)">
                    <path d="M0,0L400,0" style="fill:none;stroke:rgb(167,169,172);stroke-width:1px;"/>
                </g>
                <g transform="matrix(1,0,0,1,6.6667,86.6663)">
                    <path d="M0,0L400,0" style="fill:none;stroke:rgb(167,169,172);stroke-width:1px;"/>
                </g>
                <g transform="matrix(1,0,0,1,6.6667,46.6663)">
                    <path d="M0,0L400,0" style="fill:none;stroke:rgb(167,169,172);stroke-width:1px;"/>
                </g>
                <g transform="matrix(0,1,1,0,526.667,166.666)">
                    <path d="M-160,-160L160,-160" style="fill:none;stroke:rgb(167,169,172);stroke-width:1px;"/>
                </g>
                <g transform="matrix(0,1,1,0,486.667,166.666)">
                    <path d="M-160,-160L160,-160" style="fill:none;stroke:rgb(167,169,172);stroke-width:1px;"/>
                </g>
                <g transform="matrix(0,1,1,0,446.667,166.666)">
                    <path d="M-160,-160L160,-160" style="fill:none;stroke:rgb(167,169,172);stroke-width:1px;"/>
                </g>
                <g transform="matrix(0,1,1,0,406.667,166.666)">
                    <path d="M-160,-160L160,-160" style="fill:none;stroke:rgb(167,169,172);stroke-width:1px;"/>
                </g>
                <g transform="matrix(0,1,1,0,366.667,166.666)">
                    <path d="M-160,-160L160,-160" style="fill:none;stroke:rgb(167,169,172);stroke-width:1px;"/>
                </g>
                <g transform="matrix(0,1,1,0,326.667,166.666)">
                    <path d="M-160,-160L160,-160" style="fill:none;stroke:rgb(167,169,172);stroke-width:1px;"/>
                </g>
                <g transform="matrix(0,1,1,0,286.667,166.666)">
                    <path d="M-160,-160L160,-160" style="fill:none;stroke:rgb(167,169,172);stroke-width:1px;"/>
                </g>
                <g transform="matrix(0,1,1,0,246.667,166.666)">
                    <path d="M-160,-160L160,-160" style="fill:none;stroke:rgb(167,169,172);stroke-width:1px;"/>
                </g>
                <g transform="matrix(0,1,1,0,206.667,166.666)">
                    <path d="M-160,-160L160,-160" style="fill:none;stroke:rgb(167,169,172);stroke-width:1px;"/>
                </g>
            </g>
            <g id="Convex-Hull" serif:id="Convex Hull">
                <g transform="matrix(1,0,0,1,209.495,46.6668)">
                    <path d="M0,2.828L-2.828,0L-5.657,2.828" style="fill:none;stroke:rgb(19,117,188);stroke-width:4px;stroke-linecap:round;stroke-linejoin:round;stroke-miterlimit:4;"/>
                </g>
                <g transform="matrix(1,0,0,1,199.644,279.7)">
                    <path d="M0,-226.011L-32.977,-193.034L-72.977,-73.034L-72.977,0" style="fill:none;stroke:rgb(19,117,188);stroke-width:4px;stroke-linecap:round;stroke-linejoin:round;stroke-miterlimit:4;stroke-dasharray:7.91,5.93;"/>
                </g>
                <g transform="matrix(1,0,0,1,126.667,286.666)">
                    <path d="M0,-4L0,0L4,0" style="fill:none;stroke:rgb(19,117,188);stroke-width:4px;stroke-linecap:round;stroke-linejoin:round;stroke-miterlimit:4;"/>
                </g>
                <g transform="matrix(1,0,0,1,136.75,209.281)">
                    <path d="M0,77.385L29.916,77.385L223.378,0" style="fill:none;stroke:rgb(19,117,188);stroke-width:4px;stroke-linecap:round;stroke-linejoin:round;stroke-miterlimit:4;stroke-dasharray:8.11,6.08;"/>
                </g>
                <g transform="matrix(1,0,0,1,362.953,203.838)">
                    <path d="M0,4.314L3.714,2.828L0.885,0" style="fill:none;stroke:rgb(19,117,188);stroke-width:4px;stroke-linecap:round;stroke-linejoin:round;stroke-miterlimit:4;"/>
                </g>
                <g transform="matrix(-0.707107,-0.707107,-0.707107,0.707107,285.595,21.005)">
                    <path d="M-178.546,73.956L30.634,73.956" style="fill:none;stroke:rgb(19,117,188);stroke-width:4px;stroke-linecap:round;stroke-linejoin:round;stroke-miterlimit:4;stroke-dasharray:8.08,6.06;"/>
                </g>
            </g>
            <g id="Dots">
                <g transform="matrix(1,0,0,1,220,206.666)">
                    <path d="M0,0C0,-7.364 -5.97,-13.333 -13.333,-13.333C-20.697,-13.333 -26.667,-7.364 -26.667,0C-26.667,7.364 -20.697,13.333 -13.333,13.333C-5.97,13.333 0,7.364 0,0" style="fill:rgb(36,170,225);fill-rule:nonzero;"/>
                </g>
                <g transform="matrix(1,0,0,1,300,206.666)">
                    <path d="M0,0C0,-7.364 -5.97,-13.333 -13.333,-13.333C-20.697,-13.333 -26.667,-7.364 -26.667,0C-26.667,7.364 -20.697,13.333 -13.333,13.333C-5.97,13.333 0,7.364 0,0" style="fill:rgb(36,170,225);fill-rule:nonzero;"/>
                </g>
                <g transform="matrix(1,0,0,1,340,206.666)">
                    <path d="M0,0C0,-7.364 -5.97,-13.333 -13.333,-13.333C-20.697,-13.333 -26.667,-7.364 -26.667,0C-26.667,7.364 -20.697,13.333 -13.333,13.333C-5.97,13.333 0,7.364 0,0" style="fill:rgb(36,170,225);fill-rule:nonzero;"/>
                </g>
                <g transform="matrix(1,0,0,1,380,206.666)">
                    <path d="M0,0C0,-7.364 -5.97,-13.333 -13.333,-13.333C-20.697,-13.333 -26.667,-7.364 -26.667,0C-26.667,7.364 -20.697,13.333 -13.333,13.333C-5.97,13.333 0,7.364 0,0" style="fill:rgb(36,170,225);fill-rule:nonzero;"/>
                </g>
                <g transform="matrix(1,0,0,1,260,166.666)">
                    <path d="M0,0C0,-7.364 -5.97,-13.333 -13.333,-13.333C-20.697,-13.333 -26.667,-7.364 -26.667,0C-26.667,7.364 -20.697,13.333 -13.333,13.333C-5.97,13.333 0,7.364 0,0" style="fill:rgb(19,117,188);fill-rule:nonzero;"/>
                </g>
                <g transform="matrix(0,-1,-1,-0,246.666,153.333)">
                    <ellipse cx="-13.334" cy="0" rx="13.333" ry="13.334" style="fill:none;stroke:rgb(42,56,144);stroke-width:3px;"/>
                </g>
                <g transform="matrix(1,0,0,1,300,166.666)">
                    <path d="M0,0C0,-7.364 -5.97,-13.333 -13.333,-13.333C-20.697,-13.333 -26.667,-7.364 -26.667,0C-26.667,7.364 -20.697,13.333 -13.333,13.333C-5.97,13.333 0,7.364 0,0" style="fill:rgb(36,170,225);fill-rule:nonzero;"/>
                </g>
                <g transform="matrix(1,0,0,1,220,46.6663)">
                    <path d="M0,0C0,-7.364 -5.97,-13.333 -13.333,-13.333C-20.697,-13.333 -26.667,-7.364 -26.667,0C-26.667,7.364 -20.697,13.333 -13.333,13.333C-5.97,13.333 0,7.364 0,0" style="fill:rgb(36,170,225);fill-rule:nonzero;"/>
                </g>
                <g transform="matrix(1,0,0,1,220,86.6663)">
                    <path d="M0,0C0,-7.364 -5.97,-13.333 -13.333,-13.333C-20.697,-13.333 -26.667,-7.364 -26.667,0C-26.667,7.364 -20.697,13.333 -13.333,13.333C-5.97,13.333 0,7.364 0,0" style="fill:rgb(36,170,225);fill-rule:nonzero;"/>
                </g>
                <g transform="matrix(1,0,0,1,260,126.666)">
                    <path d="M0,0C0,-7.364 -5.97,-13.333 -13.333,-13.333C-20.697,-13.333 -26.667,-7.364 -26.667,0C-26.667,7.364 -20.697,13.333 -13.333,13.333C-5.97,13.333 0,7.364 0,0" style="fill:rgb(36,170,225);fill-rule:nonzero;"/>
                </g>
                <g transform="matrix(1,0,0,1,180,166.666)">
                    <path d="M0,0C0,-7.364 -5.97,-13.333 -13.333,-13.333C-20.697,-13.333 -26.667,-7.364 -26.667,0C-26.667,7.364 -20.697,13.333 -13.333,13.333C-5.97,13.333 0,7.364 0,0" style="fill:rgb(36,170,225);fill-rule:nonzero;"/>
                </g>
                <g transform="matrix(1,0,0,1,180,86.6663)">
                    <path d="M0,0C0,-7.364 -5.97,-13.333 -13.333,-13.333C-20.697,-13.333 -26.667,-7.364 -26.667,0C-26.667,7.364 -20.697,13.333 -13.333,13.333C-5.97,13.333 0,7.364 0,0" style="fill:rgb(36,170,225);fill-rule:nonzero;"/>
                </g>
                <g transform="matrix(1,0,0,1,140,286.666)">
                    <path d="M0,0C0,-7.364 -5.97,-13.333 -13.333,-13.333C-20.697,-13.333 -26.667,-7.364 -26.667,0C-26.667,7.364 -20.697,13.333 -13.333,13.333C-5.97,13.333 0,7.364 0,0" style="fill:rgb(36,170,225);fill-rule:nonzero;"/>
                </g>
                <g transform="matrix(1,0,0,1,180,286.666)">
                    <path d="M0,0C0,-7.364 -5.97,-13.333 -13.333,-13.333C-20.697,-13.333 -26.667,-7.364 -26.667,0C-26.667,7.364 -20.697,13.333 -13.333,13.333C-5.97,13.333 0,7.364 0,0" style="fill:rgb(36,170,225);fill-rule:nonzero;"/>
                </g>
                <g transform="matrix(1,0,0,1,180,246.666)">
                    <path d="M0,0C0,-7.364 -5.97,-13.333 -13.333,-13.333C-20.697,-13.333 -26.667,-7.364 -26.667,0C-26.667,7.364 -20.697,13.333 -13.333,13.333C-5.97,13.333 0,7.364 0,0" style="fill:rgb(36,170,225);fill-rule:nonzero;"/>
                </g>
                <g transform="matrix(1,0,0,1,140,206.666)">
                    <path d="M0,0C0,-7.364 -5.97,-13.333 -13.333,-13.333C-20.697,-13.333 -26.667,-7.364 -26.667,0C-26.667,7.364 -20.697,13.333 -13.333,13.333C-5.97,13.333 0,7.364 0,0" style="fill:rgb(36,170,225);fill-rule:nonzero;"/>
                </g>
                <g transform="matrix(1,0,0,1,220,246.666)">
                    <path d="M0,0C0,-7.364 -5.97,-13.333 -13.333,-13.333C-20.697,-13.333 -26.667,-7.364 -26.667,0C-26.667,7.364 -20.697,13.333 -13.333,13.333C-5.97,13.333 0,7.364 0,0" style="fill:rgb(36,170,225);fill-rule:nonzero;"/>
                </g>
            </g>
        </g>
    </g>
</svg>
