<?xml version="1.0" encoding="utf-8"?>
<!-- Generator: Adobe Illustrator 19.0.0, SVG Export Plug-In . SVG Version: 6.00 Build 0)  -->
<svg version="1.1" xmlns="http://www.w3.org/2000/svg" xmlns:xlink="http://www.w3.org/1999/xlink" x="0px" y="0px"
	 viewBox="0 0 370 345" style="enable-background:new 0 0 370 345;" xml:space="preserve">
<style type="text/css">
	.st0{fill:none;stroke:#000000;stroke-width:2;stroke-linecap:round;stroke-miterlimit:10;}
	.st1{clip-path:url(#XMLID_65_);}
	.st2{clip-path:url(#XMLID_66_);}
	.st3{fill:none;stroke:#000000;stroke-miterlimit:10;}
	.st4{clip-path:url(#XMLID_67_);}
</style>
<g id="word">
</g>
<g id="axis">
</g>
<g id="path">
	<g id="XMLID_1_">
		<g id="XMLID_18_">
			<line id="XMLID_21_" class="st0" x1="360" y1="10" x2="88.4" y2="281.6"/>
			<g id="XMLID_19_">
				<polygon id="XMLID_20_" points="87.2,272.3 90.2,279.8 97.7,282.8 80,290 				"/>
			</g>
		</g>
	</g>
	<g id="XMLID_2_">
		<g id="XMLID_13_">
			<line id="XMLID_16_" class="st0" x1="360" y1="10" x2="127.2" y2="320.4"/>
			<g id="XMLID_14_">
				<polygon id="XMLID_15_" points="124.6,311.5 128.6,318.5 136.5,320.4 120,330 				"/>
			</g>
		</g>
	</g>
	<g id="XMLID_4_">
		<defs>
			<rect id="XMLID_5_" x="130" y="126" width="83" height="24"/>
		</defs>
		<clipPath id="XMLID_65_">
			<use xlink:href="#XMLID_5_"  style="overflow:visible;"/>
		</clipPath>
		<path id="XMLID_28_" class="st1" d="M145.2,126.6h-14.6l-0.5,5.4h0.6c0.3-3.8,0.7-4.6,4.3-4.6c0.4,0,1,0,1.3,0.1
			c0.5,0.1,0.5,0.4,0.5,0.9v12.6c0,0.8,0,1.1-2.5,1.1h-1v0.7c1-0.1,3.4-0.1,4.5-0.1c1.1,0,3.5,0,4.5,0.1V142h-1
			c-2.5,0-2.5-0.3-2.5-1.1v-12.6c0-0.5,0-0.8,0.4-0.9c0.3-0.1,0.9-0.1,1.4-0.1c3.6,0,3.9,0.8,4.3,4.6h0.6L145.2,126.6"/>
		<path id="XMLID_25_" class="st1" d="M157,134.6c2.3-0.6,4.2-2,4.2-3.9c0-2.3-2.7-4.3-6.2-4.3h-7.5v0.7h0.6c1.8,0,1.9,0.3,1.9,1.1
			v12.6c0,0.9-0.1,1.1-1.9,1.1h-0.6v0.7c0.9-0.1,2.6-0.1,3.5-0.1c0.9,0,2.6,0,3.5,0.1V142h-0.6c-1.8,0-1.9-0.3-1.9-1.1v-6h2.7
			c0.4,0,1.4,0,2.2,0.8c0.9,0.9,0.9,1.6,0.9,3.2c0,1.5,0,2.5,1,3.4c1,0.9,2.3,1,3,1c1.9,0,2.3-2,2.3-2.6c0-0.1,0-0.4-0.3-0.4
			c-0.3,0-0.3,0.2-0.3,0.4c-0.1,1.7-1,2.1-1.6,2.1c-1.2,0-1.4-1.2-1.7-3.4l-0.3-1.9C159.4,135.8,158.3,135,157,134.6 M151.9,134.3
			v-6.2c0-0.6,0-0.8,0.5-0.9c0.2-0.1,0.9-0.1,1.4-0.1c2.1,0,4.8,0.1,4.8,3.5c0,1.7-0.6,3.6-4.1,3.6H151.9z"/>
		<path id="XMLID_24_" class="st1" d="M172.8,141.4c0-0.7-0.6-1.3-1.3-1.3c-0.7,0-1.3,0.6-1.3,1.3c0,0.7,0.6,1.3,1.3,1.3
			C172.2,142.7,172.8,142.1,172.8,141.4"/>
		<path id="XMLID_23_" class="st1" d="M186,133.8c0-1.3-0.6-1.7-1.1-1.7c-0.6,0-1.2,0.6-1.2,1.1c0,0.3,0.1,0.5,0.4,0.7
			c0.5,0.5,0.8,1.1,0.8,1.9c0,1-1.5,6.5-4.2,6.5c-1.2,0-1.8-0.8-1.8-2.1c0-1.3,0.7-3.1,1.4-5.1c0.2-0.4,0.3-0.7,0.3-1.2
			c0-1.1-0.8-2-1.9-2c-2.3,0-3.2,3.5-3.2,3.7c0,0.2,0.2,0.2,0.3,0.2c0.2,0,0.3-0.1,0.4-0.4c0.7-2.4,1.7-3,2.4-3c0.2,0,0.6,0,0.6,0.7
			c0,0.6-0.2,1.3-0.4,1.7c-1,2.8-1.4,3.9-1.4,4.9c0,2.6,2.1,3,3.2,3C184.6,143,186,135.1,186,133.8"/>
		<path id="XMLID_10_" class="st1" d="M191.2,145.9c-0.6,0-1.5-0.2-2.1-1c-0.5-0.7-0.5-1.6-0.5-2.3c0-0.7,0-1.7,0.6-2.4
			c0.4-0.5,1.1-0.9,2-0.9c1,0,1.7,0.5,2.1,1c0.5,0.7,0.5,1.5,0.5,2.3c0,0.8-0.1,1.7-0.6,2.4C192.8,145.6,192,145.9,191.2,145.9
			 M195.3,142.7c0-2.1-1.8-3.9-4.1-3.9c-2.3,0-4.1,1.8-4.1,3.9c0,2.1,1.8,3.7,4.1,3.7C193.5,146.5,195.3,144.8,195.3,142.7z"/>
		<path id="XMLID_7_" class="st1" d="M199.3,140.7c0.5-0.9,1.5-1.3,2.4-1.3c1.4,0,2.5,1.5,2.5,3.2c0,1.9-1.3,3.3-2.7,3.3
			c-1.5,0-2.1-1.3-2.2-1.4V140.7 M200.6,149c-1.1,0-1.3,0-1.3-0.7v-2.7c0.1,0.1,0.9,1,2.3,1c2.2,0,4.1-1.7,4.1-3.8
			c0-2.1-1.7-3.8-3.9-3.8c-1,0-1.9,0.3-2.6,1v-1l-2.5,0.2v0.6c1.2,0,1.3,0.1,1.3,0.8v7.8c0,0.7-0.2,0.7-1.3,0.7v0.6
			c0,0,1.2-0.1,1.9-0.1c0.6,0,1.8,0.1,1.9,0.1V149z"/>
		<path id="XMLID_6_" class="st1" d="M209.9,139.7h2.6v-0.6h-2.6V136h-0.6c0,1.5-0.7,3.2-2.3,3.2v0.5h1.6v4.5c0,1.9,1.4,2.3,2.3,2.3
			c1.1,0,1.9-1,1.9-2.3v-0.9h-0.6v0.9c0,1.1-0.5,1.8-1.2,1.8c-1.1,0-1.1-1.4-1.1-1.7V139.7"/>
	</g>
	<g id="XMLID_29_">
		<defs>
			<rect id="XMLID_30_" x="228.1" y="191.4" width="87" height="24"/>
		</defs>
		<clipPath id="XMLID_66_">
			<use xlink:href="#XMLID_30_"  style="overflow:visible;"/>
		</clipPath>
		<path id="XMLID_45_" class="st2" d="M243.2,192h-14.6l-0.5,5.4h0.6c0.3-3.8,0.7-4.6,4.3-4.6c0.4,0,1,0,1.3,0.1
			c0.5,0.1,0.5,0.4,0.5,0.9v12.6c0,0.8,0,1.1-2.5,1.1h-1v0.7c1-0.1,3.4-0.1,4.5-0.1c1.1,0,3.6,0,4.5,0.1v-0.7h-0.9
			c-2.5,0-2.5-0.3-2.5-1.1v-12.6c0-0.5,0-0.8,0.4-0.9c0.3-0.1,0.9-0.1,1.4-0.1c3.6,0,3.9,0.8,4.3,4.6h0.6L243.2,192"/>
		<path id="XMLID_42_" class="st2" d="M255,200c2.3-0.6,4.2-2,4.2-3.9c0-2.3-2.7-4.3-6.2-4.3h-7.5v0.7h0.6c1.8,0,1.9,0.3,1.9,1.1
			v12.6c0,0.9-0.1,1.1-1.9,1.1h-0.6v0.7c0.9-0.1,2.6-0.1,3.5-0.1c0.9,0,2.6,0,3.5,0.1v-0.7h-0.6c-1.8,0-1.9-0.3-1.9-1.1v-6h2.7
			c0.4,0,1.4,0,2.2,0.8c0.9,0.9,0.9,1.6,0.9,3.2c0,1.5,0,2.5,1,3.4c1,0.9,2.3,1,3,1c1.9,0,2.3-2,2.3-2.6c0-0.1,0-0.4-0.3-0.4
			c-0.2,0-0.2,0.2-0.3,0.4c-0.2,1.7-1,2.1-1.6,2.1c-1.2,0-1.4-1.2-1.7-3.4l-0.3-1.9C257.5,201.3,256.3,200.5,255,200 M250,199.7
			v-6.2c0-0.6,0-0.8,0.5-0.9c0.2-0.1,0.9-0.1,1.4-0.1c2.1,0,4.8,0.1,4.8,3.5c0,1.7-0.6,3.6-4.1,3.6H250z"/>
		<path id="XMLID_41_" class="st2" d="M270.7,206.8c0-0.7-0.6-1.3-1.3-1.3s-1.3,0.6-1.3,1.3c0,0.7,0.6,1.3,1.3,1.3
			S270.7,207.5,270.7,206.8"/>
		<path id="XMLID_40_" class="st2" d="M284,199.3c0-1.3-0.6-1.7-1.1-1.7c-0.6,0-1.2,0.6-1.2,1.1c0,0.3,0.1,0.5,0.4,0.7
			c0.5,0.5,0.8,1.1,0.8,1.9c0,1-1.4,6.5-4.2,6.5c-1.2,0-1.8-0.8-1.8-2.1c0-1.3,0.6-3.1,1.4-5.1c0.2-0.4,0.3-0.7,0.3-1.2
			c0-1.1-0.7-2-1.9-2c-2.2,0-3.1,3.5-3.1,3.7c0,0.2,0.2,0.2,0.3,0.2c0.2,0,0.3-0.1,0.4-0.4c0.7-2.4,1.7-3,2.4-3c0.2,0,0.6,0,0.6,0.7
			c0,0.6-0.2,1.3-0.4,1.7c-1,2.8-1.4,3.9-1.4,4.9c0,2.6,2.1,3,3.2,3C282.6,208.4,284,200.5,284,199.3"/>
		<path id="XMLID_37_" class="st2" d="M290.6,209.3c0,1.6-1.4,2.1-2.2,2.1c-0.9,0-1.7-0.6-1.7-1.4c0-0.9,0.8-2.2,3.8-2.3V209.3
			 M291.9,207.2c0-0.9,0-1.5-0.8-2.2c-0.7-0.6-1.5-0.9-2.5-0.9c-1.6,0-2.7,0.6-2.7,1.7c0,0.5,0.4,0.8,0.8,0.8c0.5,0,0.8-0.3,0.8-0.8
			c0-0.3-0.1-0.6-0.6-0.8c0.6-0.4,1.6-0.4,1.7-0.4c1,0,2,0.6,2,2.1v0.5c-0.9,0-2,0.1-3.2,0.5c-1.5,0.6-2,1.5-2,2.2
			c0,1.5,1.8,1.9,3,1.9c1.3,0,2.1-0.7,2.5-1.4c0.1,0.7,0.5,1.3,1.3,1.3c0,0,1.7,0,1.7-1.6v-0.9h-0.6v0.9c0,0.2,0,1-0.6,1
			c-0.6,0-0.6-0.8-0.6-1V207.2z"/>
		<path id="XMLID_34_" class="st2" d="M297.3,206.1c0.5-0.9,1.5-1.3,2.4-1.3c1.4,0,2.5,1.5,2.5,3.2c0,1.9-1.3,3.3-2.7,3.3
			c-1.5,0-2.1-1.3-2.2-1.4V206.1 M298.6,214.4c-1.1,0-1.3,0-1.3-0.7v-2.7c0.1,0.1,0.9,1,2.3,1c2.2,0,4.1-1.7,4.1-3.8
			c0-2.1-1.7-3.8-3.9-3.8c-1,0-1.9,0.3-2.6,1v-1l-2.5,0.2v0.6c1.2,0,1.3,0.1,1.3,0.8v7.8c0,0.7-0.2,0.7-1.3,0.7v0.6
			c0,0,1.2-0.1,1.9-0.1c0.6,0,1.8,0.1,1.9,0.1V214.4z"/>
		<path id="XMLID_31_" class="st2" d="M307.9,206.1c0.5-0.9,1.5-1.3,2.4-1.3c1.4,0,2.5,1.5,2.5,3.2c0,1.9-1.3,3.3-2.7,3.3
			c-1.5,0-2.1-1.3-2.2-1.4V206.1 M309.2,214.4c-1.1,0-1.3,0-1.3-0.7v-2.7c0.1,0.1,0.9,1,2.3,1c2.2,0,4.1-1.7,4.1-3.8
			c0-2.1-1.7-3.8-3.9-3.8c-1,0-1.9,0.3-2.6,1v-1l-2.5,0.2v0.6c1.2,0,1.3,0.1,1.3,0.8v7.8c0,0.7-0.2,0.7-1.3,0.7v0.6
			c0,0,1.2-0.1,1.9-0.1c0.6,0,1.8,0.1,1.9,0.1V214.4z"/>
	</g>
	<g id="XMLID_3_">
		<g id="XMLID_58_">
			<line id="XMLID_63_" class="st3" x1="75.8" y1="295.8" x2="114.2" y2="334.2"/>
			<g id="XMLID_61_">
				<polygon id="XMLID_62_" points="75.2,301 76.2,301 76,296 81,296.2 81,295.2 75,295 				"/>
			</g>
			<g id="XMLID_59_">
				<polygon id="XMLID_60_" points="109,334.8 109,333.8 114,334 113.8,329 114.8,329 115,335 				"/>
			</g>
		</g>
	</g>
	<g id="XMLID_47_">
		<defs>
			<rect id="XMLID_48_" x="10" y="312" width="80" height="18"/>
		</defs>
		<clipPath id="XMLID_67_">
			<use xlink:href="#XMLID_48_"  style="overflow:visible;"/>
		</clipPath>
		<path id="XMLID_64_" class="st4" d="M25,316.8c0.3-0.1,0.5-0.3,0.5-0.5c0-0.3-0.2-0.5-0.5-0.5c-0.1,0-0.1,0-0.4,0.2l-13.2,6.2
			c-0.3,0.1-0.5,0.2-0.5,0.5c0,0.3,0.2,0.4,0.5,0.5l13.2,6.2c0.3,0.2,0.3,0.2,0.4,0.2c0.3,0,0.5-0.2,0.5-0.5c0-0.3-0.2-0.4-0.5-0.5
			l-12.5-5.9L25,316.8"/>
		<path id="XMLID_56_" class="st4" d="M50,312.6H35.4l-0.5,5.4h0.6c0.3-3.8,0.7-4.6,4.3-4.6c0.4,0,1,0,1.3,0.1
			c0.5,0.1,0.5,0.3,0.5,0.9v12.5c0,0.8,0,1.1-2.5,1.1h-1v0.7c1-0.1,3.4-0.1,4.5-0.1c1.1,0,3.6,0,4.6,0.1v-0.7h-1
			c-2.5,0-2.5-0.3-2.5-1.1v-12.5c0-0.5,0-0.8,0.4-0.9c0.3-0.1,0.9-0.1,1.4-0.1c3.6,0,4,0.8,4.3,4.6h0.6L50,312.6"/>
		<path id="XMLID_53_" class="st4" d="M61.8,320.6c2.3-0.6,4.2-2,4.2-3.9c0-2.3-2.7-4.3-6.2-4.3h-7.5v0.7h0.6c1.8,0,1.9,0.3,1.9,1.1
			v12.6c0,0.9,0,1.1-1.9,1.1h-0.6v0.7c0.9-0.1,2.6-0.1,3.5-0.1c0.9,0,2.6,0,3.5,0.1v-0.7h-0.6c-1.8,0-1.9-0.2-1.9-1.1v-6h2.7
			c0.4,0,1.4,0,2.2,0.8c0.9,0.9,0.9,1.6,0.9,3.2c0,1.5,0,2.5,1,3.4c1,0.9,2.3,1,3,1c1.9,0,2.3-2,2.3-2.6c0-0.1,0-0.4-0.3-0.4
			c-0.3,0-0.3,0.2-0.3,0.4c-0.2,1.7-1,2.1-1.6,2.1c-1.2,0-1.4-1.2-1.7-3.4l-0.3-1.9C64.3,321.8,63.1,321.1,61.8,320.6 M56.7,320.3
			v-6.2c0-0.5,0-0.8,0.5-0.9c0.2-0.1,0.9-0.1,1.4-0.1c2.1,0,4.8,0.1,4.8,3.6c0,1.7-0.6,3.6-4.1,3.6H56.7z"/>
		<path id="XMLID_52_" class="st4" d="M77.6,327.4c0-0.7-0.6-1.3-1.3-1.3c-0.7,0-1.3,0.6-1.3,1.3s0.6,1.3,1.3,1.3
			C77,328.7,77.6,328.1,77.6,327.4"/>
		<path id="XMLID_49_" class="st4" d="M83.8,323c0.5-0.2,1-0.2,1.4-0.2c0.6,0,0.7,0,1.1,0.2c-0.3,0.2-0.4,0.2-1.3,0.2
			C84.5,323.1,84.2,323.1,83.8,323 M83,323.3c0.8,0.3,1.5,0.3,2.1,0.3c0.6,0,1.9,0,1.9-0.7c0-0.6-0.9-0.7-1.8-0.7
			c-0.5,0-1.3,0.1-2.2,0.5c-0.6-0.3-1-0.7-1-1.4c0-1.5,2.3-2.3,4.5-2.3c0.4,0,1.3,0,2.2,0.7c0.3,0.2,0.3,0.2,0.5,0.2
			c0.3,0,0.6-0.3,0.6-0.6c0-0.5-1.5-1.4-3.1-1.4c-2.7,0-5.3,1.6-5.3,3.4c0,1,0.9,1.6,1,1.7c-1.4,0.8-2.2,2.1-2.2,3.2
			c0,1.5,1.4,3,3.9,3c3.1,0,4.5-2.1,4.5-2.4c0-0.2-0.1-0.2-0.2-0.2c-0.1,0-0.2,0.1-0.2,0.2c-0.3,0.5-0.9,1.4-3.8,1.4
			c-1.5,0-3.5-0.4-3.5-2.1C80.8,325.3,81.5,324,83,323.3z"/>
	</g>
</g>
<g id="vectors">
</g>
</svg>
