<?xml version="1.0" encoding="UTF-8" standalone="no"?>
<!DOCTYPE svg PUBLIC "-//W3C//DTD SVG 1.1//EN" "http://www.w3.org/Graphics/SVG/1.1/DTD/svg11.dtd">
<svg width="100%" height="100%" viewBox="0 0 1709 1375" version="1.1" xmlns="http://www.w3.org/2000/svg" xmlns:xlink="http://www.w3.org/1999/xlink" xml:space="preserve" xmlns:serif="http://www.serif.com/" style="fill-rule:evenodd;clip-rule:evenodd;stroke-miterlimit:10;">
    <g id="Layer-1" serif:id="Layer 1" transform="matrix(4.16667,0,0,4.16667,0,0)">
        <g transform="matrix(1,0,0,1,124.897,205.001)">
            <path d="M0,109.147C-47.171,99.101 -84.419,55.453 -93.241,0L0.103,0L0,109.147Z" style="fill:rgb(248,237,47);fill-rule:nonzero;"/>
        </g>
        <g transform="matrix(1,0,0,1,125,205.001)">
            <path d="M0,-180.001C126.697,-180.001 231.814,-102.095 251.638,-0.001L0,0L0,-180.001Z" style="fill:rgb(248,237,47);fill-rule:nonzero;"/>
        </g>
        <g>
            <g opacity="0.300003">
                <g transform="matrix(1,0,0,1,125,25)">
                    <path d="M0,180.001L0,0L-93.344,180.001L0,180.001Z" style="fill:rgb(248,237,47);fill-rule:nonzero;"/>
                </g>
            </g>
        </g>
        <g>
            <g opacity="0.300003">
                <g transform="matrix(1,0,0,1,124.897,205.001)">
                    <path d="M0,109.147L251.741,0L0.103,0L0,109.147Z" style="fill:rgb(248,237,47);fill-rule:nonzero;"/>
                </g>
            </g>
        </g>
        <g transform="matrix(-1,-0,-0,1,430.029,-37.248)">
            <rect x="125" y="124.999" width="180.029" height="117.25" style="fill:rgb(251,176,64);"/>
        </g>
        <g transform="matrix(-1,-0,-0,1,182.897,124.368)">
            <rect x="58" y="80.633" width="66.897" height="44.366" style="fill:rgb(251,176,64);"/>
        </g>
        <g transform="matrix(0.837952,-0.545744,-0.545744,-0.837952,171.581,244.626)">
            <path d="M-17.408,58.625L197.437,58.625" style="fill:none;stroke:rgb(35,31,32);stroke-width:1px;"/>
        </g>
        <g transform="matrix(1,0,0,1,213.671,127.434)">
            <path d="M0,13.66C-0.053,13.953 -0.053,13.98 -0.053,14.033C-0.053,14.406 0.213,14.672 0.611,14.672C1.092,14.672 1.385,14.246 1.437,14.166C1.544,13.953 2.316,10.758 2.956,8.201C3.435,9.16 4.207,9.799 5.326,9.799C8.121,9.799 11.184,6.417 11.184,2.876C11.184,0.346 9.612,-1.012 7.882,-1.012C5.564,-1.012 3.062,1.385 2.343,4.287L0,13.66ZM5.299,9.266C3.621,9.266 3.249,7.349 3.249,7.136C3.249,7.056 3.382,6.577 3.435,6.258C4.101,3.595 4.34,2.743 4.873,1.784C5.885,0.053 7.083,-0.479 7.828,-0.479C8.707,-0.479 9.479,0.213 9.479,1.864C9.479,3.169 8.787,5.832 8.147,7.003C7.349,8.494 6.204,9.266 5.299,9.266" style="fill:rgb(35,31,32);fill-rule:nonzero;"/>
        </g>
        <g transform="matrix(0,1,1,0,285,165)">
            <path d="M-160,-160L160,-160" style="fill:none;stroke:rgb(35,31,32);stroke-width:3px;"/>
        </g>
        <g transform="matrix(1,0,0,1,5,205)">
            <path d="M0,0L400,0" style="fill:none;stroke:rgb(35,31,32);stroke-width:3px;"/>
        </g>
        <g transform="matrix(-0.813339,-0.58179,-0.58179,0.813339,200.846,-31.401)">
            <path d="M-280.515,90C-204.993,18.496 -74.173,16.288 28.876,90" style="fill:none;stroke:rgb(35,31,32);stroke-width:2px;stroke-linecap:round;stroke-linejoin:round;"/>
        </g>
        <g transform="matrix(0.649531,0.760335,0.760335,-0.649531,89.489,188.68)">
            <path d="M-25.155,-54.574C22.738,-83.884 80.12,-83.914 118.396,-54.574" style="fill:none;stroke:rgb(35,31,32);stroke-width:2px;stroke-linecap:round;stroke-linejoin:round;"/>
        </g>
        <g transform="matrix(0.459967,-0.887936,-0.887936,-0.459967,34.7665,204.787)">
            <path d="M-1.62,2.664L4.38,2.664" style="fill:none;stroke:rgb(35,31,32);stroke-width:2px;stroke-linecap:round;stroke-linejoin:round;stroke-miterlimit:4;"/>
        </g>
        <g transform="matrix(0.459958,-0.887941,-0.887941,-0.459958,131.332,187.757)">
            <path d="M-49.006,80.576L132.483,80.576" style="fill:none;stroke:rgb(35,31,32);stroke-width:2px;stroke-linecap:round;stroke-linejoin:round;stroke-miterlimit:4;stroke-dasharray:12.3,6.15;"/>
        </g>
        <g transform="matrix(0.459967,-0.887936,-0.887936,-0.459967,125.248,30.1143)">
            <path d="M-1.62,2.664L4.38,2.664" style="fill:none;stroke:rgb(35,31,32);stroke-width:2px;stroke-linecap:round;stroke-linejoin:round;stroke-miterlimit:4;"/>
        </g>
        <g transform="matrix(-0.917464,0.397818,0.397818,0.917464,371.834,208.384)">
            <path d="M-5.753,-1.194L0.248,-1.194" style="fill:none;stroke:rgb(35,31,32);stroke-width:2px;stroke-linecap:round;stroke-linejoin:round;stroke-miterlimit:4;"/>
        </g>
        <g transform="matrix(-0.917477,0.397789,0.397789,0.917477,162.912,352.539)">
            <path d="M-242.677,-50.344L10.444,-50.344" style="fill:none;stroke:rgb(35,31,32);stroke-width:2px;stroke-linecap:round;stroke-linejoin:round;stroke-miterlimit:4;stroke-dasharray:12.2,6.1;"/>
        </g>
        <g transform="matrix(-0.917464,0.397818,0.397818,0.917464,125.702,315.101)">
            <path d="M-5.753,-1.194L0.248,-1.194" style="fill:none;stroke:rgb(35,31,32);stroke-width:2px;stroke-linecap:round;stroke-linejoin:round;stroke-miterlimit:4;"/>
        </g>
        <g transform="matrix(-1,-0,-0,1,430.029,-37.248)">
            <rect x="125" y="124.999" width="180.029" height="117.25" style="fill:none;stroke:rgb(35,31,32);stroke-width:2px;stroke-linecap:round;stroke-linejoin:round;stroke-dasharray:6,6;"/>
        </g>
        <g transform="matrix(-1,-0,-0,1,183.209,123.368)">
            <rect x="58.312" y="81.633" width="66.585" height="43.366" style="fill:none;stroke:rgb(35,31,32);stroke-width:2px;stroke-linecap:round;stroke-linejoin:round;stroke-dasharray:6,6;"/>
        </g>
        <g transform="matrix(0.849667,-0.527319,-0.527319,-0.849667,74.9301,263.385)">
            <path d="M-6.272,22L77.169,22" style="fill:none;stroke:rgb(35,31,32);stroke-width:1px;"/>
        </g>
        <g transform="matrix(1,0,0,1,79.333,211.553)">
            <path d="M0,13.66C-0.053,13.953 -0.053,13.98 -0.053,14.033C-0.053,14.406 0.213,14.672 0.611,14.672C1.092,14.672 1.385,14.246 1.437,14.166C1.544,13.953 2.316,10.758 2.956,8.201C3.435,9.16 4.207,9.799 5.326,9.799C8.121,9.799 11.184,6.417 11.184,2.876C11.184,0.346 9.612,-1.012 7.882,-1.012C5.564,-1.012 3.062,1.385 2.343,4.287L0,13.66ZM5.299,9.265C3.621,9.265 3.249,7.349 3.249,7.137C3.249,7.056 3.382,6.577 3.435,6.258C4.101,3.596 4.34,2.743 4.873,1.784C5.885,0.053 7.083,-0.479 7.828,-0.479C8.707,-0.479 9.479,0.213 9.479,1.864C9.479,3.169 8.787,5.832 8.147,7.003C7.349,8.494 6.204,9.265 5.299,9.265" style="fill:rgb(35,31,32);fill-rule:nonzero;"/>
        </g>
        <g>
            <clipPath id="_clip1">
                <rect x="87.078" y="253.197" width="12.741" height="33.75" clip-rule="nonzero"/>
            </clipPath>
            <g clip-path="url(#_clip1)">
                <g transform="matrix(1,0,0,1,96.3647,258.188)">
                    <path d="M0,-0.738C0,-3.535 -1.678,-4.413 -2.996,-4.413C-5.452,-4.413 -7.809,-1.856 -7.809,0.659C-7.809,2.317 -6.73,3.675 -4.913,3.675C-3.775,3.675 -2.497,3.276 -1.139,2.177C-0.899,3.116 -0.32,3.675 0.499,3.675C1.437,3.675 1.997,2.697 1.997,2.417C1.997,2.277 1.897,2.237 1.777,2.237C1.657,2.237 1.597,2.277 1.557,2.417C1.218,3.296 0.579,3.296 0.539,3.296C0,3.296 0,1.898 0,1.458C0,1.079 0,1.059 0.179,0.839C1.857,-1.277 2.236,-3.354 2.236,-3.374C2.236,-3.395 2.216,-3.535 2.017,-3.535C1.837,-3.535 1.837,-3.495 1.737,-3.175C1.417,-2.037 0.838,-0.678 0,0.38L0,-0.738ZM-1.198,1.718C-2.776,3.096 -4.154,3.296 -4.873,3.296C-5.952,3.296 -6.471,2.477 -6.471,1.338C-6.471,0.46 -6.011,-1.477 -5.432,-2.376C-4.593,-3.694 -3.635,-4.034 -3.016,-4.034C-1.238,-4.034 -1.238,-1.677 -1.238,-0.279C-1.238,0.38 -1.238,1.419 -1.198,1.718" style="fill:rgb(35,31,32);fill-rule:nonzero;"/>
                </g>
                <g transform="matrix(1,0,0,1,87.7969,269.293)">
                    <path d="M0,0L11.543,0" style="fill:none;stroke:rgb(35,31,32);stroke-width:0.96px;"/>
                </g>
                <g transform="matrix(1,0,0,1,93.7085,286.068)">
                    <path d="M0,-12.243C0,-12.263 0,-12.422 -0.24,-12.422C-0.639,-12.422 -1.958,-12.282 -2.417,-12.263C-2.557,-12.243 -2.756,-12.222 -2.756,-11.903C-2.756,-11.683 -2.596,-11.683 -2.317,-11.683C-1.458,-11.683 -1.438,-11.564 -1.438,-11.384L-1.478,-11.024L-4.074,-0.72C-4.154,-0.46 -4.154,-0.439 -4.154,-0.32C-4.154,0.079 -3.794,0.179 -3.635,0.179C-3.395,0.179 -3.135,0.02 -3.016,-0.2C-2.936,-0.36 -2.117,-3.675 -2.017,-4.114C-1.418,-4.055 0.06,-3.775 0.06,-2.597C0.06,-2.476 0.06,-2.396 0,-2.218C-0.04,-1.998 -0.06,-1.798 -0.06,-1.598C-0.06,-0.54 0.639,0.179 1.578,0.179C2.117,0.179 2.596,-0.121 2.996,-0.779C3.435,-1.558 3.635,-2.537 3.635,-2.577C3.635,-2.757 3.475,-2.757 3.415,-2.757C3.235,-2.757 3.215,-2.677 3.175,-2.437C2.816,-1.139 2.396,-0.221 1.618,-0.221C1.278,-0.221 1.038,-0.42 1.038,-1.058C1.038,-1.358 1.119,-1.778 1.178,-2.057C1.258,-2.357 1.258,-2.437 1.258,-2.617C1.258,-3.775 0.12,-4.295 -1.398,-4.494C-0.839,-4.814 -0.26,-5.392 0.14,-5.812C0.999,-6.771 1.817,-7.529 2.696,-7.529C2.816,-7.529 2.835,-7.529 2.856,-7.51C3.076,-7.47 3.095,-7.47 3.235,-7.37C3.275,-7.349 3.275,-7.33 3.315,-7.31C2.456,-7.25 2.296,-6.551 2.296,-6.332C2.296,-6.052 2.496,-5.713 2.976,-5.713C3.435,-5.713 3.954,-6.111 3.954,-6.791C3.954,-7.33 3.535,-7.929 2.736,-7.929C2.237,-7.929 1.418,-7.789 0.12,-6.351C-0.479,-5.672 -1.178,-4.953 -1.857,-4.693L0,-12.243" style="fill:rgb(35,31,32);fill-rule:nonzero;"/>
                </g>
            </g>
        </g>
        <g transform="matrix(1,0,0,1,210.9,77.8078)">
            <path d="M0,-0.863C0,-4.242 -1.988,-5.297 -3.57,-5.297C-6.518,-5.297 -9.346,-2.23 -9.346,0.79C-9.346,2.803 -8.075,4.434 -5.871,4.434C-4.529,4.434 -2.971,3.93 -1.342,2.636C-1.078,3.762 -0.359,4.434 0.6,4.434C1.75,4.434 2.396,3.258 2.396,2.899C2.396,2.755 2.277,2.684 2.158,2.684C1.989,2.684 1.942,2.755 1.869,2.899C1.487,3.953 0.72,3.953 0.672,3.953C0,3.953 0,2.277 0,1.774C0,1.318 0,1.27 0.216,1.006C2.229,-1.51 2.684,-4.003 2.684,-4.027C2.684,-4.074 2.662,-4.242 2.422,-4.242C2.206,-4.242 2.206,-4.171 2.108,-3.787C1.727,-2.445 1.007,-0.815 0,0.455L0,-0.863ZM-1.437,2.061C-3.33,3.714 -4.983,3.953 -5.822,3.953C-7.117,3.953 -7.764,2.995 -7.764,1.629C-7.764,0.575 -7.213,-1.75 -6.518,-2.852C-5.511,-4.41 -4.361,-4.817 -3.594,-4.817C-1.485,-4.817 -1.485,-2.013 -1.485,-0.336C-1.485,0.455 -1.485,1.7 -1.437,2.061" style="fill:rgb(35,31,32);fill-rule:nonzero;"/>
        </g>
    </g>
</svg>
