<svg xmlns="http://www.w3.org/2000/svg" viewBox="0 0 373.33 373.33"><defs><style>.cls-1{fill:none;stroke:#939598;stroke-miterlimit:10;}.cls-2{fill:#1b75bc;}.cls-3{fill:#a4d6e8;}</style></defs><title>iterations</title><g id="Grid"><rect class="cls-1" x="6.67" y="6.67" width="360" height="360"/><line class="cls-1" x1="6.67" y1="326.67" x2="366.67" y2="326.67"/><line class="cls-1" x1="6.67" y1="286.67" x2="366.67" y2="286.67"/><line class="cls-1" x1="6.67" y1="246.67" x2="366.67" y2="246.67"/><line class="cls-1" x1="6.67" y1="206.67" x2="366.67" y2="206.67"/><line class="cls-1" x1="6.67" y1="166.67" x2="366.67" y2="166.67"/><line class="cls-1" x1="6.67" y1="126.67" x2="366.67" y2="126.67"/><line class="cls-1" x1="6.67" y1="86.67" x2="366.67" y2="86.67"/><line class="cls-1" x1="6.67" y1="46.67" x2="366.67" y2="46.67"/><line class="cls-1" x1="326.67" y1="6.67" x2="326.67" y2="366.67"/><line class="cls-1" x1="286.67" y1="6.67" x2="286.67" y2="366.67"/><line class="cls-1" x1="246.67" y1="6.67" x2="246.67" y2="366.67"/><line class="cls-1" x1="206.67" y1="6.67" x2="206.67" y2="366.67"/><line class="cls-1" x1="166.67" y1="6.67" x2="166.67" y2="366.67"/><line class="cls-1" x1="126.67" y1="6.67" x2="126.67" y2="366.67"/><line class="cls-1" x1="86.67" y1="6.67" x2="86.67" y2="366.67"/><line class="cls-1" x1="46.67" y1="6.67" x2="46.67" y2="366.67"/></g><g id="State"><rect class="cls-2" x="173.33" y="173.33" width="26.67" height="26.67"/><rect class="cls-3" x="180" y="140" width="13.33" height="13.33"/><rect class="cls-2" x="173.33" y="53.33" width="26.67" height="26.67"/><rect class="cls-3" x="220" y="180" width="13.33" height="13.33"/><rect class="cls-3" x="180" y="180" width="13.33" height="13.33"/><rect class="cls-2" x="293.33" y="173.33" width="26.67" height="26.67"/><rect class="cls-3" x="140" y="220" width="13.33" height="13.33"/><rect class="cls-2" x="53.33" y="293.33" width="26.67" height="26.67"/></g></svg>