<svg xmlns="http://www.w3.org/2000/svg" xmlns:xlink="http://www.w3.org/1999/xlink" viewBox="0 0 351 382.33"><defs><style>.cls-1,.cls-2,.cls-28{fill:none;}.cls-2{stroke:#939598;}.cls-2,.cls-28,.cls-3,.cls-4,.cls-5{stroke-miterlimit:10;}.cls-3{fill:#fbb040;stroke:#e0861a;}.cls-3,.cls-4,.cls-5{stroke-width:2px;}.cls-4{fill:#bcbec0;stroke:#6d6e71;}.cls-5{fill:#00aeef;stroke:#1e83ad;}.cls-6{clip-path:url(#clip-path);}.cls-7{clip-path:url(#clip-path-2);}.cls-8{clip-path:url(#clip-path-3);}.cls-9{clip-path:url(#clip-path-4);}.cls-10{clip-path:url(#clip-path-5);}.cls-11{clip-path:url(#clip-path-6);}.cls-12{clip-path:url(#clip-path-7);}.cls-13{clip-path:url(#clip-path-8);}.cls-14{clip-path:url(#clip-path-9);}.cls-15{clip-path:url(#clip-path-10);}.cls-16{clip-path:url(#clip-path-11);}.cls-17{clip-path:url(#clip-path-12);}.cls-18{clip-path:url(#clip-path-13);}.cls-19{clip-path:url(#clip-path-14);}.cls-20{clip-path:url(#clip-path-15);}.cls-21{clip-path:url(#clip-path-16);}.cls-22{clip-path:url(#clip-path-17);}.cls-23{clip-path:url(#clip-path-18);}.cls-24{clip-path:url(#clip-path-19);}.cls-25{clip-path:url(#clip-path-20);}.cls-26{clip-path:url(#clip-path-21);}.cls-27{clip-path:url(#clip-path-22);}.cls-28{stroke:#231f20;stroke-width:6px;}.cls-29{clip-path:url(#clip-path-23);}.cls-30{clip-path:url(#clip-path-24);}.cls-31{clip-path:url(#clip-path-25);}</style><clipPath id="clip-path" transform="translate(-2 -2)"><rect class="cls-1" x="17.5" y="15" width="21.01" height="25"/></clipPath><clipPath id="clip-path-2" transform="translate(-2 -2)"><rect class="cls-1" x="17.5" y="65" width="21.01" height="25"/></clipPath><clipPath id="clip-path-3" transform="translate(-2 -2)"><rect class="cls-1" x="17.5" y="115" width="21.01" height="25"/></clipPath><clipPath id="clip-path-4" transform="translate(-2 -2)"><rect class="cls-1" x="17.5" y="165" width="21.01" height="25"/></clipPath><clipPath id="clip-path-5" transform="translate(-2 -2)"><rect class="cls-1" x="17.5" y="215" width="21.01" height="25"/></clipPath><clipPath id="clip-path-6" transform="translate(-2 -2)"><rect class="cls-1" x="17.5" y="265" width="21.01" height="25"/></clipPath><clipPath id="clip-path-7" transform="translate(-2 -2)"><rect class="cls-1" x="67.5" y="265" width="21.01" height="25"/></clipPath><clipPath id="clip-path-8" transform="translate(-2 -2)"><rect class="cls-1" x="117.5" y="265" width="21.01" height="25"/></clipPath><clipPath id="clip-path-9" transform="translate(-2 -2)"><rect class="cls-1" x="167.5" y="265" width="21.01" height="25"/></clipPath><clipPath id="clip-path-10" transform="translate(-2 -2)"><rect class="cls-1" x="217.5" y="265" width="21.01" height="25"/></clipPath><clipPath id="clip-path-11" transform="translate(-2 -2)"><rect class="cls-1" x="267.5" y="265" width="21.01" height="25"/></clipPath><clipPath id="clip-path-12" transform="translate(-2 -2)"><rect class="cls-1" x="317.5" y="265" width="21.01" height="25"/></clipPath><clipPath id="clip-path-13" transform="translate(-2 -2)"><rect class="cls-1" x="67.65" y="15" width="21.01" height="25"/></clipPath><clipPath id="clip-path-14" transform="translate(-2 -2)"><rect class="cls-1" x="117.8" y="15" width="21.01" height="25"/></clipPath><clipPath id="clip-path-15" transform="translate(-2 -2)"><rect class="cls-1" x="167.95" y="15" width="21.01" height="25"/></clipPath><clipPath id="clip-path-16" transform="translate(-2 -2)"><rect class="cls-1" x="218.1" y="15" width="21.01" height="25"/></clipPath><clipPath id="clip-path-17" transform="translate(-2 -2)"><rect class="cls-1" x="268.24" y="15" width="21.01" height="25"/></clipPath><clipPath id="clip-path-18" transform="translate(-2 -2)"><rect class="cls-1" x="318.39" y="15" width="21.01" height="25"/></clipPath><clipPath id="clip-path-19" transform="translate(-2 -2)"><rect class="cls-1" x="318.39" y="65" width="21.01" height="25"/></clipPath><clipPath id="clip-path-20" transform="translate(-2 -2)"><rect class="cls-1" x="318.39" y="115" width="21.01" height="25"/></clipPath><clipPath id="clip-path-21" transform="translate(-2 -2)"><rect class="cls-1" x="318.39" y="165" width="21.01" height="25"/></clipPath><clipPath id="clip-path-22" transform="translate(-2 -2)"><rect class="cls-1" x="318.39" y="215" width="21.01" height="25"/></clipPath><clipPath id="clip-path-23" transform="translate(-2 -2)"><rect class="cls-1" x="74.25" y="343" width="88" height="36"/></clipPath><clipPath id="clip-path-24" transform="translate(-2 -2)"><rect class="cls-1" x="266.75" y="343" width="14" height="36"/></clipPath><clipPath id="clip-path-25" transform="translate(-2 -2)"><rect class="cls-1" x="209.25" y="373" width="5" height="12"/></clipPath></defs><title>languageRecognition</title><g id="Grid"><line class="cls-2" x1="0.5" y1="0.5" x2="350.5" y2="0.5"/><line class="cls-2" x1="0.5" y1="250.5" x2="350.5" y2="250.5"/><line class="cls-2" x1="0.5" y1="200.5" x2="350.5" y2="200.5"/><line class="cls-2" x1="0.5" y1="150.5" x2="350.5" y2="150.5"/><line class="cls-2" x1="0.5" y1="100.5" x2="350.5" y2="100.5"/><line class="cls-2" x1="0.5" y1="50.5" x2="350.5" y2="50.5"/><line class="cls-2" x1="0.5" y1="300.5" x2="350.5" y2="300.5"/><line class="cls-2" x1="0.5" y1="0.5" x2="0.5" y2="300.5"/><line class="cls-2" x1="300.5" y1="0.5" x2="300.5" y2="300.5"/><line class="cls-2" x1="250.5" y1="0.5" x2="250.5" y2="300.5"/><line class="cls-2" x1="200.5" y1="0.5" x2="200.5" y2="300.5"/><line class="cls-2" x1="150.5" y1="0.5" x2="150.5" y2="300.5"/><line class="cls-2" x1="100.5" y1="0.5" x2="100.5" y2="300.5"/><line class="cls-2" x1="50.5" y1="0.5" x2="50.5" y2="300.5"/><line class="cls-2" x1="350.5" y1="0.5" x2="350.5" y2="300.5"/></g><g id="Layer_2" data-name="Layer 2"><rect class="cls-3" x="58" y="58" width="35" height="35"/><rect class="cls-4" x="8" y="8" width="35" height="35"/><rect class="cls-4" x="58" y="8" width="35" height="35"/><rect class="cls-4" x="108" y="8" width="35" height="35"/><rect class="cls-4" x="158" y="8" width="35" height="35"/><rect class="cls-4" x="208" y="8" width="35" height="35"/><rect class="cls-4" x="258" y="8" width="35" height="35"/><rect class="cls-4" x="308" y="8" width="35" height="35"/><rect class="cls-4" x="308" y="58" width="35" height="35"/><rect class="cls-4" x="308" y="108" width="35" height="35"/><rect class="cls-4" x="308" y="158" width="35" height="35"/><rect class="cls-4" x="308" y="208" width="35" height="35"/><rect class="cls-4" x="308" y="258" width="35" height="35"/><rect class="cls-4" x="258" y="258" width="35" height="35"/><rect class="cls-4" x="208" y="258" width="35" height="35"/><rect class="cls-4" x="158" y="258" width="35" height="35"/><rect class="cls-4" x="108" y="258" width="35" height="35"/><rect class="cls-4" x="58" y="258" width="35" height="35"/><rect class="cls-4" x="8" y="258" width="35" height="35"/><rect class="cls-4" x="8" y="208" width="35" height="35"/><rect class="cls-4" x="8" y="158" width="35" height="35"/><rect class="cls-4" x="8" y="108" width="35" height="35"/><rect class="cls-4" x="8" y="58" width="35" height="35"/><rect class="cls-3" x="108" y="58" width="35" height="35"/><rect class="cls-5" x="158" y="58" width="35" height="35"/><rect class="cls-3" x="208" y="58" width="35" height="35"/><rect class="cls-3" x="258" y="58" width="35" height="35"/><rect class="cls-5" x="58" y="108" width="35" height="35"/><rect class="cls-5" x="108" y="108" width="35" height="35"/><rect class="cls-3" x="158" y="108" width="35" height="35"/><rect class="cls-3" x="208" y="108" width="35" height="35"/><rect class="cls-3" x="258" y="108" width="35" height="35"/><rect class="cls-3" x="58" y="158" width="35" height="35"/><rect class="cls-3" x="108" y="158" width="35" height="35"/><rect class="cls-5" x="158" y="158" width="35" height="35"/><rect class="cls-5" x="208" y="158" width="35" height="35"/><rect class="cls-3" x="258" y="158" width="35" height="35"/><rect class="cls-3" x="58" y="208" width="35" height="35"/><rect class="cls-3" x="108" y="208" width="35" height="35"/><rect class="cls-3" x="158" y="208" width="35" height="35"/><rect class="cls-5" x="208" y="208" width="35" height="35"/><rect class="cls-5" x="258" y="208" width="35" height="35"/></g><g id="Labels"><g class="cls-6"><path d="M25.25,29.67l1.12-4.32h5.24l-1.12,4.32H25.25m6.07,1.12h6.26c.4,0,.93,0,.93-.56s-.53-.56-1-.56H31.64l1.12-4.32h4.79c.43,0,1,0,1-.55s-.53-.56-.93-.56H33.1l2.19-8.1a2.51,2.51,0,0,0,.1-.48.55.55,0,0,0-.56-.56c-.45,0-.53.35-.61.67L32,24.24H26.71l2.16-8.1a1.84,1.84,0,0,0,.13-.48.56.56,0,0,0-.56-.56c-.45,0-.53.35-.61.67l-2.29,8.47H19.28c-.4,0-.9,0-.9.56s.5.55.93.55h5.91L24.1,29.67H19.31c-.4,0-.93,0-.93.56s.5.56.9.56h4.48l-2.19,8.07a2.75,2.75,0,0,0-.1.5.56.56,0,0,0,.56.56c.45,0,.53-.35.61-.67l2.26-8.46h5.27L28,38.86a2.07,2.07,0,0,0-.11.5.55.55,0,0,0,.56.56c.43,0,.54-.35.62-.67Z" transform="translate(-2 -2)"/></g><g class="cls-7"><path d="M25.25,79.67l1.12-4.32h5.24l-1.12,4.32H25.25m6.07,1.12h6.26c.4,0,.93,0,.93-.56s-.53-.56-1-.56H31.64l1.12-4.32h4.79c.43,0,1,0,1-.55s-.53-.56-.93-.56H33.1l2.19-8.1a2.51,2.51,0,0,0,.1-.48.55.55,0,0,0-.56-.56c-.45,0-.53.35-.61.67L32,74.24H26.71l2.16-8.1a1.84,1.84,0,0,0,.13-.48.56.56,0,0,0-.56-.56c-.45,0-.53.35-.61.67l-2.29,8.47H19.28c-.4,0-.9,0-.9.56s.5.55.93.55h5.91L24.1,79.67H19.31c-.4,0-.93,0-.93.56s.5.56.9.56h4.48l-2.19,8.07a2.75,2.75,0,0,0-.1.5.56.56,0,0,0,.56.56c.45,0,.53-.35.61-.67l2.26-8.46h5.27L28,88.86a2.07,2.07,0,0,0-.11.5.55.55,0,0,0,.56.56c.43,0,.54-.35.62-.67Z" transform="translate(-2 -2)"/></g><g class="cls-8"><path d="M25.25,129.67l1.12-4.32h5.24l-1.12,4.32H25.25m6.07,1.12h6.26c.4,0,.93,0,.93-.56s-.53-.56-1-.56H31.64l1.12-4.32h4.79c.43,0,1,0,1-.55s-.53-.56-.93-.56H33.1l2.19-8.1a2.51,2.51,0,0,0,.1-.48.55.55,0,0,0-.56-.56c-.45,0-.53.35-.61.67L32,124.24H26.71l2.16-8.1a1.84,1.84,0,0,0,.13-.48.56.56,0,0,0-.56-.56c-.45,0-.53.35-.61.67l-2.29,8.47H19.28c-.4,0-.9,0-.9.56s.5.55.93.55h5.91l-1.12,4.32H19.31c-.4,0-.93,0-.93.56s.5.56.9.56h4.48l-2.19,8.07a2.75,2.75,0,0,0-.1.5.56.56,0,0,0,.56.56c.45,0,.53-.35.61-.67l2.26-8.46h5.27L28,138.86a2.07,2.07,0,0,0-.11.5.55.55,0,0,0,.56.56c.43,0,.54-.35.62-.67Z" transform="translate(-2 -2)"/></g><g class="cls-9"><path d="M25.25,179.67l1.12-4.32h5.24l-1.12,4.32H25.25m6.07,1.12h6.26c.4,0,.93,0,.93-.56s-.53-.56-1-.56H31.64l1.12-4.32h4.79c.43,0,1,0,1-.55s-.53-.56-.93-.56H33.1l2.19-8.1a2.51,2.51,0,0,0,.1-.48.55.55,0,0,0-.56-.56c-.45,0-.53.35-.61.67L32,174.24H26.71l2.16-8.1a1.84,1.84,0,0,0,.13-.48.56.56,0,0,0-.56-.56c-.45,0-.53.35-.61.67l-2.29,8.47H19.28c-.4,0-.9,0-.9.56s.5.55.93.55h5.91l-1.12,4.32H19.31c-.4,0-.93,0-.93.56s.5.56.9.56h4.48l-2.19,8.07a2.75,2.75,0,0,0-.1.5.56.56,0,0,0,.56.56c.45,0,.53-.35.61-.67l2.26-8.46h5.27L28,188.86a2.07,2.07,0,0,0-.11.5.55.55,0,0,0,.56.56c.43,0,.54-.35.62-.67Z" transform="translate(-2 -2)"/></g><g class="cls-10"><path d="M25.25,229.67l1.12-4.32h5.24l-1.12,4.32H25.25m6.07,1.12h6.26c.4,0,.93,0,.93-.56s-.53-.56-1-.56H31.64l1.12-4.32h4.79c.43,0,1,0,1-.55s-.53-.56-.93-.56H33.1l2.19-8.1a2.51,2.51,0,0,0,.1-.48.55.55,0,0,0-.56-.56c-.45,0-.53.35-.61.67L32,224.24H26.71l2.16-8.1a1.84,1.84,0,0,0,.13-.48.56.56,0,0,0-.56-.56c-.45,0-.53.35-.61.67l-2.29,8.47H19.28c-.4,0-.9,0-.9.56s.5.55.93.55h5.91l-1.12,4.32H19.31c-.4,0-.93,0-.93.56s.5.56.9.56h4.48l-2.19,8.07a2.75,2.75,0,0,0-.1.5.56.56,0,0,0,.56.56c.45,0,.53-.35.61-.67l2.26-8.46h5.27L28,238.86a2.07,2.07,0,0,0-.11.5.55.55,0,0,0,.56.56c.43,0,.54-.35.62-.67Z" transform="translate(-2 -2)"/></g><g class="cls-11"><path d="M25.25,279.67l1.12-4.32h5.24l-1.12,4.32H25.25m6.07,1.12h6.26c.4,0,.93,0,.93-.56s-.53-.56-1-.56H31.64l1.12-4.32h4.79c.43,0,1,0,1-.55s-.53-.56-.93-.56H33.1l2.19-8.1a2.51,2.51,0,0,0,.1-.48.55.55,0,0,0-.56-.56c-.45,0-.53.35-.61.67L32,274.24H26.71l2.16-8.1a1.84,1.84,0,0,0,.13-.48.56.56,0,0,0-.56-.56c-.45,0-.53.35-.61.67l-2.29,8.47H19.28c-.4,0-.9,0-.9.56s.5.55.93.55h5.91l-1.12,4.32H19.31c-.4,0-.93,0-.93.56s.5.56.9.56h4.48l-2.19,8.07a2.75,2.75,0,0,0-.1.5.56.56,0,0,0,.56.56c.45,0,.53-.35.61-.67l2.26-8.46h5.27L28,288.86a2.07,2.07,0,0,0-.11.5.55.55,0,0,0,.56.56c.43,0,.54-.35.62-.67Z" transform="translate(-2 -2)"/></g><g class="cls-12"><path d="M75.25,279.67l1.12-4.32h5.24l-1.12,4.32H75.25m6.07,1.12h6.26c.4,0,.93,0,.93-.56s-.53-.56-1-.56H81.64l1.12-4.32h4.79c.43,0,1,0,1-.55s-.53-.56-.93-.56H83.1l2.19-8.1a2.51,2.51,0,0,0,.1-.48.55.55,0,0,0-.56-.56c-.45,0-.53.35-.61.67L82,274.24H76.71l2.16-8.1a1.84,1.84,0,0,0,.13-.48.56.56,0,0,0-.56-.56c-.45,0-.53.35-.61.67l-2.29,8.47H69.28c-.4,0-.9,0-.9.56s.5.55.93.55h5.91l-1.12,4.32H69.31c-.4,0-.93,0-.93.56s.5.56.9.56h4.48l-2.19,8.07a2.75,2.75,0,0,0-.1.5.56.56,0,0,0,.56.56c.45,0,.53-.35.61-.67l2.26-8.46h5.27L78,288.86a2.07,2.07,0,0,0-.11.5.55.55,0,0,0,.56.56c.43,0,.54-.35.62-.67Z" transform="translate(-2 -2)"/></g><g class="cls-13"><path d="M125.25,279.67l1.12-4.32h5.24l-1.12,4.32h-5.24m6.07,1.12h6.26c.4,0,.93,0,.93-.56s-.53-.56-1-.56h-5.91l1.12-4.32h4.79c.43,0,1,0,1-.55s-.53-.56-.93-.56H133.1l2.19-8.1a2.51,2.51,0,0,0,.1-.48.55.55,0,0,0-.56-.56c-.45,0-.53.35-.61.67L132,274.24h-5.25l2.16-8.1a1.84,1.84,0,0,0,.13-.48.56.56,0,0,0-.56-.56c-.45,0-.53.35-.61.67l-2.29,8.47h-6.26c-.4,0-.9,0-.9.56s.5.55.93.55h5.91l-1.12,4.32h-4.79c-.4,0-.93,0-.93.56s.5.56.9.56h4.48l-2.19,8.07a2.75,2.75,0,0,0-.1.5.56.56,0,0,0,.56.56c.45,0,.53-.35.61-.67l2.26-8.46h5.27L128,288.86a2.07,2.07,0,0,0-.11.5.55.55,0,0,0,.56.56c.43,0,.54-.35.62-.67Z" transform="translate(-2 -2)"/></g><g class="cls-14"><path d="M175.25,279.67l1.12-4.32h5.24l-1.12,4.32h-5.24m6.07,1.12h6.26c.4,0,.93,0,.93-.56s-.53-.56-1-.56h-5.91l1.12-4.32h4.79c.43,0,1,0,1-.55s-.53-.56-.93-.56H183.1l2.19-8.1a2.51,2.51,0,0,0,.1-.48.55.55,0,0,0-.56-.56c-.45,0-.53.35-.61.67L182,274.24h-5.25l2.16-8.1a1.84,1.84,0,0,0,.13-.48.56.56,0,0,0-.56-.56c-.45,0-.53.35-.61.67l-2.29,8.47h-6.26c-.4,0-.9,0-.9.56s.5.55.93.55h5.91l-1.12,4.32h-4.79c-.4,0-.93,0-.93.56s.5.56.9.56h4.48l-2.19,8.07a2.75,2.75,0,0,0-.1.5.56.56,0,0,0,.56.56c.45,0,.53-.35.61-.67l2.26-8.46h5.27L178,288.86a2.07,2.07,0,0,0-.11.5.55.55,0,0,0,.56.56c.43,0,.54-.35.62-.67Z" transform="translate(-2 -2)"/></g><g class="cls-15"><path d="M225.25,279.67l1.12-4.32h5.24l-1.12,4.32h-5.24m6.07,1.12h6.26c.4,0,.93,0,.93-.56s-.53-.56-1-.56h-5.91l1.12-4.32h4.79c.43,0,1,0,1-.55s-.53-.56-.93-.56H233.1l2.19-8.1a2.51,2.51,0,0,0,.1-.48.55.55,0,0,0-.56-.56c-.45,0-.53.35-.61.67L232,274.24h-5.25l2.16-8.1a1.84,1.84,0,0,0,.13-.48.56.56,0,0,0-.56-.56c-.45,0-.53.35-.61.67l-2.29,8.47h-6.26c-.4,0-.9,0-.9.56s.5.55.93.55h5.91l-1.12,4.32h-4.79c-.4,0-.93,0-.93.56s.5.56.9.56h4.48l-2.19,8.07a2.75,2.75,0,0,0-.1.5.56.56,0,0,0,.56.56c.45,0,.53-.35.61-.67l2.26-8.46h5.27L228,288.86a2.07,2.07,0,0,0-.11.5.55.55,0,0,0,.56.56c.43,0,.54-.35.62-.67Z" transform="translate(-2 -2)"/></g><g class="cls-16"><path d="M275.25,279.67l1.12-4.32h5.24l-1.12,4.32h-5.24m6.07,1.12h6.26c.4,0,.93,0,.93-.56s-.53-.56-1-.56h-5.91l1.12-4.32h4.79c.43,0,1,0,1-.55s-.53-.56-.93-.56H283.1l2.19-8.1a2.51,2.51,0,0,0,.1-.48.55.55,0,0,0-.56-.56c-.45,0-.53.35-.61.67L282,274.24h-5.25l2.16-8.1a1.84,1.84,0,0,0,.13-.48.56.56,0,0,0-.56-.56c-.45,0-.53.35-.61.67l-2.29,8.47h-6.26c-.4,0-.9,0-.9.56s.5.55.93.55h5.91l-1.12,4.32h-4.79c-.4,0-.93,0-.93.56s.5.56.9.56h4.48l-2.19,8.07a2.75,2.75,0,0,0-.1.5.56.56,0,0,0,.56.56c.45,0,.53-.35.61-.67l2.26-8.46h5.27L278,288.86a2.07,2.07,0,0,0-.11.5.55.55,0,0,0,.56.56c.43,0,.54-.35.62-.67Z" transform="translate(-2 -2)"/></g><g class="cls-17"><path d="M325.25,279.67l1.12-4.32h5.24l-1.12,4.32h-5.24m6.07,1.12h6.26c.4,0,.93,0,.93-.56s-.53-.56-1-.56h-5.91l1.12-4.32h4.79c.43,0,1,0,1-.55s-.53-.56-.93-.56H333.1l2.19-8.1a2.51,2.51,0,0,0,.1-.48.55.55,0,0,0-.56-.56c-.45,0-.53.35-.61.67L332,274.24h-5.25l2.16-8.1a1.84,1.84,0,0,0,.13-.48.56.56,0,0,0-.56-.56c-.45,0-.53.35-.61.67l-2.29,8.47h-6.26c-.4,0-.9,0-.9.56s.5.55.93.55h5.91l-1.12,4.32h-4.79c-.4,0-.93,0-.93.56s.5.56.9.56h4.48l-2.19,8.07a2.75,2.75,0,0,0-.1.5.56.56,0,0,0,.56.56c.45,0,.53-.35.61-.67l2.26-8.46h5.27L328,288.86a2.07,2.07,0,0,0-.11.5.55.55,0,0,0,.56.56c.43,0,.54-.35.62-.67Z" transform="translate(-2 -2)"/></g><g class="cls-18"><path d="M75.4,29.67l1.12-4.32h5.24l-1.12,4.32H75.4m6.07,1.12h6.26c.4,0,.93,0,.93-.56s-.53-.56-1-.56H81.79l1.12-4.32H87.7c.43,0,1,0,1-.55s-.53-.56-.93-.56H83.25l2.19-8.1a2.51,2.51,0,0,0,.1-.48A.55.55,0,0,0,85,15.1c-.45,0-.53.35-.61.67l-2.26,8.47H76.86L79,16.14a1.84,1.84,0,0,0,.13-.48.56.56,0,0,0-.56-.56c-.45,0-.53.35-.61.67l-2.29,8.47H69.43c-.4,0-.9,0-.9.56s.5.55.93.55h5.91l-1.12,4.32H69.46c-.4,0-.93,0-.93.56s.5.56.9.56h4.48l-2.19,8.07a2.75,2.75,0,0,0-.1.5.56.56,0,0,0,.56.56c.45,0,.53-.35.61-.67l2.26-8.46h5.27l-2.18,8.07a2.07,2.07,0,0,0-.11.5.55.55,0,0,0,.56.56c.43,0,.54-.35.62-.67Z" transform="translate(-2 -2)"/></g><g class="cls-19"><path d="M125.55,29.67l1.11-4.32h5.25l-1.12,4.32h-5.24m6.07,1.12h6.25c.4,0,.94,0,.94-.56s-.54-.56-1-.56h-5.91l1.12-4.32h4.79c.42,0,1,0,1-.55s-.54-.56-.94-.56H133.4l2.18-8.1a1.89,1.89,0,0,0,.11-.48.55.55,0,0,0-.56-.56c-.45,0-.53.35-.61.67l-2.26,8.47H127l2.16-8.1a2.35,2.35,0,0,0,.13-.48.57.57,0,0,0-.56-.56c-.45,0-.53.35-.61.67l-2.29,8.47h-6.26c-.4,0-.9,0-.9.56s.5.55.93.55h5.91l-1.12,4.32h-4.79c-.4,0-.93,0-.93.56s.5.56.9.56h4.48l-2.19,8.07a2.75,2.75,0,0,0-.1.5.56.56,0,0,0,.55.56c.46,0,.54-.35.62-.67l2.26-8.46h5.27l-2.18,8.07a2.07,2.07,0,0,0-.11.5.55.55,0,0,0,.56.56c.43,0,.53-.35.61-.67Z" transform="translate(-2 -2)"/></g><g class="cls-20"><path d="M175.7,29.67l1.11-4.32h5.25l-1.12,4.32H175.7m6.07,1.12H188c.4,0,.94,0,.94-.56s-.54-.56-1-.56h-5.91l1.11-4.32H188c.42,0,1,0,1-.55s-.54-.56-.94-.56h-4.47l2.18-8.1a1.89,1.89,0,0,0,.11-.48.55.55,0,0,0-.56-.56c-.45,0-.53.35-.61.67l-2.26,8.47h-5.25l2.16-8.1a2.35,2.35,0,0,0,.13-.48.57.57,0,0,0-.56-.56c-.45,0-.53.35-.61.67L176,24.24h-6.26c-.4,0-.9,0-.9.56s.5.55.93.55h5.91l-1.12,4.32h-4.79c-.4,0-.93,0-.93.56s.5.56.9.56h4.47L172,38.86a2.07,2.07,0,0,0-.11.5.57.57,0,0,0,.56.56c.46,0,.54-.35.62-.67l2.26-8.46h5.27l-2.18,8.07a2.07,2.07,0,0,0-.11.5.55.55,0,0,0,.56.56c.43,0,.53-.35.61-.67Z" transform="translate(-2 -2)"/></g><g class="cls-21"><path d="M225.84,29.67,227,25.35h5.25l-1.12,4.32h-5.25m6.08,1.12h6.25c.4,0,.93,0,.93-.56s-.53-.56-.95-.56h-5.92l1.12-4.32h4.8c.42,0,.95,0,.95-.55s-.53-.56-.93-.56H233.7l2.18-8.1a1.89,1.89,0,0,0,.11-.48.55.55,0,0,0-.56-.56c-.45,0-.53.35-.61.67l-2.27,8.47h-5.24l2.16-8.1a2.35,2.35,0,0,0,.13-.48.57.57,0,0,0-.56-.56c-.45,0-.53.35-.61.67l-2.29,8.47h-6.26c-.4,0-.91,0-.91.56s.51.55.94.55h5.91l-1.12,4.32h-4.79c-.4,0-.94,0-.94.56s.51.56.91.56h4.47l-2.18,8.07a2.07,2.07,0,0,0-.11.5.57.57,0,0,0,.56.56c.45,0,.53-.35.61-.67l2.27-8.46h5.27l-2.18,8.07a2.07,2.07,0,0,0-.11.5.55.55,0,0,0,.56.56c.43,0,.53-.35.61-.67Z" transform="translate(-2 -2)"/></g><g class="cls-22"><path d="M276,29.67l1.12-4.32h5.25l-1.12,4.32H276m6.07,1.12h6.26c.4,0,.93,0,.93-.56s-.53-.56-1-.56h-5.91l1.12-4.32h4.79c.43,0,1,0,1-.55s-.53-.56-.93-.56h-4.47l2.18-8.1a1.89,1.89,0,0,0,.11-.48.55.55,0,0,0-.56-.56c-.45,0-.53.35-.61.67l-2.27,8.47h-5.24l2.15-8.1a1.83,1.83,0,0,0,.14-.48.57.57,0,0,0-.56-.56c-.45,0-.53.35-.61.67l-2.29,8.47H270c-.4,0-.91,0-.91.56s.51.55.94.55H276l-1.12,4.32h-4.79c-.4,0-.94,0-.94.56s.51.56.91.56h4.47l-2.18,8.07a2.07,2.07,0,0,0-.11.5.57.57,0,0,0,.56.56c.45,0,.53-.35.61-.67l2.27-8.46h5.27l-2.18,8.07a2.07,2.07,0,0,0-.11.5.55.55,0,0,0,.56.56c.42,0,.53-.35.61-.67Z" transform="translate(-2 -2)"/></g><g class="cls-23"><path d="M326.14,29.67l1.12-4.32h5.25l-1.12,4.32h-5.25m6.07,1.12h6.26c.4,0,.93,0,.93-.56s-.53-.56-1-.56h-5.91l1.12-4.32h4.79c.43,0,1,0,1-.55s-.53-.56-.93-.56H334l2.18-8.1a1.89,1.89,0,0,0,.11-.48.55.55,0,0,0-.56-.56c-.45,0-.53.35-.61.67l-2.27,8.47h-5.24l2.15-8.1a1.83,1.83,0,0,0,.14-.48.57.57,0,0,0-.56-.56c-.46,0-.54.35-.62.67l-2.29,8.47h-6.25c-.4,0-.91,0-.91.56s.51.55.93.55h5.92L325,29.67h-4.8c-.4,0-.93,0-.93.56s.51.56.91.56h4.47l-2.18,8.07a2.07,2.07,0,0,0-.11.5.57.57,0,0,0,.56.56c.45,0,.53-.35.61-.67l2.27-8.46h5.27l-2.19,8.07a2.75,2.75,0,0,0-.1.5.55.55,0,0,0,.56.56c.42,0,.53-.35.61-.67Z" transform="translate(-2 -2)"/></g><g class="cls-24"><path d="M326.14,79.67l1.12-4.32h5.25l-1.12,4.32h-5.25m6.07,1.12h6.26c.4,0,.93,0,.93-.56s-.53-.56-1-.56h-5.91l1.12-4.32h4.79c.43,0,1,0,1-.55s-.53-.56-.93-.56H334l2.18-8.1a1.89,1.89,0,0,0,.11-.48.55.55,0,0,0-.56-.56c-.45,0-.53.35-.61.67l-2.27,8.47h-5.24l2.15-8.1a1.83,1.83,0,0,0,.14-.48.57.57,0,0,0-.56-.56c-.46,0-.54.35-.62.67l-2.29,8.47h-6.25c-.4,0-.91,0-.91.56s.51.55.93.55h5.92L325,79.67h-4.8c-.4,0-.93,0-.93.56s.51.56.91.56h4.47l-2.18,8.07a2.07,2.07,0,0,0-.11.5.57.57,0,0,0,.56.56c.45,0,.53-.35.61-.67l2.27-8.46h5.27l-2.19,8.07a2.75,2.75,0,0,0-.1.5.55.55,0,0,0,.56.56c.42,0,.53-.35.61-.67Z" transform="translate(-2 -2)"/></g><g class="cls-25"><path d="M326.14,129.67l1.12-4.32h5.25l-1.12,4.32h-5.25m6.07,1.12h6.26c.4,0,.93,0,.93-.56s-.53-.56-1-.56h-5.91l1.12-4.32h4.79c.43,0,1,0,1-.55s-.53-.56-.93-.56H334l2.18-8.1a1.89,1.89,0,0,0,.11-.48.55.55,0,0,0-.56-.56c-.45,0-.53.35-.61.67l-2.27,8.47h-5.24l2.15-8.1a1.83,1.83,0,0,0,.14-.48.57.57,0,0,0-.56-.56c-.46,0-.54.35-.62.67l-2.29,8.47h-6.25c-.4,0-.91,0-.91.56s.51.55.93.55h5.92L325,129.67h-4.8c-.4,0-.93,0-.93.56s.51.56.91.56h4.47l-2.18,8.07a2.07,2.07,0,0,0-.11.5.57.57,0,0,0,.56.56c.45,0,.53-.35.61-.67l2.27-8.46h5.27l-2.19,8.07a2.75,2.75,0,0,0-.1.5.55.55,0,0,0,.56.56c.42,0,.53-.35.61-.67Z" transform="translate(-2 -2)"/></g><g class="cls-26"><path d="M326.14,179.67l1.12-4.32h5.25l-1.12,4.32h-5.25m6.07,1.12h6.26c.4,0,.93,0,.93-.56s-.53-.56-1-.56h-5.91l1.12-4.32h4.79c.43,0,1,0,1-.55s-.53-.56-.93-.56H334l2.18-8.1a1.89,1.89,0,0,0,.11-.48.55.55,0,0,0-.56-.56c-.45,0-.53.35-.61.67l-2.27,8.47h-5.24l2.15-8.1a1.83,1.83,0,0,0,.14-.48.57.57,0,0,0-.56-.56c-.46,0-.54.35-.62.67l-2.29,8.47h-6.25c-.4,0-.91,0-.91.56s.51.55.93.55h5.92L325,179.67h-4.8c-.4,0-.93,0-.93.56s.51.56.91.56h4.47l-2.18,8.07a2.07,2.07,0,0,0-.11.5.57.57,0,0,0,.56.56c.45,0,.53-.35.61-.67l2.27-8.46h5.27l-2.19,8.07a2.75,2.75,0,0,0-.1.5.55.55,0,0,0,.56.56c.42,0,.53-.35.61-.67Z" transform="translate(-2 -2)"/></g><g class="cls-27"><path d="M326.14,229.67l1.12-4.32h5.25l-1.12,4.32h-5.25m6.07,1.12h6.26c.4,0,.93,0,.93-.56s-.53-.56-1-.56h-5.91l1.12-4.32h4.79c.43,0,1,0,1-.55s-.53-.56-.93-.56H334l2.18-8.1a1.89,1.89,0,0,0,.11-.48.55.55,0,0,0-.56-.56c-.45,0-.53.35-.61.67l-2.27,8.47h-5.24l2.15-8.1a1.83,1.83,0,0,0,.14-.48.57.57,0,0,0-.56-.56c-.46,0-.54.35-.62.67l-2.29,8.47h-6.25c-.4,0-.91,0-.91.56s.51.55.93.55h5.92L325,229.67h-4.8c-.4,0-.93,0-.93.56s.51.56.91.56h4.47l-2.18,8.07a2.07,2.07,0,0,0-.11.5.57.57,0,0,0,.56.56c.45,0,.53-.35.61-.67l2.27-8.46h5.27l-2.19,8.07a2.75,2.75,0,0,0-.1.5.55.55,0,0,0,.56.56c.42,0,.53-.35.61-.67Z" transform="translate(-2 -2)"/></g></g><g id="Origin"><rect class="cls-28" x="50.5" y="200.5" width="50" height="50"/></g><g id="Sigma"><rect class="cls-3" x="164.75" y="341" width="35" height="35"/><rect class="cls-5" x="224.75" y="341" width="35" height="35"/><g class="cls-29"><path d="M86.21,358.28c.32-.34.32-.5.32-.56a.94.94,0,0,0-.24-.5l-7.38-10.63h8.31c6.07,0,7.85,1.28,8.62,7h.88l-1-8.06H75.79c-.85,0-.93,0-.93.82l9,13L75.26,369c-.37.37-.37.45-.37.56,0,.4.37.4.9.4H95.74l1-8.47h-.88c-.66,6-3.08,7-8.73,7h-9.9l9-10.2" transform="translate(-2 -2)"/><path d="M133.36,365.23c.51,0,1.17,0,1.17-.72s-.66-.71-1.22-.71H111.87c-.53,0-1.22,0-1.22.71s.69.72,1.2.72h21.51m-.05-7c.56,0,1.22,0,1.22-.72s-.66-.72-1.17-.72H111.85c-.51,0-1.2,0-1.2.72s.69.72,1.22.72h21.44Z" transform="translate(-2 -2)"/><path d="M156.72,347.85c0-1.44.93-3.73,4.84-4a.37.37,0,0,0,.32-.4c0-.4-.29-.4-.69-.4-3.57,0-6.84,1.84-6.87,4.5v8.2c0,1.39,0,2.53-1.44,3.73a5.45,5.45,0,0,1-3.43,1.15.4.4,0,0,0-.32.4c0,.34.21.34.58.4,2.37.13,4.1,1.43,4.5,3.19a5.23,5.23,0,0,1,.11,1.76v7.11c0,1.49,0,2.66,1.7,4a9.68,9.68,0,0,0,5.2,1.46c.37,0,.66,0,.66-.4s-.21-.34-.56-.37c-2.26-.16-4-1.3-4.5-3.14a5,5,0,0,1-.1-1.68v-7.53a4,4,0,0,0-1.44-3.44,6.36,6.36,0,0,0-2.8-1.38c2.93-.83,4.24-2.48,4.24-4.56v-8.62" transform="translate(-2 -2)"/></g><g class="cls-30"><path d="M272.9,374.21c0,1.43-.93,3.72-4.85,4a.35.35,0,0,0-.31.37c0,.4.39.4.71.4,3.49,0,6.82-1.75,6.87-4.47v-8.2c0-1.41,0-2.56,1.44-3.73a5.26,5.26,0,0,1,3.41-1.14.41.41,0,0,0,.32-.4c0-.38-.21-.38-.59-.4-2.37-.14-4.07-1.44-4.47-3.2a5.47,5.47,0,0,1-.11-1.76v-7.11c0-1.51,0-2.66-1.73-4a9.59,9.59,0,0,0-5.14-1.49c-.32,0-.71,0-.71.4s.21.38.58.4c2.26.16,4,1.31,4.47,3.12a4.69,4.69,0,0,1,.11,1.7v7.54a3.88,3.88,0,0,0,1.44,3.41,6.43,6.43,0,0,0,2.79,1.41c-2.92.82-4.23,2.47-4.23,4.55v8.63" transform="translate(-2 -2)"/></g><g class="cls-31"><path d="M213.75,377.36c0-2.37-.91-3.76-2.32-3.76a1.83,1.83,0,0,0-1.89,1.89,1.87,1.87,0,0,0,1.89,1.92,1.94,1.94,0,0,0,1.28-.48c.11-.08.13-.1.16-.1s.08,0,.08.53a8.56,8.56,0,0,1-2.45,6c-.4.4-.4.48-.4.58a.39.39,0,0,0,.37.4c.4,0,3.28-2.76,3.28-7" transform="translate(-2 -2)"/></g></g></svg>