<?xml version="1.0" encoding="UTF-8" standalone="no"?>
<!DOCTYPE svg PUBLIC "-//W3C//DTD SVG 1.1//EN" "http://www.w3.org/Graphics/SVG/1.1/DTD/svg11.dtd">
<svg width="100%" height="100%" viewBox="0 0 1750 1417" version="1.1" xmlns="http://www.w3.org/2000/svg" xmlns:xlink="http://www.w3.org/1999/xlink" xml:space="preserve" xmlns:serif="http://www.serif.com/" style="fill-rule:evenodd;clip-rule:evenodd;stroke-miterlimit:10;">
    <g id="Page-1" serif:id="Page 1" transform="matrix(4.16667,0,0,4.16667,0,0)">
        <rect x="0" y="0" width="420" height="340" style="fill:none;"/>
        <g id="Grid">
            <rect x="10" y="10" width="400" height="320" style="fill:none;stroke:rgb(167,169,172);stroke-width:1px;"/>
            <g transform="matrix(1,0,0,1,10,250)">
                <path d="M0,0L400,0" style="fill:none;stroke:rgb(167,169,172);stroke-width:1px;"/>
            </g>
            <g transform="matrix(1,0,0,1,10,170)">
                <path d="M0,0L400,0" style="fill:none;stroke:rgb(167,169,172);stroke-width:1px;"/>
            </g>
            <g transform="matrix(1,0,0,1,10,90)">
                <path d="M0,0L400,0" style="fill:none;stroke:rgb(167,169,172);stroke-width:1px;"/>
            </g>
            <g transform="matrix(0,1,1,0,490,170)">
                <path d="M-160,-160L160,-160" style="fill:none;stroke:rgb(167,169,172);stroke-width:1px;"/>
            </g>
            <g transform="matrix(0,1,1,0,410,170)">
                <path d="M-160,-160L160,-160" style="fill:none;stroke:rgb(167,169,172);stroke-width:1px;"/>
            </g>
            <g transform="matrix(0,1,1,0,330,170)">
                <path d="M-160,-160L160,-160" style="fill:none;stroke:rgb(167,169,172);stroke-width:1px;"/>
            </g>
            <g transform="matrix(0,1,1,0,250,170)">
                <path d="M-160,-160L160,-160" style="fill:none;stroke:rgb(167,169,172);stroke-width:1px;"/>
            </g>
        </g>
        <g id="Layer-2" serif:id="Layer 2">
            <g transform="matrix(-1,-0,-0,1,100,-80)">
                <rect x="20" y="180" width="60" height="60" style="fill:rgb(146,216,244);stroke:rgb(100,149,169);stroke-width:3px;"/>
            </g>
            <g transform="matrix(-1,-0,-0,1,420,80)">
                <rect x="180" y="100" width="60" height="60" style="fill:rgb(146,216,244);stroke:rgb(100,149,169);stroke-width:3px;"/>
            </g>
            <g transform="matrix(-1,-0,-0,1,420,-80)">
                <rect x="180" y="180" width="60" height="60" style="fill:rgb(146,216,244);stroke:rgb(100,149,169);stroke-width:3px;"/>
            </g>
            <g transform="matrix(-1,-0,-0,1,580,80)">
                <rect x="260" y="100" width="60" height="60" style="fill:rgb(146,216,244);stroke:rgb(100,149,169);stroke-width:3px;"/>
            </g>
            <g transform="matrix(-1,-0,-0,1,580,-80)">
                <rect x="260" y="180" width="60" height="60" style="fill:rgb(146,216,244);stroke:rgb(100,149,169);stroke-width:3px;"/>
            </g>
            <g transform="matrix(-1,-0,-0,1,740,-240)">
                <rect x="340" y="260" width="60" height="60" style="fill:rgb(146,216,244);stroke:rgb(100,149,169);stroke-width:3px;"/>
            </g>
            <g transform="matrix(-1,-0,-0,1,260,240)">
                <rect x="100" y="20" width="60" height="60" style="fill:rgb(146,216,244);stroke:rgb(100,149,169);stroke-width:3px;"/>
            </g>
        </g>
    </g>
</svg>
