<?xml version="1.0" encoding="UTF-8" standalone="no"?>
<!DOCTYPE svg PUBLIC "-//W3C//DTD SVG 1.1//EN" "http://www.w3.org/Graphics/SVG/1.1/DTD/svg11.dtd">
<svg width="100%" height="100%" viewBox="0 0 875 542" version="1.1" xmlns="http://www.w3.org/2000/svg" xmlns:xlink="http://www.w3.org/1999/xlink" xml:space="preserve" xmlns:serif="http://www.serif.com/" style="fill-rule:evenodd;clip-rule:evenodd;stroke-miterlimit:10;">
    <g id="Layer-2" serif:id="Layer 2" transform="matrix(4.16667,0,0,4.16667,0,0)">
        <g transform="matrix(-1,-0,-0,1,290,-80)">
            <rect x="125" y="85" width="40" height="40" style="fill:white;stroke:rgb(35,31,32);stroke-width:1px;"/>
        </g>
        <g transform="matrix(-1,-0,-0,1,290,0)">
            <rect x="125" y="45" width="40" height="40" style="fill:white;stroke:rgb(35,31,32);stroke-width:1px;"/>
        </g>
        <g transform="matrix(-1,-0,-0,1,370,0)">
            <rect x="165" y="45" width="40" height="40" style="fill:white;stroke:rgb(35,31,32);stroke-width:1px;"/>
        </g>
        <g transform="matrix(-1,-0,-0,1,210,80)">
            <rect x="85" y="5" width="40" height="40" style="fill:white;stroke:rgb(35,31,32);stroke-width:1px;"/>
        </g>
    </g>
    <g id="Layer-3" serif:id="Layer 3" transform="matrix(4.16667,0,0,4.16667,0,0)">
        <g transform="matrix(-1,-0,-0,1,210,80)">
            <rect x="90" y="10" width="30" height="30" style="fill:rgb(251,176,64);stroke:rgb(151,107,33);stroke-width:2px;"/>
        </g>
        <g transform="matrix(-1,-0,-0,1,290,0)">
            <rect x="130" y="50" width="30" height="30" style="fill:rgb(251,176,64);stroke:rgb(151,107,33);stroke-width:2px;"/>
        </g>
        <g transform="matrix(-1,-0,-0,1,370,0)">
            <rect x="170" y="50" width="30" height="30" style="fill:rgb(251,176,64);stroke:rgb(151,107,33);stroke-width:2px;"/>
        </g>
        <g transform="matrix(-1,-0,-0,1,290,-80)">
            <rect x="130" y="90" width="30" height="30" style="fill:rgb(251,176,64);stroke:rgb(151,107,33);stroke-width:2px;"/>
        </g>
        <g transform="matrix(1,0,0,1,19.8877,67.7725)">
            <path d="M0,-15.178C0.639,-13.314 1.438,-10.625 3.062,-6.205C5.326,-0.107 6.311,2.13 8.521,5.538C9.027,6.284 9.053,6.337 9.373,6.337C9.879,6.337 10.624,5.884 11.024,5.618C11.53,5.139 11.556,5.112 11.956,3.355C14.113,-6.098 16.855,-15.95 17.574,-17.601C17.601,-17.654 18.32,-19.039 22.74,-19.092C23.459,-19.146 24.124,-21.036 24.124,-21.835C24.124,-22.394 23.911,-22.394 23.406,-22.394C19.837,-22.394 18.213,-20.903 17.787,-20.424C16.775,-19.146 15.923,-16.509 14.272,-10.518C12.994,-5.912 11.849,-1.252 10.731,3.381C8.76,0.399 7.642,-2.45 5.938,-7.083C4.021,-12.169 2.876,-15.897 1.917,-19.146C1.678,-19.864 1.651,-19.891 1.331,-19.891C1.251,-19.891 0.533,-19.891 -0.506,-19.039C-0.852,-18.72 -0.905,-18.373 -0.932,-18.001C-1.944,-8.441 -5.326,1.011 -6.284,2.742C-6.577,3.275 -7.003,3.914 -7.722,3.914C-8.068,3.914 -9.479,3.727 -10.411,2.875C-10.598,2.742 -10.651,2.742 -10.704,2.742C-11.263,2.742 -12.036,4.526 -12.036,5.378C-12.036,6.497 -9.826,7.216 -8.84,7.216C-6.524,7.216 -4.713,2.156 -4.127,0.506C-1.784,-5.992 -0.692,-11.344 0,-15.178" style="fill:rgb(35,31,32);fill-rule:nonzero;"/>
        </g>
        <g transform="matrix(1,0,0,1,78.2815,66.9734)">
            <path d="M0,-5.512C0.533,-5.512 1.225,-5.512 1.225,-6.231C1.225,-6.95 0.533,-6.95 0.027,-6.95L-21.488,-6.95C-21.994,-6.95 -22.66,-6.95 -22.66,-6.231C-22.66,-5.512 -21.994,-5.512 -21.462,-5.512L0,-5.512ZM0.027,1.438C0.533,1.438 1.225,1.438 1.225,0.719C1.225,0.027 0.533,0.027 0,0.027L-21.462,0.027C-21.994,0.027 -22.66,0.027 -22.66,0.719C-22.66,1.438 -21.994,1.438 -21.488,1.438L0.027,1.438" style="fill:rgb(35,31,32);fill-rule:nonzero;"/>
        </g>
    </g>
    <g id="Layer-1" serif:id="Layer 1" transform="matrix(4.16667,0,0,4.16667,0,0)">
        <g transform="matrix(0.707107,0.707107,0.707107,-0.707107,145,50.8579)">
            <path d="M-4.142,-10L24.142,-10" style="fill:none;stroke:rgb(35,31,32);stroke-width:5px;"/>
        </g>
        <g transform="matrix(0.707107,-0.707107,-0.707107,-0.707107,145,79.1421)">
            <path d="M-4.142,10L24.142,10" style="fill:none;stroke:rgb(35,31,32);stroke-width:5px;"/>
        </g>
    </g>
</svg>
