<svg xmlns="http://www.w3.org/2000/svg" viewBox="0 0 450 650"><defs><style>.cls-1{fill:none;stroke:#999;stroke-linecap:square;}.cls-2{fill:#fbb03b;stroke:#a57523;}.cls-2,.cls-3,.cls-4{stroke-miterlimit:10;stroke-width:2px;}.cls-3{fill:#29abe2;stroke:#156d91;}.cls-4{fill:#8cc63f;stroke:#568227;}</style></defs><title>2DCA</title><g id="Grid"><g id="Grid-2" data-name="Grid"><line class="cls-1" x1="60" y1="70" x2="60" y2="390"/><line class="cls-1" x1="100" y1="70" x2="100" y2="390"/><line class="cls-1" x1="140" y1="70" x2="140" y2="390"/><line class="cls-1" x1="180" y1="70" x2="180" y2="390"/><line class="cls-1" x1="220" y1="70" x2="220" y2="390"/><line class="cls-1" x1="260" y1="70" x2="260" y2="390"/><line class="cls-1" x1="300" y1="70" x2="300" y2="390"/><line class="cls-1" x1="340" y1="70" x2="340" y2="390"/><line class="cls-1" x1="380" y1="70" x2="380" y2="390"/><line class="cls-1" x1="60" y1="70" x2="380" y2="70"/><line class="cls-1" x1="60" y1="110" x2="380" y2="110"/><line class="cls-1" x1="60" y1="150" x2="380" y2="150"/><line class="cls-1" x1="60" y1="190" x2="380" y2="190"/><line class="cls-1" x1="60" y1="230" x2="380" y2="230"/><line class="cls-1" x1="60" y1="270" x2="380" y2="270"/><line class="cls-1" x1="60" y1="310" x2="380" y2="310"/><line class="cls-1" x1="60" y1="350" x2="380" y2="350"/><line class="cls-1" x1="60" y1="390" x2="380" y2="390"/></g></g><g id="Cells"><rect class="cls-2" x="65" y="75" width="30" height="30"/><rect class="cls-2" x="65" y="115" width="30" height="30"/><rect class="cls-2" x="65" y="155" width="30" height="30"/><rect class="cls-3" x="65" y="195" width="30" height="30"/><rect class="cls-2" x="65" y="235" width="30" height="30"/><rect class="cls-2" x="65" y="275" width="30" height="30"/><rect class="cls-2" x="65" y="315" width="30" height="30"/><rect class="cls-4" x="65" y="355" width="30" height="30"/><rect class="cls-2" x="105" y="75" width="30" height="30"/><rect class="cls-2" x="105" y="115" width="30" height="30"/><rect class="cls-3" x="105" y="155" width="30" height="30"/><rect class="cls-3" x="105" y="195" width="30" height="30"/><rect class="cls-2" x="105" y="235" width="30" height="30"/><rect class="cls-4" x="105" y="275" width="30" height="30"/><rect class="cls-3" x="105" y="315" width="30" height="30"/><rect class="cls-3" x="105" y="355" width="30" height="30"/><rect class="cls-4" x="145" y="75" width="30" height="30"/><rect class="cls-4" x="145" y="115" width="30" height="30"/><rect class="cls-2" x="145" y="155" width="30" height="30"/><rect class="cls-4" x="145" y="195" width="30" height="30"/><rect class="cls-3" x="145" y="235" width="30" height="30"/><rect class="cls-4" x="145" y="275" width="30" height="30"/><rect class="cls-2" x="145" y="315" width="30" height="30"/><rect class="cls-4" x="145" y="355" width="30" height="30"/><rect class="cls-3" x="185" y="75" width="30" height="30"/><rect class="cls-4" x="185" y="115" width="30" height="30"/><rect class="cls-3" x="185" y="155" width="30" height="30"/><rect class="cls-2" x="185" y="195" width="30" height="30"/><rect class="cls-4" x="185" y="235" width="30" height="30"/><rect class="cls-4" x="185" y="275" width="30" height="30"/><rect class="cls-2" x="185" y="315" width="30" height="30"/><rect class="cls-4" x="185" y="355" width="30" height="30"/><rect class="cls-2" x="225" y="75" width="30" height="30"/><rect class="cls-2" x="225" y="115" width="30" height="30"/><rect class="cls-3" x="225" y="155" width="30" height="30"/><rect class="cls-3" x="225" y="195" width="30" height="30"/><rect class="cls-3" x="225" y="235" width="30" height="30"/><rect class="cls-3" x="225" y="275" width="30" height="30"/><rect class="cls-4" x="225" y="315" width="30" height="30"/><rect class="cls-2" x="225" y="355" width="30" height="30"/><rect class="cls-2" x="265" y="75" width="30" height="30"/><rect class="cls-3" x="265" y="115" width="30" height="30"/><rect class="cls-2" x="265" y="155" width="30" height="30"/><rect class="cls-2" x="265" y="195" width="30" height="30"/><rect class="cls-3" x="265" y="235" width="30" height="30"/><rect class="cls-3" x="265" y="275" width="30" height="30"/><rect class="cls-2" x="265" y="315" width="30" height="30"/><rect class="cls-3" x="265" y="355" width="30" height="30"/><rect class="cls-3" x="305" y="75" width="30" height="30"/><rect class="cls-4" x="305" y="115" width="30" height="30"/><rect class="cls-4" x="305" y="155" width="30" height="30"/><rect class="cls-4" x="305" y="195" width="30" height="30"/><rect class="cls-3" x="305" y="235" width="30" height="30"/><rect class="cls-4" x="305" y="275" width="30" height="30"/><rect class="cls-3" x="305" y="315" width="30" height="30"/><rect class="cls-2" x="305" y="355" width="30" height="30"/><rect class="cls-3" x="345" y="75" width="30" height="30"/><rect class="cls-3" x="345" y="115" width="30" height="30"/><rect class="cls-3" x="345" y="155" width="30" height="30"/><rect class="cls-2" x="345" y="195" width="30" height="30"/><rect class="cls-3" x="345" y="235" width="30" height="30"/><rect class="cls-3" x="345" y="275" width="30" height="30"/><rect class="cls-2" x="345" y="315" width="30" height="30"/><rect class="cls-3" x="345" y="355" width="30" height="30"/></g></svg>