<svg xmlns="http://www.w3.org/2000/svg" xmlns:xlink="http://www.w3.org/1999/xlink" viewBox="0 0 450 650"><defs><style>.cls-1,.cls-2,.cls-6,.cls-8{fill:none;}.cls-2{stroke:#999;}.cls-2,.cls-6,.cls-8{stroke-linecap:square;}.cls-3{fill:#fbb03b;stroke:#a57523;}.cls-3,.cls-4,.cls-5{stroke-miterlimit:10;stroke-width:2px;}.cls-4{fill:#29abe2;stroke:#156d91;}.cls-5{fill:#8cc63f;stroke:#568227;}.cls-6,.cls-8{stroke:#000;}.cls-6{stroke-width:4px;}.cls-7{clip-path:url(#clip-path);}.cls-8{stroke-width:7px;}.cls-9{clip-path:url(#clip-path-2);}.cls-10{clip-path:url(#clip-path-3);}</style><clipPath id="clip-path"><rect class="cls-1" x="30" y="425" width="32" height="25"/></clipPath><clipPath id="clip-path-2"><rect class="cls-1" x="207.5" y="530" width="55" height="20"/></clipPath><clipPath id="clip-path-3"><rect class="cls-1" x="140" y="413.49" width="160.99" height="39.01"/></clipPath></defs><title>2DCA</title><g id="Grid"><g id="Grid-2" data-name="Grid"><line class="cls-2" x1="60" y1="70" x2="60" y2="390"/><line class="cls-2" x1="100" y1="70" x2="100" y2="390"/><line class="cls-2" x1="140" y1="70" x2="140" y2="390"/><line class="cls-2" x1="180" y1="70" x2="180" y2="390"/><line class="cls-2" x1="220" y1="70" x2="220" y2="390"/><line class="cls-2" x1="260" y1="70" x2="260" y2="390"/><line class="cls-2" x1="300" y1="70" x2="300" y2="390"/><line class="cls-2" x1="340" y1="70" x2="340" y2="390"/><line class="cls-2" x1="380" y1="70" x2="380" y2="390"/><line class="cls-2" x1="60" y1="70" x2="380" y2="70"/><line class="cls-2" x1="60" y1="110" x2="380" y2="110"/><line class="cls-2" x1="60" y1="150" x2="380" y2="150"/><line class="cls-2" x1="60" y1="190" x2="380" y2="190"/><line class="cls-2" x1="60" y1="230" x2="380" y2="230"/><line class="cls-2" x1="60" y1="270" x2="380" y2="270"/><line class="cls-2" x1="60" y1="310" x2="380" y2="310"/><line class="cls-2" x1="60" y1="350" x2="380" y2="350"/><line class="cls-2" x1="60" y1="390" x2="380" y2="390"/></g></g><g id="Cells"><rect class="cls-3" x="65" y="75" width="30" height="30"/><rect class="cls-3" x="65" y="115" width="30" height="30"/><rect class="cls-3" x="65" y="155" width="30" height="30"/><rect class="cls-4" x="65" y="195" width="30" height="30"/><rect class="cls-3" x="65" y="235" width="30" height="30"/><rect class="cls-3" x="65" y="275" width="30" height="30"/><rect class="cls-3" x="65" y="315" width="30" height="30"/><rect class="cls-5" x="65" y="355" width="30" height="30"/><rect class="cls-3" x="105" y="75" width="30" height="30"/><rect class="cls-3" x="105" y="115" width="30" height="30"/><rect class="cls-4" x="105" y="155" width="30" height="30"/><rect class="cls-4" x="105" y="195" width="30" height="30"/><rect class="cls-3" x="105" y="235" width="30" height="30"/><rect class="cls-5" x="105" y="275" width="30" height="30"/><rect class="cls-4" x="105" y="315" width="30" height="30"/><rect class="cls-4" x="105" y="355" width="30" height="30"/><rect class="cls-5" x="145" y="75" width="30" height="30"/><rect class="cls-5" x="145" y="115" width="30" height="30"/><rect class="cls-3" x="145" y="155" width="30" height="30"/><rect class="cls-3" x="85" y="485" width="30" height="30"/><rect class="cls-4" x="125" y="525" width="30" height="30"/><rect class="cls-3" x="275" y="525" width="30" height="30"/><rect class="cls-4" x="125" y="565" width="30" height="30"/><rect class="cls-3" x="165" y="525" width="30" height="30"/><rect class="cls-5" x="145" y="195" width="30" height="30"/><rect class="cls-4" x="145" y="235" width="30" height="30"/><rect class="cls-5" x="145" y="275" width="30" height="30"/><rect class="cls-3" x="145" y="315" width="30" height="30"/><rect class="cls-5" x="145" y="355" width="30" height="30"/><rect class="cls-4" x="185" y="75" width="30" height="30"/><rect class="cls-5" x="185" y="115" width="30" height="30"/><rect class="cls-4" x="185" y="155" width="30" height="30"/><rect class="cls-3" x="185" y="195" width="30" height="30"/><rect class="cls-5" x="185" y="235" width="30" height="30"/><rect class="cls-5" x="185" y="275" width="30" height="30"/><rect class="cls-3" x="185" y="315" width="30" height="30"/><rect class="cls-5" x="185" y="355" width="30" height="30"/><rect class="cls-3" x="225" y="75" width="30" height="30"/><rect class="cls-3" x="225" y="115" width="30" height="30"/><rect class="cls-4" x="225" y="155" width="30" height="30"/><rect class="cls-4" x="225" y="195" width="30" height="30"/><rect class="cls-4" x="225" y="235" width="30" height="30"/><rect class="cls-4" x="225" y="275" width="30" height="30"/><rect class="cls-5" x="225" y="315" width="30" height="30"/><rect class="cls-3" x="225" y="355" width="30" height="30"/><rect class="cls-3" x="265" y="75" width="30" height="30"/><rect class="cls-4" x="265" y="115" width="30" height="30"/><rect class="cls-3" x="265" y="155" width="30" height="30"/><rect class="cls-3" x="265" y="195" width="30" height="30"/><rect class="cls-4" x="265" y="235" width="30" height="30"/><rect class="cls-4" x="265" y="275" width="30" height="30"/><rect class="cls-3" x="265" y="315" width="30" height="30"/><rect class="cls-4" x="265" y="355" width="30" height="30"/><rect class="cls-4" x="305" y="75" width="30" height="30"/><rect class="cls-5" x="305" y="115" width="30" height="30"/><rect class="cls-5" x="305" y="155" width="30" height="30"/><rect class="cls-5" x="305" y="195" width="30" height="30"/><rect class="cls-4" x="305" y="235" width="30" height="30"/><rect class="cls-5" x="305" y="275" width="30" height="30"/><rect class="cls-4" x="305" y="315" width="30" height="30"/><rect class="cls-3" x="305" y="355" width="30" height="30"/><rect class="cls-4" x="345" y="75" width="30" height="30"/><rect class="cls-4" x="345" y="115" width="30" height="30"/><rect class="cls-4" x="345" y="155" width="30" height="30"/><rect class="cls-3" x="345" y="195" width="30" height="30"/><rect class="cls-4" x="345" y="235" width="30" height="30"/><rect class="cls-4" x="345" y="275" width="30" height="30"/><rect class="cls-3" x="345" y="315" width="30" height="30"/><rect class="cls-4" x="345" y="355" width="30" height="30"/></g><g id="Neighborhood"><rect class="cls-6" x="100" y="150" width="40" height="40"/><rect class="cls-6" x="140" y="150" width="40" height="40"/><rect class="cls-6" x="100" y="190" width="40" height="40"/><rect class="cls-6" x="60" y="110" width="40" height="40"/><rect class="cls-2" x="80" y="480" width="40" height="40"/><rect class="cls-2" x="120" y="520" width="40" height="40"/><rect class="cls-2" x="270" y="520" width="40" height="40"/><rect class="cls-2" x="160" y="520" width="40" height="40"/><rect class="cls-2" x="120" y="560" width="40" height="40"/><g class="cls-7"><path d="M38.87,435.41a11.85,11.85,0,0,1,1.86,5.86c0,2.23-1.28,7.88-4.45,7.88-1.86,0-3.24-1.41-3.24-4,0-2.13,1.25-8.52,5.83-9.74m-.4-.75a10.38,10.38,0,0,0-7.54,9.54c0,3.27,2.16,5.72,5.35,5.72,4,0,6.79-5.35,6.79-10a9.52,9.52,0,0,0-2.5-6.31c-1.22-1.55-3.22-4.08-3.22-5.57a1.71,1.71,0,0,1,1.86-1.57,4.22,4.22,0,0,1,2.4.91,4.58,4.58,0,0,0,1.86.85,1.41,1.41,0,0,0,1.36-1.36c0-.74-.53-.85-1.76-1.12a11.26,11.26,0,0,0-2.79-.37c-2.64,0-3.86,1.46-3.86,3.49C36.42,430.7,37.4,432.61,38.47,434.66Z"/><path d="M61.71,447.71a1.8,1.8,0,1,0-3.59,0,1.8,1.8,0,0,0,3.59,0m0-11a1.8,1.8,0,1,0-1.78,1.78A1.8,1.8,0,0,0,61.71,436.69Z"/></g><line class="cls-8" x1="112.5" y1="162.5" x2="127.5" y2="177.5"/><line class="cls-8" x1="112.5" y1="177.5" x2="127.5" y2="162.5"/><line class="cls-8" x1="132.5" y1="532.5" x2="147.5" y2="547.5"/><line class="cls-8" x1="132.5" y1="547.5" x2="147.5" y2="532.5"/><g class="cls-9"><path d="M209.42,540.73c.21,0,1,0,1-.72s-.8-.71-1-.71v-4.69c0-.59,0-1.28-.72-1.28s-.72.69-.72,1.28v10.84c0,.56,0,1.25.72,1.25s.72-.69.72-1.25v-4.72"/><path d="M229.65,540.73c.62,0,1.28,0,1.28-.72s-.66-.71-1.28-.71H210.24c-.61,0-1.25,0-1.25.71s.64.72,1.25.72h19.41"/><path d="M257.85,540.73a12.71,12.71,0,0,0-3.22,3.47,12.43,12.43,0,0,0-1.92,4.76c0,.43.43.43.72.43.61,0,.64-.06.8-.72a11.17,11.17,0,0,1,7-8.18c.43-.16.54-.21.54-.48s-.22-.34-.3-.39a11.23,11.23,0,0,1-7.29-8.45c-.11-.42-.14-.53-.75-.53-.29,0-.72,0-.72.43a12.68,12.68,0,0,0,1.84,4.74,13.85,13.85,0,0,0,3.3,3.49H231.17c-.64,0-1.3,0-1.3.71s.66.72,1.3.72h26.68"/></g><g class="cls-10"><path d="M144.71,446.88a2.92,2.92,0,0,0-2,.56c-.29.16-1.17.75-1.17,1.17,0,.27.19.27.37.27a22.58,22.58,0,0,1,7.49,1.68,22.63,22.63,0,0,0,7.85,1.78c4.21,0,7.67-3.67,7.67-5.17a.29.29,0,0,0-.32-.29,3.9,3.9,0,0,0-1.68.69c-.82.54-.9.8-1.06,1.26a2,2,0,0,1-2.24,1.54c-2.37,0-4-.56-9.16-2.32,6.21-1.75,14-8,14-16.64,0-4.87-2.63-8.84-7.93-8.84-7.32,0-15.84,7.51-15.84,15,0,3.81,2.26,6.69,6.25,6.69,3.62,0,7.73-2.37,7.73-3.25,0-.22-.24-.22-.4-.22a4.22,4.22,0,0,0-1.6.62,7.19,7.19,0,0,1-3.36.85c-3.22,0-5.56-2.5-5.56-6.21,0-4.47,4.07-11.47,10.41-11.47,4.53,0,7.27,3.57,7.27,8.36a14.32,14.32,0,0,1-4.9,10.62c-2.32,2.13-5,3.33-10.84,3.33h-1"/><path d="M174.51,419c.32.85,1,2.71,2.16,5.43,1.94,4.44,3.19,6.87,5.11,9.21a.38.38,0,0,0,.37.19,2.84,2.84,0,0,0,1.23-.51c.42-.32.45-.42.69-1.52,1.7-7.48,3.67-14.24,4.05-14.72S189.63,416,192,416c.54,0,1.07-1.28,1.07-2,0-.48-.11-.48-.61-.48-2.69,0-4,1-4.56,1.86-1.38,2.19-3.65,11.61-4.79,16.25a34.09,34.09,0,0,1-3.06-5.43c-1.25-2.75-2.64-6-4-9.8-.24-.72-.24-.78-.32-.83a.7.7,0,0,0-.3-.05,2.61,2.61,0,0,0-1.22.48,1.13,1.13,0,0,0-.53,1.09,47,47,0,0,1-3.46,13.79c-.24.4-.59,1-1.26,1a3.91,3.91,0,0,1-2.13-.75c-.1-.08-.1-.1-.18-.1-.43,0-1,1.28-1,2,0,.29,0,.58.95,1a4.28,4.28,0,0,0,1.55.35c1.89,0,3.22-3.76,3.75-5.25A56.88,56.88,0,0,0,174.51,419"/><path d="M228.67,439.64c.61,0,1.25,0,1.25-.72s-.64-.72-1.25-.72H209.23c-.61,0-1.25,0-1.25.72s.64.72,1.25.72h19.44"/><path d="M256.84,439.64a13.67,13.67,0,0,0-3.22,3.43,12.34,12.34,0,0,0-1.89,4.8c0,.42.42.42.69.42.61,0,.67-.08.8-.72a11.24,11.24,0,0,1,7-8.17c.43-.16.54-.24.54-.48s-.22-.35-.27-.4a11.13,11.13,0,0,1-7.3-8.44c-.1-.43-.16-.53-.77-.53-.27,0-.69,0-.69.42a12.87,12.87,0,0,0,1.81,4.74,13.68,13.68,0,0,0,3.3,3.49H230.16c-.64,0-1.28,0-1.28.72s.64.72,1.28.72h26.68"/><path d="M280.81,446.88a2.94,2.94,0,0,0-2,.56c-.3.16-1.15.75-1.15,1.17,0,.27.19.27.35.27a22.43,22.43,0,0,1,7.48,1.68,22.84,22.84,0,0,0,7.85,1.78c4.21,0,7.7-3.67,7.7-5.17a.3.3,0,0,0-.32-.29,3.83,3.83,0,0,0-1.7.69,2.08,2.08,0,0,0-1.07,1.26,2,2,0,0,1-2.24,1.54c-2.37,0-4-.56-9.16-2.32,6.24-1.75,14.06-8,14.06-16.64,0-4.87-2.66-8.84-7.93-8.84-7.35,0-15.85,7.51-15.85,15,0,3.81,2.27,6.69,6.24,6.69,3.64,0,7.72-2.37,7.72-3.25,0-.22-.24-.22-.37-.22a4.56,4.56,0,0,0-1.63.62,7.11,7.11,0,0,1-3.35.85c-3.23,0-5.57-2.5-5.57-6.21,0-4.47,4.07-11.47,10.44-11.47,4.5,0,7.24,3.57,7.24,8.36a14.28,14.28,0,0,1-4.87,10.62c-2.34,2.13-5,3.33-10.87,3.33h-1"/></g></g></svg>