K<?xml version="1.0" encoding="UTF-8" standalone="no"?>
<!DOCTYPE svg PUBLIC "-//W3C//DTD SVG 1.1//EN" "http://www.w3.org/Graphics/SVG/1.1/DTD/svg11.dtd">
<svg width="100%" height="100%" viewBox="0 0 1709 1688" version="1.1" xmlns="http://www.w3.org/2000/svg" xmlns:xlink="http://www.w3.org/1999/xlink" xml:space="preserve" xmlns:serif="http://www.serif.com/" style="fill-rule:evenodd;clip-rule:evenodd;stroke-miterlimit:10;">
    <g id="Page-1" serif:id="Page 1" transform="matrix(4.16667,0,0,4.16667,0,0)">
        <rect x="0" y="0" width="410" height="405" style="fill:none;"/>
        <clipPath id="_clip1">
            <rect x="0" y="0" width="410" height="405"/>
        </clipPath>
        <g clip-path="url(#_clip1)">
            <g id="Labels">
                <g>
                    <text x="164.447px" y="365px" style="font-family:'CMUSerif-Italic', 'CMU Serif';font-weight:500;font-style:italic;font-size:36px;fill:rgb(35,31,32);">t</text>
                    <text x="188.737px" y="365px" style="font-family:'CMUSerif-Roman', 'CMU Serif';font-weight:500;font-size:36px;fill:rgb(35,31,32);">=</text>
                    <text x="227.933px" y="365px" style="font-family:'CMUSerif-Roman', 'CMU Serif';font-weight:500;font-size:36px;fill:rgb(35,31,32);">0</text>
                </g>
            </g>
            <g id="Grid">
                <g transform="matrix(1,0,0,1,0,-75)">
                    <rect x="5" y="80" width="400" height="320" style="fill:none;stroke:rgb(167,169,172);stroke-width:1px;"/>
                </g>
                <g transform="matrix(1,0,0,1,5,285)">
                    <path d="M0,0L400,0" style="fill:none;stroke:rgb(167,169,172);stroke-width:1px;"/>
                </g>
                <g transform="matrix(1,0,0,1,5,245)">
                    <path d="M0,0L400,0" style="fill:none;stroke:rgb(167,169,172);stroke-width:1px;"/>
                </g>
                <g transform="matrix(1,0,0,1,5,205)">
                    <path d="M0,0L400,0" style="fill:none;stroke:rgb(167,169,172);stroke-width:1px;"/>
                </g>
                <g transform="matrix(1,0,0,1,5,165)">
                    <path d="M0,0L400,0" style="fill:none;stroke:rgb(167,169,172);stroke-width:1px;"/>
                </g>
                <g transform="matrix(1,0,0,1,5,125)">
                    <path d="M0,0L400,0" style="fill:none;stroke:rgb(167,169,172);stroke-width:1px;"/>
                </g>
                <g transform="matrix(1,0,0,1,5,85)">
                    <path d="M0,0L400,0" style="fill:none;stroke:rgb(167,169,172);stroke-width:1px;"/>
                </g>
                <g transform="matrix(1,0,0,1,5,45)">
                    <path d="M0,0L400,0" style="fill:none;stroke:rgb(167,169,172);stroke-width:1px;"/>
                </g>
                <g transform="matrix(0,1,1,0,525,165)">
                    <path d="M-160,-160L160,-160" style="fill:none;stroke:rgb(167,169,172);stroke-width:1px;"/>
                </g>
                <g transform="matrix(0,1,1,0,485,165)">
                    <path d="M-160,-160L160,-160" style="fill:none;stroke:rgb(167,169,172);stroke-width:1px;"/>
                </g>
                <g transform="matrix(0,1,1,0,445,165)">
                    <path d="M-160,-160L160,-160" style="fill:none;stroke:rgb(167,169,172);stroke-width:1px;"/>
                </g>
                <g transform="matrix(0,1,1,0,405,165)">
                    <path d="M-160,-160L160,-160" style="fill:none;stroke:rgb(167,169,172);stroke-width:1px;"/>
                </g>
                <g transform="matrix(0,1,1,0,365,165)">
                    <path d="M-160,-160L160,-160" style="fill:none;stroke:rgb(167,169,172);stroke-width:1px;"/>
                </g>
                <g transform="matrix(0,1,1,0,325,165)">
                    <path d="M-160,-160L160,-160" style="fill:none;stroke:rgb(167,169,172);stroke-width:1px;"/>
                </g>
                <g transform="matrix(0,1,1,0,285,165)">
                    <path d="M-160,-160L160,-160" style="fill:none;stroke:rgb(167,169,172);stroke-width:1px;"/>
                </g>
                <g transform="matrix(0,1,1,0,245,165)">
                    <path d="M-160,-160L160,-160" style="fill:none;stroke:rgb(167,169,172);stroke-width:1px;"/>
                </g>
                <g transform="matrix(0,1,1,0,205,165)">
                    <path d="M-160,-160L160,-160" style="fill:none;stroke:rgb(167,169,172);stroke-width:1px;"/>
                </g>
            </g>
            <g id="Layer-2" serif:id="Layer 2">
                <g transform="matrix(1,0,0,1,30,305)">
                    <path d="M0,0C0,-2.761 -2.239,-5 -5,-5C-7.761,-5 -10,-2.761 -10,0C-10,2.761 -7.761,5 -5,5C-2.239,5 0,2.761 0,0" style="fill:rgb(19,117,188);fill-rule:nonzero;"/>
                </g>
                <g transform="matrix(0,-1,-1,-0,25,300)">
                    <circle cx="-5" cy="0" r="5" style="fill:none;stroke:rgb(6,58,102);stroke-width:2px;"/>
                </g>
                <g transform="matrix(1,0,0,1,70,305)">
                    <path d="M0,0C0,-2.761 -2.239,-5 -5,-5C-7.761,-5 -10,-2.761 -10,0C-10,2.761 -7.761,5 -5,5C-2.239,5 0,2.761 0,0" style="fill:rgb(19,117,188);fill-rule:nonzero;"/>
                </g>
                <g transform="matrix(0,-1,-1,-0,65,300)">
                    <circle cx="-5" cy="0" r="5" style="fill:none;stroke:rgb(6,58,102);stroke-width:2px;"/>
                </g>
                <g transform="matrix(1,0,0,1,110,305)">
                    <path d="M0,0C0,-2.761 -2.239,-5 -5,-5C-7.761,-5 -10,-2.761 -10,0C-10,2.761 -7.761,5 -5,5C-2.239,5 0,2.761 0,0" style="fill:rgb(19,117,188);fill-rule:nonzero;"/>
                </g>
                <g transform="matrix(0,-1,-1,-0,105,300)">
                    <circle cx="-5" cy="0" r="5" style="fill:none;stroke:rgb(6,58,102);stroke-width:2px;"/>
                </g>
                <g transform="matrix(1,0,0,1,150,305)">
                    <path d="M0,0C0,-2.761 -2.239,-5 -5,-5C-7.761,-5 -10,-2.761 -10,0C-10,2.761 -7.761,5 -5,5C-2.239,5 0,2.761 0,0" style="fill:rgb(19,117,188);fill-rule:nonzero;"/>
                </g>
                <g transform="matrix(0,-1,-1,-0,145,300)">
                    <circle cx="-5" cy="0" r="5" style="fill:none;stroke:rgb(6,58,102);stroke-width:2px;"/>
                </g>
                <g transform="matrix(1,0,0,1,190,305)">
                    <path d="M0,0C0,-2.761 -2.239,-5 -5,-5C-7.761,-5 -10,-2.761 -10,0C-10,2.761 -7.761,5 -5,5C-2.239,5 0,2.761 0,0" style="fill:rgb(19,117,188);fill-rule:nonzero;"/>
                </g>
                <g transform="matrix(0,-1,-1,-0,185,300)">
                    <circle cx="-5" cy="0" r="5" style="fill:none;stroke:rgb(6,58,102);stroke-width:2px;"/>
                </g>
                <g transform="matrix(1,0,0,1,230,305)">
                    <path d="M0,0C0,-2.761 -2.239,-5 -5,-5C-7.761,-5 -10,-2.761 -10,0C-10,2.761 -7.761,5 -5,5C-2.239,5 0,2.761 0,0" style="fill:rgb(19,117,188);fill-rule:nonzero;"/>
                </g>
                <g transform="matrix(0,-1,-1,-0,225,300)">
                    <circle cx="-5" cy="0" r="5" style="fill:none;stroke:rgb(6,58,102);stroke-width:2px;"/>
                </g>
                <g transform="matrix(1,0,0,1,270,305)">
                    <path d="M0,0C0,-2.761 -2.239,-5 -5,-5C-7.761,-5 -10,-2.761 -10,0C-10,2.761 -7.761,5 -5,5C-2.239,5 0,2.761 0,0" style="fill:rgb(19,117,188);fill-rule:nonzero;"/>
                </g>
                <g transform="matrix(0,-1,-1,-0,265,300)">
                    <circle cx="-5" cy="0" r="5" style="fill:none;stroke:rgb(6,58,102);stroke-width:2px;"/>
                </g>
                <g transform="matrix(1,0,0,1,310,305)">
                    <path d="M0,0C0,-2.761 -2.239,-5 -5,-5C-7.761,-5 -10,-2.761 -10,0C-10,2.761 -7.761,5 -5,5C-2.239,5 0,2.761 0,0" style="fill:rgb(19,117,188);fill-rule:nonzero;"/>
                </g>
                <g transform="matrix(0,-1,-1,-0,305,300)">
                    <circle cx="-5" cy="0" r="5" style="fill:none;stroke:rgb(6,58,102);stroke-width:2px;"/>
                </g>
                <g transform="matrix(1,0,0,1,350,305)">
                    <path d="M0,0C0,-2.761 -2.239,-5 -5,-5C-7.761,-5 -10,-2.761 -10,0C-10,2.761 -7.761,5 -5,5C-2.239,5 0,2.761 0,0" style="fill:rgb(19,117,188);fill-rule:nonzero;"/>
                </g>
                <g transform="matrix(0,-1,-1,-0,345,300)">
                    <circle cx="-5" cy="0" r="5" style="fill:none;stroke:rgb(6,58,102);stroke-width:2px;"/>
                </g>
                <g transform="matrix(1,0,0,1,390,305)">
                    <path d="M0,0C0,-2.761 -2.239,-5 -5,-5C-7.761,-5 -10,-2.761 -10,0C-10,2.761 -7.761,5 -5,5C-2.239,5 0,2.761 0,0" style="fill:rgb(19,117,188);fill-rule:nonzero;"/>
                </g>
                <g transform="matrix(0,-1,-1,-0,385,300)">
                    <circle cx="-5" cy="0" r="5" style="fill:none;stroke:rgb(6,58,102);stroke-width:2px;"/>
                </g>
                <g transform="matrix(1,0,0,1,30,265)">
                    <path d="M0,0C0,-2.761 -2.239,-5 -5,-5C-7.761,-5 -10,-2.761 -10,0C-10,2.761 -7.761,5 -5,5C-2.239,5 0,2.761 0,0" style="fill:rgb(19,117,188);fill-rule:nonzero;"/>
                </g>
                <g transform="matrix(0,-1,-1,-0,25,260)">
                    <circle cx="-5" cy="0" r="5" style="fill:none;stroke:rgb(6,58,102);stroke-width:2px;"/>
                </g>
                <g transform="matrix(1,0,0,1,70,265)">
                    <path d="M0,0C0,-2.761 -2.239,-5 -5,-5C-7.761,-5 -10,-2.761 -10,0C-10,2.761 -7.761,5 -5,5C-2.239,5 0,2.761 0,0" style="fill:rgb(19,117,188);fill-rule:nonzero;"/>
                </g>
                <g transform="matrix(0,-1,-1,-0,65,260)">
                    <circle cx="-5" cy="0" r="5" style="fill:none;stroke:rgb(6,58,102);stroke-width:2px;"/>
                </g>
                <g transform="matrix(1,0,0,1,110,265)">
                    <path d="M0,0C0,-2.761 -2.239,-5 -5,-5C-7.761,-5 -10,-2.761 -10,0C-10,2.761 -7.761,5 -5,5C-2.239,5 0,2.761 0,0" style="fill:rgb(19,117,188);fill-rule:nonzero;"/>
                </g>
                <g transform="matrix(0,-1,-1,-0,105,260)">
                    <circle cx="-5" cy="0" r="5" style="fill:none;stroke:rgb(6,58,102);stroke-width:2px;"/>
                </g>
                <g transform="matrix(1,0,0,1,150,265)">
                    <path d="M0,0C0,-2.761 -2.239,-5 -5,-5C-7.761,-5 -10,-2.761 -10,0C-10,2.761 -7.761,5 -5,5C-2.239,5 0,2.761 0,0" style="fill:rgb(19,117,188);fill-rule:nonzero;"/>
                </g>
                <g transform="matrix(0,-1,-1,-0,145,260)">
                    <circle cx="-5" cy="0" r="5" style="fill:none;stroke:rgb(6,58,102);stroke-width:2px;"/>
                </g>
                <g transform="matrix(1,0,0,1,190,265)">
                    <path d="M0,0C0,-2.761 -2.239,-5 -5,-5C-7.761,-5 -10,-2.761 -10,0C-10,2.761 -7.761,5 -5,5C-2.239,5 0,2.761 0,0" style="fill:rgb(19,117,188);fill-rule:nonzero;"/>
                </g>
                <g transform="matrix(0,-1,-1,-0,185,260)">
                    <circle cx="-5" cy="0" r="5" style="fill:none;stroke:rgb(6,58,102);stroke-width:2px;"/>
                </g>
                <g transform="matrix(1,0,0,1,230,265)">
                    <path d="M0,0C0,-2.761 -2.239,-5 -5,-5C-7.761,-5 -10,-2.761 -10,0C-10,2.761 -7.761,5 -5,5C-2.239,5 0,2.761 0,0" style="fill:rgb(19,117,188);fill-rule:nonzero;"/>
                </g>
                <g transform="matrix(0,-1,-1,-0,225,260)">
                    <circle cx="-5" cy="0" r="5" style="fill:none;stroke:rgb(6,58,102);stroke-width:2px;"/>
                </g>
                <g transform="matrix(1,0,0,1,270,265)">
                    <path d="M0,0C0,-2.761 -2.239,-5 -5,-5C-7.761,-5 -10,-2.761 -10,0C-10,2.761 -7.761,5 -5,5C-2.239,5 0,2.761 0,0" style="fill:rgb(19,117,188);fill-rule:nonzero;"/>
                </g>
                <g transform="matrix(0,-1,-1,-0,265,260)">
                    <circle cx="-5" cy="0" r="5" style="fill:none;stroke:rgb(6,58,102);stroke-width:2px;"/>
                </g>
                <g transform="matrix(1,0,0,1,310,265)">
                    <path d="M0,0C0,-2.761 -2.239,-5 -5,-5C-7.761,-5 -10,-2.761 -10,0C-10,2.761 -7.761,5 -5,5C-2.239,5 0,2.761 0,0" style="fill:rgb(19,117,188);fill-rule:nonzero;"/>
                </g>
                <g transform="matrix(0,-1,-1,-0,305,260)">
                    <circle cx="-5" cy="0" r="5" style="fill:none;stroke:rgb(6,58,102);stroke-width:2px;"/>
                </g>
                <g transform="matrix(1,0,0,1,350,265)">
                    <path d="M0,0C0,-2.761 -2.239,-5 -5,-5C-7.761,-5 -10,-2.761 -10,0C-10,2.761 -7.761,5 -5,5C-2.239,5 0,2.761 0,0" style="fill:rgb(19,117,188);fill-rule:nonzero;"/>
                </g>
                <g transform="matrix(0,-1,-1,-0,345,260)">
                    <circle cx="-5" cy="0" r="5" style="fill:none;stroke:rgb(6,58,102);stroke-width:2px;"/>
                </g>
                <g transform="matrix(1,0,0,1,390,265)">
                    <path d="M0,0C0,-2.761 -2.239,-5 -5,-5C-7.761,-5 -10,-2.761 -10,0C-10,2.761 -7.761,5 -5,5C-2.239,5 0,2.761 0,0" style="fill:rgb(19,117,188);fill-rule:nonzero;"/>
                </g>
                <g transform="matrix(0,-1,-1,-0,385,260)">
                    <circle cx="-5" cy="0" r="5" style="fill:none;stroke:rgb(6,58,102);stroke-width:2px;"/>
                </g>
                <g transform="matrix(1,0,0,1,30,225)">
                    <path d="M0,0C0,-2.761 -2.239,-5 -5,-5C-7.761,-5 -10,-2.761 -10,0C-10,2.761 -7.761,5 -5,5C-2.239,5 0,2.761 0,0" style="fill:rgb(19,117,188);fill-rule:nonzero;"/>
                </g>
                <g transform="matrix(0,-1,-1,-0,25,220)">
                    <circle cx="-5" cy="0" r="5" style="fill:none;stroke:rgb(6,58,102);stroke-width:2px;"/>
                </g>
                <g transform="matrix(1,0,0,1,70,225)">
                    <path d="M0,0C0,-2.761 -2.239,-5 -5,-5C-7.761,-5 -10,-2.761 -10,0C-10,2.761 -7.761,5 -5,5C-2.239,5 0,2.761 0,0" style="fill:rgb(19,117,188);fill-rule:nonzero;"/>
                </g>
                <g transform="matrix(0,-1,-1,-0,65,220)">
                    <circle cx="-5" cy="0" r="5" style="fill:none;stroke:rgb(6,58,102);stroke-width:2px;"/>
                </g>
                <g transform="matrix(1,0,0,1,110,225)">
                    <path d="M0,0C0,-2.761 -2.239,-5 -5,-5C-7.761,-5 -10,-2.761 -10,0C-10,2.761 -7.761,5 -5,5C-2.239,5 0,2.761 0,0" style="fill:rgb(19,117,188);fill-rule:nonzero;"/>
                </g>
                <g transform="matrix(0,-1,-1,-0,105,220)">
                    <circle cx="-5" cy="0" r="5" style="fill:none;stroke:rgb(6,58,102);stroke-width:2px;"/>
                </g>
                <g transform="matrix(1,0,0,1,150,225)">
                    <path d="M0,0C0,-2.761 -2.239,-5 -5,-5C-7.761,-5 -10,-2.761 -10,0C-10,2.761 -7.761,5 -5,5C-2.239,5 0,2.761 0,0" style="fill:rgb(19,117,188);fill-rule:nonzero;"/>
                </g>
                <g transform="matrix(0,-1,-1,-0,145,220)">
                    <circle cx="-5" cy="0" r="5" style="fill:none;stroke:rgb(6,58,102);stroke-width:2px;"/>
                </g>
                <g transform="matrix(1,0,0,1,190,225)">
                    <path d="M0,0C0,-2.761 -2.239,-5 -5,-5C-7.761,-5 -10,-2.761 -10,0C-10,2.761 -7.761,5 -5,5C-2.239,5 0,2.761 0,0" style="fill:rgb(19,117,188);fill-rule:nonzero;"/>
                </g>
                <g transform="matrix(0,-1,-1,-0,185,220)">
                    <circle cx="-5" cy="0" r="5" style="fill:none;stroke:rgb(6,58,102);stroke-width:2px;"/>
                </g>
                <g transform="matrix(1,0,0,1,230,225)">
                    <path d="M0,0C0,-2.761 -2.239,-5 -5,-5C-7.761,-5 -10,-2.761 -10,0C-10,2.761 -7.761,5 -5,5C-2.239,5 0,2.761 0,0" style="fill:rgb(19,117,188);fill-rule:nonzero;"/>
                </g>
                <g transform="matrix(0,-1,-1,-0,225,220)">
                    <circle cx="-5" cy="0" r="5" style="fill:none;stroke:rgb(6,58,102);stroke-width:2px;"/>
                </g>
                <g transform="matrix(1,0,0,1,270,225)">
                    <path d="M0,0C0,-2.761 -2.239,-5 -5,-5C-7.761,-5 -10,-2.761 -10,0C-10,2.761 -7.761,5 -5,5C-2.239,5 0,2.761 0,0" style="fill:rgb(19,117,188);fill-rule:nonzero;"/>
                </g>
                <g transform="matrix(0,-1,-1,-0,265,220)">
                    <circle cx="-5" cy="0" r="5" style="fill:none;stroke:rgb(6,58,102);stroke-width:2px;"/>
                </g>
                <g transform="matrix(1,0,0,1,310,225)">
                    <path d="M0,0C0,-2.761 -2.239,-5 -5,-5C-7.761,-5 -10,-2.761 -10,0C-10,2.761 -7.761,5 -5,5C-2.239,5 0,2.761 0,0" style="fill:rgb(19,117,188);fill-rule:nonzero;"/>
                </g>
                <g transform="matrix(0,-1,-1,-0,305,220)">
                    <circle cx="-5" cy="0" r="5" style="fill:none;stroke:rgb(6,58,102);stroke-width:2px;"/>
                </g>
                <g transform="matrix(1,0,0,1,350,225)">
                    <path d="M0,0C0,-2.761 -2.239,-5 -5,-5C-7.761,-5 -10,-2.761 -10,0C-10,2.761 -7.761,5 -5,5C-2.239,5 0,2.761 0,0" style="fill:rgb(19,117,188);fill-rule:nonzero;"/>
                </g>
                <g transform="matrix(0,-1,-1,-0,345,220)">
                    <circle cx="-5" cy="0" r="5" style="fill:none;stroke:rgb(6,58,102);stroke-width:2px;"/>
                </g>
                <g transform="matrix(1,0,0,1,390,225)">
                    <path d="M0,0C0,-2.761 -2.239,-5 -5,-5C-7.761,-5 -10,-2.761 -10,0C-10,2.761 -7.761,5 -5,5C-2.239,5 0,2.761 0,0" style="fill:rgb(19,117,188);fill-rule:nonzero;"/>
                </g>
                <g transform="matrix(0,-1,-1,-0,385,220)">
                    <circle cx="-5" cy="0" r="5" style="fill:none;stroke:rgb(6,58,102);stroke-width:2px;"/>
                </g>
                <g transform="matrix(1,0,0,1,30,185)">
                    <path d="M0,0C0,-2.761 -2.239,-5 -5,-5C-7.761,-5 -10,-2.761 -10,0C-10,2.761 -7.761,5 -5,5C-2.239,5 0,2.761 0,0" style="fill:rgb(19,117,188);fill-rule:nonzero;"/>
                </g>
                <g transform="matrix(0,-1,-1,-0,25,180)">
                    <circle cx="-5" cy="0" r="5" style="fill:none;stroke:rgb(6,58,102);stroke-width:2px;"/>
                </g>
                <g transform="matrix(1,0,0,1,70,185)">
                    <path d="M0,0C0,-2.761 -2.239,-5 -5,-5C-7.761,-5 -10,-2.761 -10,0C-10,2.761 -7.761,5 -5,5C-2.239,5 0,2.761 0,0" style="fill:rgb(19,117,188);fill-rule:nonzero;"/>
                </g>
                <g transform="matrix(0,-1,-1,-0,65,180)">
                    <circle cx="-5" cy="0" r="5" style="fill:none;stroke:rgb(6,58,102);stroke-width:2px;"/>
                </g>
                <g transform="matrix(1,0,0,1,110,185)">
                    <path d="M0,0C0,-2.761 -2.239,-5 -5,-5C-7.761,-5 -10,-2.761 -10,0C-10,2.761 -7.761,5 -5,5C-2.239,5 0,2.761 0,0" style="fill:rgb(19,117,188);fill-rule:nonzero;"/>
                </g>
                <g transform="matrix(0,-1,-1,-0,105,180)">
                    <circle cx="-5" cy="0" r="5" style="fill:none;stroke:rgb(6,58,102);stroke-width:2px;"/>
                </g>
                <g transform="matrix(1,0,0,1,150,185)">
                    <path d="M0,0C0,-2.761 -2.239,-5 -5,-5C-7.761,-5 -10,-2.761 -10,0C-10,2.761 -7.761,5 -5,5C-2.239,5 0,2.761 0,0" style="fill:rgb(19,117,188);fill-rule:nonzero;"/>
                </g>
                <g transform="matrix(0,-1,-1,-0,145,180)">
                    <circle cx="-5" cy="0" r="5" style="fill:none;stroke:rgb(6,58,102);stroke-width:2px;"/>
                </g>
                <g transform="matrix(1,0,0,1,190,185)">
                    <path d="M0,0C0,-2.761 -2.239,-5 -5,-5C-7.761,-5 -10,-2.761 -10,0C-10,2.761 -7.761,5 -5,5C-2.239,5 0,2.761 0,0" style="fill:rgb(19,117,188);fill-rule:nonzero;"/>
                </g>
                <g transform="matrix(0,-1,-1,-0,185,180)">
                    <circle cx="-5" cy="0" r="5" style="fill:none;stroke:rgb(6,58,102);stroke-width:2px;"/>
                </g>
                <g transform="matrix(1,0,0,1,230,185)">
                    <path d="M0,0C0,-2.761 -2.239,-5 -5,-5C-7.761,-5 -10,-2.761 -10,0C-10,2.761 -7.761,5 -5,5C-2.239,5 0,2.761 0,0" style="fill:rgb(19,117,188);fill-rule:nonzero;"/>
                </g>
                <g transform="matrix(0,-1,-1,-0,225,180)">
                    <circle cx="-5" cy="0" r="5" style="fill:none;stroke:rgb(6,58,102);stroke-width:2px;"/>
                </g>
                <g transform="matrix(1,0,0,1,270,185)">
                    <path d="M0,0C0,-2.761 -2.239,-5 -5,-5C-7.761,-5 -10,-2.761 -10,0C-10,2.761 -7.761,5 -5,5C-2.239,5 0,2.761 0,0" style="fill:rgb(19,117,188);fill-rule:nonzero;"/>
                </g>
                <g transform="matrix(0,-1,-1,-0,265,180)">
                    <circle cx="-5" cy="0" r="5" style="fill:none;stroke:rgb(6,58,102);stroke-width:2px;"/>
                </g>
                <g transform="matrix(1,0,0,1,310,185)">
                    <path d="M0,0C0,-2.761 -2.239,-5 -5,-5C-7.761,-5 -10,-2.761 -10,0C-10,2.761 -7.761,5 -5,5C-2.239,5 0,2.761 0,0" style="fill:rgb(19,117,188);fill-rule:nonzero;"/>
                </g>
                <g transform="matrix(0,-1,-1,-0,305,180)">
                    <circle cx="-5" cy="0" r="5" style="fill:none;stroke:rgb(6,58,102);stroke-width:2px;"/>
                </g>
                <g transform="matrix(1,0,0,1,350,185)">
                    <path d="M0,0C0,-2.761 -2.239,-5 -5,-5C-7.761,-5 -10,-2.761 -10,0C-10,2.761 -7.761,5 -5,5C-2.239,5 0,2.761 0,0" style="fill:rgb(19,117,188);fill-rule:nonzero;"/>
                </g>
                <g transform="matrix(0,-1,-1,-0,345,180)">
                    <circle cx="-5" cy="0" r="5" style="fill:none;stroke:rgb(6,58,102);stroke-width:2px;"/>
                </g>
                <g transform="matrix(1,0,0,1,390,185)">
                    <path d="M0,0C0,-2.761 -2.239,-5 -5,-5C-7.761,-5 -10,-2.761 -10,0C-10,2.761 -7.761,5 -5,5C-2.239,5 0,2.761 0,0" style="fill:rgb(19,117,188);fill-rule:nonzero;"/>
                </g>
                <g transform="matrix(0,-1,-1,-0,385,180)">
                    <circle cx="-5" cy="0" r="5" style="fill:none;stroke:rgb(6,58,102);stroke-width:2px;"/>
                </g>
                <g transform="matrix(1,0,0,1,30,145)">
                    <path d="M0,0C0,-2.761 -2.239,-5 -5,-5C-7.761,-5 -10,-2.761 -10,0C-10,2.761 -7.761,5 -5,5C-2.239,5 0,2.761 0,0" style="fill:rgb(19,117,188);fill-rule:nonzero;"/>
                </g>
                <g transform="matrix(0,-1,-1,-0,25,140)">
                    <circle cx="-5" cy="0" r="5" style="fill:none;stroke:rgb(6,58,102);stroke-width:2px;"/>
                </g>
                <g transform="matrix(1,0,0,1,70,145)">
                    <path d="M0,0C0,-2.761 -2.239,-5 -5,-5C-7.761,-5 -10,-2.761 -10,0C-10,2.761 -7.761,5 -5,5C-2.239,5 0,2.761 0,0" style="fill:rgb(19,117,188);fill-rule:nonzero;"/>
                </g>
                <g transform="matrix(0,-1,-1,-0,65,140)">
                    <circle cx="-5" cy="0" r="5" style="fill:none;stroke:rgb(6,58,102);stroke-width:2px;"/>
                </g>
                <g transform="matrix(1,0,0,1,110,145)">
                    <path d="M0,0C0,-2.761 -2.239,-5 -5,-5C-7.761,-5 -10,-2.761 -10,0C-10,2.761 -7.761,5 -5,5C-2.239,5 0,2.761 0,0" style="fill:rgb(19,117,188);fill-rule:nonzero;"/>
                </g>
                <g transform="matrix(0,-1,-1,-0,105,140)">
                    <circle cx="-5" cy="0" r="5" style="fill:none;stroke:rgb(6,58,102);stroke-width:2px;"/>
                </g>
                <g transform="matrix(1,0,0,1,150,145)">
                    <path d="M0,0C0,-2.761 -2.239,-5 -5,-5C-7.761,-5 -10,-2.761 -10,0C-10,2.761 -7.761,5 -5,5C-2.239,5 0,2.761 0,0" style="fill:rgb(19,117,188);fill-rule:nonzero;"/>
                </g>
                <g transform="matrix(0,-1,-1,-0,145,140)">
                    <circle cx="-5" cy="0" r="5" style="fill:none;stroke:rgb(6,58,102);stroke-width:2px;"/>
                </g>
                <g transform="matrix(1,0,0,1,190,145)">
                    <path d="M0,0C0,-2.761 -2.239,-5 -5,-5C-7.761,-5 -10,-2.761 -10,0C-10,2.761 -7.761,5 -5,5C-2.239,5 0,2.761 0,0" style="fill:rgb(19,117,188);fill-rule:nonzero;"/>
                </g>
                <g transform="matrix(0,-1,-1,-0,185,140)">
                    <circle cx="-5" cy="0" r="5" style="fill:none;stroke:rgb(6,58,102);stroke-width:2px;"/>
                </g>
                <g transform="matrix(1,0,0,1,230,145)">
                    <path d="M0,0C0,-2.761 -2.239,-5 -5,-5C-7.761,-5 -10,-2.761 -10,0C-10,2.761 -7.761,5 -5,5C-2.239,5 0,2.761 0,0" style="fill:rgb(19,117,188);fill-rule:nonzero;"/>
                </g>
                <g transform="matrix(0,-1,-1,-0,225,140)">
                    <circle cx="-5" cy="0" r="5" style="fill:none;stroke:rgb(6,58,102);stroke-width:2px;"/>
                </g>
                <g transform="matrix(1,0,0,1,270,145)">
                    <path d="M0,0C0,-2.761 -2.239,-5 -5,-5C-7.761,-5 -10,-2.761 -10,0C-10,2.761 -7.761,5 -5,5C-2.239,5 0,2.761 0,0" style="fill:rgb(19,117,188);fill-rule:nonzero;"/>
                </g>
                <g transform="matrix(0,-1,-1,-0,265,140)">
                    <circle cx="-5" cy="0" r="5" style="fill:none;stroke:rgb(6,58,102);stroke-width:2px;"/>
                </g>
                <g transform="matrix(1,0,0,1,310,145)">
                    <path d="M0,0C0,-2.761 -2.239,-5 -5,-5C-7.761,-5 -10,-2.761 -10,0C-10,2.761 -7.761,5 -5,5C-2.239,5 0,2.761 0,0" style="fill:rgb(19,117,188);fill-rule:nonzero;"/>
                </g>
                <g transform="matrix(0,-1,-1,-0,305,140)">
                    <circle cx="-5" cy="0" r="5" style="fill:none;stroke:rgb(6,58,102);stroke-width:2px;"/>
                </g>
                <g transform="matrix(1,0,0,1,350,145)">
                    <path d="M0,0C0,-2.761 -2.239,-5 -5,-5C-7.761,-5 -10,-2.761 -10,0C-10,2.761 -7.761,5 -5,5C-2.239,5 0,2.761 0,0" style="fill:rgb(19,117,188);fill-rule:nonzero;"/>
                </g>
                <g transform="matrix(0,-1,-1,-0,345,140)">
                    <circle cx="-5" cy="0" r="5" style="fill:none;stroke:rgb(6,58,102);stroke-width:2px;"/>
                </g>
                <g transform="matrix(1,0,0,1,390,145)">
                    <path d="M0,0C0,-2.761 -2.239,-5 -5,-5C-7.761,-5 -10,-2.761 -10,0C-10,2.761 -7.761,5 -5,5C-2.239,5 0,2.761 0,0" style="fill:rgb(19,117,188);fill-rule:nonzero;"/>
                </g>
                <g transform="matrix(0,-1,-1,-0,385,140)">
                    <circle cx="-5" cy="0" r="5" style="fill:none;stroke:rgb(6,58,102);stroke-width:2px;"/>
                </g>
                <g transform="matrix(1,0,0,1,30,105)">
                    <path d="M0,0C0,-2.761 -2.239,-5 -5,-5C-7.761,-5 -10,-2.761 -10,0C-10,2.761 -7.761,5 -5,5C-2.239,5 0,2.761 0,0" style="fill:rgb(19,117,188);fill-rule:nonzero;"/>
                </g>
                <g transform="matrix(0,-1,-1,-0,25,100)">
                    <circle cx="-5" cy="0" r="5" style="fill:none;stroke:rgb(6,58,102);stroke-width:2px;"/>
                </g>
                <g transform="matrix(1,0,0,1,70,105)">
                    <path d="M0,0C0,-2.761 -2.239,-5 -5,-5C-7.761,-5 -10,-2.761 -10,0C-10,2.761 -7.761,5 -5,5C-2.239,5 0,2.761 0,0" style="fill:rgb(19,117,188);fill-rule:nonzero;"/>
                </g>
                <g transform="matrix(0,-1,-1,-0,65,100)">
                    <circle cx="-5" cy="0" r="5" style="fill:none;stroke:rgb(6,58,102);stroke-width:2px;"/>
                </g>
                <g transform="matrix(1,0,0,1,110,105)">
                    <path d="M0,0C0,-2.761 -2.239,-5 -5,-5C-7.761,-5 -10,-2.761 -10,0C-10,2.761 -7.761,5 -5,5C-2.239,5 0,2.761 0,0" style="fill:rgb(19,117,188);fill-rule:nonzero;"/>
                </g>
                <g transform="matrix(0,-1,-1,-0,105,100)">
                    <circle cx="-5" cy="0" r="5" style="fill:none;stroke:rgb(6,58,102);stroke-width:2px;"/>
                </g>
                <g transform="matrix(1,0,0,1,150,105)">
                    <path d="M0,0C0,-2.761 -2.239,-5 -5,-5C-7.761,-5 -10,-2.761 -10,0C-10,2.761 -7.761,5 -5,5C-2.239,5 0,2.761 0,0" style="fill:rgb(19,117,188);fill-rule:nonzero;"/>
                </g>
                <g transform="matrix(0,-1,-1,-0,145,100)">
                    <circle cx="-5" cy="0" r="5" style="fill:none;stroke:rgb(6,58,102);stroke-width:2px;"/>
                </g>
                <g transform="matrix(1,0,0,1,190,105)">
                    <path d="M0,0C0,-2.761 -2.239,-5 -5,-5C-7.761,-5 -10,-2.761 -10,0C-10,2.761 -7.761,5 -5,5C-2.239,5 0,2.761 0,0" style="fill:rgb(19,117,188);fill-rule:nonzero;"/>
                </g>
                <g transform="matrix(0,-1,-1,-0,185,100)">
                    <circle cx="-5" cy="0" r="5" style="fill:none;stroke:rgb(6,58,102);stroke-width:2px;"/>
                </g>
                <g transform="matrix(1,0,0,1,230,105)">
                    <path d="M0,0C0,-2.761 -2.239,-5 -5,-5C-7.761,-5 -10,-2.761 -10,0C-10,2.761 -7.761,5 -5,5C-2.239,5 0,2.761 0,0" style="fill:rgb(19,117,188);fill-rule:nonzero;"/>
                </g>
                <g transform="matrix(0,-1,-1,-0,225,100)">
                    <circle cx="-5" cy="0" r="5" style="fill:none;stroke:rgb(6,58,102);stroke-width:2px;"/>
                </g>
                <g transform="matrix(1,0,0,1,270,105)">
                    <path d="M0,0C0,-2.761 -2.239,-5 -5,-5C-7.761,-5 -10,-2.761 -10,0C-10,2.761 -7.761,5 -5,5C-2.239,5 0,2.761 0,0" style="fill:rgb(19,117,188);fill-rule:nonzero;"/>
                </g>
                <g transform="matrix(0,-1,-1,-0,265,100)">
                    <circle cx="-5" cy="0" r="5" style="fill:none;stroke:rgb(6,58,102);stroke-width:2px;"/>
                </g>
                <g transform="matrix(1,0,0,1,310,105)">
                    <path d="M0,0C0,-2.761 -2.239,-5 -5,-5C-7.761,-5 -10,-2.761 -10,0C-10,2.761 -7.761,5 -5,5C-2.239,5 0,2.761 0,0" style="fill:rgb(19,117,188);fill-rule:nonzero;"/>
                </g>
                <g transform="matrix(0,-1,-1,-0,305,100)">
                    <circle cx="-5" cy="0" r="5" style="fill:none;stroke:rgb(6,58,102);stroke-width:2px;"/>
                </g>
                <g transform="matrix(1,0,0,1,350,105)">
                    <path d="M0,0C0,-2.761 -2.239,-5 -5,-5C-7.761,-5 -10,-2.761 -10,0C-10,2.761 -7.761,5 -5,5C-2.239,5 0,2.761 0,0" style="fill:rgb(19,117,188);fill-rule:nonzero;"/>
                </g>
                <g transform="matrix(0,-1,-1,-0,345,100)">
                    <circle cx="-5" cy="0" r="5" style="fill:none;stroke:rgb(6,58,102);stroke-width:2px;"/>
                </g>
                <g transform="matrix(1,0,0,1,390,105)">
                    <path d="M0,0C0,-2.761 -2.239,-5 -5,-5C-7.761,-5 -10,-2.761 -10,0C-10,2.761 -7.761,5 -5,5C-2.239,5 0,2.761 0,0" style="fill:rgb(19,117,188);fill-rule:nonzero;"/>
                </g>
                <g transform="matrix(0,-1,-1,-0,385,100)">
                    <circle cx="-5" cy="0" r="5" style="fill:none;stroke:rgb(6,58,102);stroke-width:2px;"/>
                </g>
                <g transform="matrix(1,0,0,1,30,65)">
                    <path d="M0,0C0,-2.761 -2.239,-5 -5,-5C-7.761,-5 -10,-2.761 -10,0C-10,2.761 -7.761,5 -5,5C-2.239,5 0,2.761 0,0" style="fill:rgb(19,117,188);fill-rule:nonzero;"/>
                </g>
                <g transform="matrix(0,-1,-1,-0,25,60)">
                    <circle cx="-5" cy="0" r="5" style="fill:none;stroke:rgb(6,58,102);stroke-width:2px;"/>
                </g>
                <g transform="matrix(1,0,0,1,70,65)">
                    <path d="M0,0C0,-2.761 -2.239,-5 -5,-5C-7.761,-5 -10,-2.761 -10,0C-10,2.761 -7.761,5 -5,5C-2.239,5 0,2.761 0,0" style="fill:rgb(19,117,188);fill-rule:nonzero;"/>
                </g>
                <g transform="matrix(0,-1,-1,-0,65,60)">
                    <circle cx="-5" cy="0" r="5" style="fill:none;stroke:rgb(6,58,102);stroke-width:2px;"/>
                </g>
                <g transform="matrix(1,0,0,1,110,65)">
                    <path d="M0,0C0,-2.761 -2.239,-5 -5,-5C-7.761,-5 -10,-2.761 -10,0C-10,2.761 -7.761,5 -5,5C-2.239,5 0,2.761 0,0" style="fill:rgb(19,117,188);fill-rule:nonzero;"/>
                </g>
                <g transform="matrix(0,-1,-1,-0,105,60)">
                    <circle cx="-5" cy="0" r="5" style="fill:none;stroke:rgb(6,58,102);stroke-width:2px;"/>
                </g>
                <g transform="matrix(1,0,0,1,150,65)">
                    <path d="M0,0C0,-2.761 -2.239,-5 -5,-5C-7.761,-5 -10,-2.761 -10,0C-10,2.761 -7.761,5 -5,5C-2.239,5 0,2.761 0,0" style="fill:rgb(19,117,188);fill-rule:nonzero;"/>
                </g>
                <g transform="matrix(0,-1,-1,-0,145,60)">
                    <circle cx="-5" cy="0" r="5" style="fill:none;stroke:rgb(6,58,102);stroke-width:2px;"/>
                </g>
                <g transform="matrix(1,0,0,1,190,65)">
                    <path d="M0,0C0,-2.761 -2.239,-5 -5,-5C-7.761,-5 -10,-2.761 -10,0C-10,2.761 -7.761,5 -5,5C-2.239,5 0,2.761 0,0" style="fill:rgb(19,117,188);fill-rule:nonzero;"/>
                </g>
                <g transform="matrix(0,-1,-1,-0,185,60)">
                    <circle cx="-5" cy="0" r="5" style="fill:none;stroke:rgb(6,58,102);stroke-width:2px;"/>
                </g>
                <g transform="matrix(1,0,0,1,230,65)">
                    <path d="M0,0C0,-2.761 -2.239,-5 -5,-5C-7.761,-5 -10,-2.761 -10,0C-10,2.761 -7.761,5 -5,5C-2.239,5 0,2.761 0,0" style="fill:rgb(19,117,188);fill-rule:nonzero;"/>
                </g>
                <g transform="matrix(0,-1,-1,-0,225,60)">
                    <circle cx="-5" cy="0" r="5" style="fill:none;stroke:rgb(6,58,102);stroke-width:2px;"/>
                </g>
                <g transform="matrix(1,0,0,1,270,65)">
                    <path d="M0,0C0,-2.761 -2.239,-5 -5,-5C-7.761,-5 -10,-2.761 -10,0C-10,2.761 -7.761,5 -5,5C-2.239,5 0,2.761 0,0" style="fill:rgb(19,117,188);fill-rule:nonzero;"/>
                </g>
                <g transform="matrix(0,-1,-1,-0,265,60)">
                    <circle cx="-5" cy="0" r="5" style="fill:none;stroke:rgb(6,58,102);stroke-width:2px;"/>
                </g>
                <g transform="matrix(1,0,0,1,310,65)">
                    <path d="M0,0C0,-2.761 -2.239,-5 -5,-5C-7.761,-5 -10,-2.761 -10,0C-10,2.761 -7.761,5 -5,5C-2.239,5 0,2.761 0,0" style="fill:rgb(19,117,188);fill-rule:nonzero;"/>
                </g>
                <g transform="matrix(0,-1,-1,-0,305,60)">
                    <circle cx="-5" cy="0" r="5" style="fill:none;stroke:rgb(6,58,102);stroke-width:2px;"/>
                </g>
                <g transform="matrix(1,0,0,1,350,65)">
                    <path d="M0,0C0,-2.761 -2.239,-5 -5,-5C-7.761,-5 -10,-2.761 -10,0C-10,2.761 -7.761,5 -5,5C-2.239,5 0,2.761 0,0" style="fill:rgb(19,117,188);fill-rule:nonzero;"/>
                </g>
                <g transform="matrix(0,-1,-1,-0,345,60)">
                    <circle cx="-5" cy="0" r="5" style="fill:none;stroke:rgb(6,58,102);stroke-width:2px;"/>
                </g>
                <g transform="matrix(1,0,0,1,390,65)">
                    <path d="M0,0C0,-2.761 -2.239,-5 -5,-5C-7.761,-5 -10,-2.761 -10,0C-10,2.761 -7.761,5 -5,5C-2.239,5 0,2.761 0,0" style="fill:rgb(19,117,188);fill-rule:nonzero;"/>
                </g>
                <g transform="matrix(0,-1,-1,-0,385,60)">
                    <circle cx="-5" cy="0" r="5" style="fill:none;stroke:rgb(6,58,102);stroke-width:2px;"/>
                </g>
                <g transform="matrix(1,0,0,1,30,25)">
                    <path d="M0,0C0,-2.761 -2.239,-5 -5,-5C-7.761,-5 -10,-2.761 -10,0C-10,2.761 -7.761,5 -5,5C-2.239,5 0,2.761 0,0" style="fill:rgb(19,117,188);fill-rule:nonzero;"/>
                </g>
                <g transform="matrix(0,-1,-1,-0,25,20)">
                    <circle cx="-5" cy="0" r="5" style="fill:none;stroke:rgb(6,58,102);stroke-width:2px;"/>
                </g>
                <g transform="matrix(1,0,0,1,70,25)">
                    <path d="M0,0C0,-2.761 -2.239,-5 -5,-5C-7.761,-5 -10,-2.761 -10,0C-10,2.761 -7.761,5 -5,5C-2.239,5 0,2.761 0,0" style="fill:rgb(19,117,188);fill-rule:nonzero;"/>
                </g>
                <g transform="matrix(0,-1,-1,-0,65,20)">
                    <circle cx="-5" cy="0" r="5" style="fill:none;stroke:rgb(6,58,102);stroke-width:2px;"/>
                </g>
                <g transform="matrix(1,0,0,1,110,25)">
                    <path d="M0,0C0,-2.761 -2.239,-5 -5,-5C-7.761,-5 -10,-2.761 -10,0C-10,2.761 -7.761,5 -5,5C-2.239,5 0,2.761 0,0" style="fill:rgb(19,117,188);fill-rule:nonzero;"/>
                </g>
                <g transform="matrix(0,-1,-1,-0,105,20)">
                    <circle cx="-5" cy="0" r="5" style="fill:none;stroke:rgb(6,58,102);stroke-width:2px;"/>
                </g>
                <g transform="matrix(1,0,0,1,150,25)">
                    <path d="M0,0C0,-2.761 -2.239,-5 -5,-5C-7.761,-5 -10,-2.761 -10,0C-10,2.761 -7.761,5 -5,5C-2.239,5 0,2.761 0,0" style="fill:rgb(19,117,188);fill-rule:nonzero;"/>
                </g>
                <g transform="matrix(0,-1,-1,-0,145,20)">
                    <circle cx="-5" cy="0" r="5" style="fill:none;stroke:rgb(6,58,102);stroke-width:2px;"/>
                </g>
                <g transform="matrix(1,0,0,1,190,25)">
                    <path d="M0,0C0,-2.761 -2.239,-5 -5,-5C-7.761,-5 -10,-2.761 -10,0C-10,2.761 -7.761,5 -5,5C-2.239,5 0,2.761 0,0" style="fill:rgb(19,117,188);fill-rule:nonzero;"/>
                </g>
                <g transform="matrix(0,-1,-1,-0,185,20)">
                    <circle cx="-5" cy="0" r="5" style="fill:none;stroke:rgb(6,58,102);stroke-width:2px;"/>
                </g>
                <g transform="matrix(1,0,0,1,230,25)">
                    <path d="M0,0C0,-2.761 -2.239,-5 -5,-5C-7.761,-5 -10,-2.761 -10,0C-10,2.761 -7.761,5 -5,5C-2.239,5 0,2.761 0,0" style="fill:rgb(19,117,188);fill-rule:nonzero;"/>
                </g>
                <g transform="matrix(0,-1,-1,-0,225,20)">
                    <circle cx="-5" cy="0" r="5" style="fill:none;stroke:rgb(6,58,102);stroke-width:2px;"/>
                </g>
                <g transform="matrix(1,0,0,1,270,25)">
                    <path d="M0,0C0,-2.761 -2.239,-5 -5,-5C-7.761,-5 -10,-2.761 -10,0C-10,2.761 -7.761,5 -5,5C-2.239,5 0,2.761 0,0" style="fill:rgb(19,117,188);fill-rule:nonzero;"/>
                </g>
                <g transform="matrix(0,-1,-1,-0,265,20)">
                    <circle cx="-5" cy="0" r="5" style="fill:none;stroke:rgb(6,58,102);stroke-width:2px;"/>
                </g>
                <g transform="matrix(1,0,0,1,310,25)">
                    <path d="M0,0C0,-2.761 -2.239,-5 -5,-5C-7.761,-5 -10,-2.761 -10,0C-10,2.761 -7.761,5 -5,5C-2.239,5 0,2.761 0,0" style="fill:rgb(19,117,188);fill-rule:nonzero;"/>
                </g>
                <g transform="matrix(0,-1,-1,-0,305,20)">
                    <circle cx="-5" cy="0" r="5" style="fill:none;stroke:rgb(6,58,102);stroke-width:2px;"/>
                </g>
                <g transform="matrix(1,0,0,1,350,25)">
                    <path d="M0,0C0,-2.761 -2.239,-5 -5,-5C-7.761,-5 -10,-2.761 -10,0C-10,2.761 -7.761,5 -5,5C-2.239,5 0,2.761 0,0" style="fill:rgb(19,117,188);fill-rule:nonzero;"/>
                </g>
                <g transform="matrix(0,-1,-1,-0,345,20)">
                    <circle cx="-5" cy="0" r="5" style="fill:none;stroke:rgb(6,58,102);stroke-width:2px;"/>
                </g>
                <g transform="matrix(1,0,0,1,390,25)">
                    <path d="M0,0C0,-2.761 -2.239,-5 -5,-5C-7.761,-5 -10,-2.761 -10,0C-10,2.761 -7.761,5 -5,5C-2.239,5 0,2.761 0,0" style="fill:rgb(19,117,188);fill-rule:nonzero;"/>
                </g>
                <g transform="matrix(0,-1,-1,-0,385,20)">
                    <circle cx="-5" cy="0" r="5" style="fill:none;stroke:rgb(6,58,102);stroke-width:2px;"/>
                </g>
            </g>
        </g>
    </g>
</svg>
