<?xml version="1.0" encoding="UTF-8" standalone="no"?>
<!DOCTYPE svg PUBLIC "-//W3C//DTD SVG 1.1//EN" "http://www.w3.org/Graphics/SVG/1.1/DTD/svg11.dtd">
<svg width="100%" height="100%" viewBox="0 0 1709 1375" version="1.1" xmlns="http://www.w3.org/2000/svg" xmlns:xlink="http://www.w3.org/1999/xlink" xml:space="preserve" xmlns:serif="http://www.serif.com/" style="fill-rule:evenodd;clip-rule:evenodd;stroke-miterlimit:10;">
    <g id="Page-1" serif:id="Page 1" transform="matrix(4.16667,0,0,4.16667,0,0)">
        <rect x="0" y="0" width="410" height="330" style="fill:none;"/>
        <clipPath id="_clip1">
            <rect x="0" y="0" width="410" height="330"/>
        </clipPath>
        <g clip-path="url(#_clip1)">
            <g id="Fill">
                <g transform="matrix(1,0,0,1,124.897,205.001)">
                    <path d="M0,109.148C-47.171,99.102 -84.419,55.453 -93.241,0L0.103,0L0,109.148Z" style="fill:rgb(248,237,47);fill-rule:nonzero;"/>
                </g>
                <g transform="matrix(1,0,0,1,125,205.001)">
                    <path d="M0,-180.001C126.697,-180.001 231.814,-102.095 251.638,-0.001L0,0L0,-180.001Z" style="fill:rgb(248,237,47);fill-rule:nonzero;"/>
                </g>
                <g>
                    <g opacity="0.300003">
                        <g transform="matrix(1,0,0,1,125,24.9999)">
                            <path d="M0,180.001L0,0L-93.344,180.001L0,180.001Z" style="fill:rgb(248,237,47);fill-rule:nonzero;"/>
                        </g>
                    </g>
                </g>
                <g>
                    <g opacity="0.300003">
                        <g transform="matrix(1,0,0,1,124.897,205.001)">
                            <path d="M0,109.148L251.741,0L0.103,0L0,109.148Z" style="fill:rgb(248,237,47);fill-rule:nonzero;"/>
                        </g>
                    </g>
                </g>
            </g>
            <g id="rho">
                <g transform="matrix(0.837952,-0.545744,-0.545744,-0.837952,171.581,244.626)">
                    <path d="M-17.408,58.625L197.437,58.625" style="fill:none;stroke:rgb(35,31,32);stroke-width:1px;"/>
                </g>
                <g transform="matrix(1,0,0,1,213.671,127.434)">
                    <path d="M0,13.66C-0.053,13.953 -0.053,13.98 -0.053,14.033C-0.053,14.406 0.213,14.672 0.612,14.672C1.092,14.672 1.385,14.246 1.438,14.166C1.544,13.953 2.317,10.758 2.956,8.201C3.435,9.16 4.207,9.799 5.326,9.799C8.121,9.799 11.184,6.417 11.184,2.876C11.184,0.346 9.613,-1.012 7.882,-1.012C5.565,-1.012 3.062,1.385 2.343,4.287L0,13.66ZM5.299,9.266C3.621,9.266 3.249,7.349 3.249,7.136C3.249,7.056 3.382,6.577 3.435,6.258C4.101,3.595 4.34,2.743 4.873,1.784C5.885,0.053 7.083,-0.479 7.828,-0.479C8.707,-0.479 9.479,0.213 9.479,1.864C9.479,3.169 8.787,5.832 8.148,7.003C7.349,8.494 6.204,9.266 5.299,9.266" style="fill:rgb(35,31,32);fill-rule:nonzero;"/>
                </g>
            </g>
            <g id="Axis">
                <g transform="matrix(0,1,1,0,285,165)">
                    <path d="M-160,-160L160,-160" style="fill:none;stroke:rgb(35,31,32);stroke-width:3px;"/>
                </g>
                <g transform="matrix(1,0,0,1,5,205)">
                    <path d="M0,0L400,0" style="fill:none;stroke:rgb(35,31,32);stroke-width:3px;"/>
                </g>
            </g>
            <g id="Border">
                <g transform="matrix(-0.813338,-0.581791,-0.581791,0.813338,200.847,-31.4004)">
                    <path d="M-280.514,90C-204.992,18.496 -74.172,16.289 28.876,90" style="fill:none;stroke:rgb(35,31,32);stroke-width:2px;stroke-linecap:round;stroke-linejoin:round;"/>
                </g>
                <g transform="matrix(0.649528,0.760338,0.760338,-0.649528,89.4898,188.68)">
                    <path d="M-25.155,-54.574C22.738,-83.885 80.12,-83.914 118.396,-54.574" style="fill:none;stroke:rgb(35,31,32);stroke-width:2px;stroke-linecap:round;stroke-linejoin:round;"/>
                </g>
                <g transform="matrix(0.459967,-0.887936,-0.887936,-0.459967,34.7666,204.787)">
                    <path d="M-1.62,2.664L4.38,2.664" style="fill:none;stroke:rgb(35,31,32);stroke-width:2px;stroke-linecap:round;stroke-linejoin:round;stroke-miterlimit:4;"/>
                </g>
                <g transform="matrix(0.459958,-0.887941,-0.887941,-0.459958,131.332,187.757)">
                    <path d="M-49.006,80.576L132.483,80.576" style="fill:none;stroke:rgb(35,31,32);stroke-width:2px;stroke-linecap:round;stroke-linejoin:round;stroke-miterlimit:4;stroke-dasharray:12.3,6.15;"/>
                </g>
                <g transform="matrix(0.459967,-0.887936,-0.887936,-0.459967,125.248,30.1143)">
                    <path d="M-1.62,2.664L4.38,2.664" style="fill:none;stroke:rgb(35,31,32);stroke-width:2px;stroke-linecap:round;stroke-linejoin:round;stroke-miterlimit:4;"/>
                </g>
                <g transform="matrix(-0.917464,0.397818,0.397818,0.917464,371.834,208.384)">
                    <path d="M-5.753,-1.194L0.248,-1.194" style="fill:none;stroke:rgb(35,31,32);stroke-width:2px;stroke-linecap:round;stroke-linejoin:round;stroke-miterlimit:4;"/>
                </g>
                <g transform="matrix(-0.917475,0.397793,0.397793,0.917475,162.912,352.54)">
                    <path d="M-242.677,-50.345L10.444,-50.345" style="fill:none;stroke:rgb(35,31,32);stroke-width:2px;stroke-linecap:round;stroke-linejoin:round;stroke-miterlimit:4;stroke-dasharray:12.2,6.1;"/>
                </g>
                <g transform="matrix(-0.917464,0.397818,0.397818,0.917464,125.702,315.101)">
                    <path d="M-5.753,-1.194L0.248,-1.194" style="fill:none;stroke:rgb(35,31,32);stroke-width:2px;stroke-linecap:round;stroke-linejoin:round;stroke-miterlimit:4;"/>
                </g>
            </g>
        </g>
    </g>
</svg>
