<svg xmlns="http://www.w3.org/2000/svg" viewBox="0 0 373.25 373.33"><defs><style>.cls-1{fill:none;stroke:#939598;stroke-miterlimit:10;}.cls-2{fill:#2b3990;}</style></defs><title>iterations</title><g id="Grid"><rect class="cls-1" x="6.58" y="6.42" width="360" height="360"/><line class="cls-1" x1="6.58" y1="326.42" x2="366.58" y2="326.42"/><line class="cls-1" x1="6.58" y1="286.42" x2="366.58" y2="286.42"/><line class="cls-1" x1="6.58" y1="246.42" x2="366.58" y2="246.42"/><line class="cls-1" x1="6.58" y1="206.42" x2="366.58" y2="206.42"/><line class="cls-1" x1="6.58" y1="166.42" x2="366.58" y2="166.42"/><line class="cls-1" x1="6.58" y1="126.42" x2="366.58" y2="126.42"/><line class="cls-1" x1="6.58" y1="86.42" x2="366.58" y2="86.42"/><line class="cls-1" x1="6.58" y1="46.42" x2="366.58" y2="46.42"/><line class="cls-1" x1="326.58" y1="6.42" x2="326.58" y2="366.42"/><line class="cls-1" x1="286.58" y1="6.42" x2="286.58" y2="366.42"/><line class="cls-1" x1="246.58" y1="6.42" x2="246.58" y2="366.42"/><line class="cls-1" x1="206.58" y1="6.42" x2="206.58" y2="366.42"/><line class="cls-1" x1="166.58" y1="6.42" x2="166.58" y2="366.42"/><line class="cls-1" x1="126.58" y1="6.42" x2="126.58" y2="366.42"/><line class="cls-1" x1="86.58" y1="6.42" x2="86.58" y2="366.42"/><line class="cls-1" x1="46.58" y1="6.42" x2="46.58" y2="366.42"/></g><g id="State"><rect class="cls-2" x="173.33" y="173.33" width="26.67" height="26.67"/></g></svg>