<?xml version="1.0" encoding="UTF-8" standalone="no"?>
<!DOCTYPE svg PUBLIC "-//W3C//DTD SVG 1.1//EN" "http://www.w3.org/Graphics/SVG/1.1/DTD/svg11.dtd">
<svg width="100%" height="100%" viewBox="0 0 1125 959" version="1.1" xmlns="http://www.w3.org/2000/svg" xmlns:xlink="http://www.w3.org/1999/xlink" xml:space="preserve" xmlns:serif="http://www.serif.com/" style="fill-rule:evenodd;clip-rule:evenodd;stroke-miterlimit:10;">
    <g id="Layer-2" serif:id="Layer 2" transform="matrix(4.16667,0,0,4.16667,0,0)">
        <g transform="matrix(1,0,0,1,0,-60)">
            <rect x="5" y="65" width="220" height="160" style="fill:none;stroke:rgb(187,189,192);stroke-width:1px;"/>
        </g>
        <g transform="matrix(1,0,0,1,5,145)">
            <path d="M0,0L220,0" style="fill:none;stroke:rgb(187,189,192);stroke-width:1px;"/>
        </g>
        <g transform="matrix(1,0,0,1,5,125)">
            <path d="M0,0L220,0" style="fill:none;stroke:rgb(187,189,192);stroke-width:1px;"/>
        </g>
        <g transform="matrix(1,0,0,1,5,105)">
            <path d="M0,0L220,0" style="fill:none;stroke:rgb(187,189,192);stroke-width:1px;"/>
        </g>
        <g transform="matrix(1,0,0,1,5,85)">
            <path d="M0,0L220,0" style="fill:none;stroke:rgb(187,189,192);stroke-width:1px;"/>
        </g>
        <g transform="matrix(1,0,0,1,5,65)">
            <path d="M0,0L220,0" style="fill:none;stroke:rgb(187,189,192);stroke-width:1px;"/>
        </g>
        <g transform="matrix(1,0,0,1,5,45)">
            <path d="M0,0L220,0" style="fill:none;stroke:rgb(187,189,192);stroke-width:1px;"/>
        </g>
        <g transform="matrix(1,0,0,1,5,25)">
            <path d="M0,0L220,0" style="fill:none;stroke:rgb(187,189,192);stroke-width:1px;"/>
        </g>
        <g transform="matrix(0,1,1,0,285,85)">
            <path d="M-80,-80L80,-80" style="fill:none;stroke:rgb(187,189,192);stroke-width:1px;"/>
        </g>
        <g transform="matrix(0,1,1,0,265,85)">
            <path d="M-80,-80L80,-80" style="fill:none;stroke:rgb(187,189,192);stroke-width:1px;"/>
        </g>
        <g transform="matrix(0,1,1,0,245,85)">
            <path d="M-80,-80L80,-80" style="fill:none;stroke:rgb(187,189,192);stroke-width:1px;"/>
        </g>
        <g transform="matrix(0,1,1,0,225,85)">
            <path d="M-80,-80L80,-80" style="fill:none;stroke:rgb(187,189,192);stroke-width:1px;"/>
        </g>
        <g transform="matrix(0,1,1,0,205,85)">
            <path d="M-80,-80L80,-80" style="fill:none;stroke:rgb(187,189,192);stroke-width:1px;"/>
        </g>
        <g transform="matrix(0,1,1,0,185,85)">
            <path d="M-80,-80L80,-80" style="fill:none;stroke:rgb(187,189,192);stroke-width:1px;"/>
        </g>
        <g transform="matrix(0,1,1,0,165,85)">
            <path d="M-80,-80L80,-80" style="fill:none;stroke:rgb(187,189,192);stroke-width:1px;"/>
        </g>
        <g transform="matrix(0,1,1,0,145,85)">
            <path d="M-80,-80L80,-80" style="fill:none;stroke:rgb(187,189,192);stroke-width:1px;"/>
        </g>
        <g transform="matrix(0,1,1,0,125,85)">
            <path d="M-80,-80L80,-80" style="fill:none;stroke:rgb(187,189,192);stroke-width:1px;"/>
        </g>
        <g transform="matrix(0,1,1,0,105,85)">
            <path d="M-80,-80L80,-80" style="fill:none;stroke:rgb(187,189,192);stroke-width:1px;"/>
        </g>
    </g>
    <g id="Layer-1" serif:id="Layer 1" transform="matrix(4.16667,0,0,4.16667,0,0)">
        <g transform="matrix(1,0,0,1,80,115)">
            <path d="M0,0C0,2.761 -2.239,5 -5,5C-7.761,5 -10,2.761 -10,0C-10,-2.761 -7.761,-5 -5,-5C-2.239,-5 0,-2.761 0,0" style="fill:rgb(251,176,64);fill-rule:nonzero;"/>
        </g>
        <g transform="matrix(0,-1,-1,-0,75,110)">
            <circle cx="-5" cy="0" r="5" style="fill:none;stroke:rgb(35,31,32);stroke-width:1px;"/>
        </g>
        <g transform="matrix(1,0,0,1,100,115)">
            <path d="M0,0C0,2.761 -2.239,5 -5,5C-7.761,5 -10,2.761 -10,0C-10,-2.761 -7.761,-5 -5,-5C-2.239,-5 0,-2.761 0,0" style="fill:rgb(251,176,64);fill-rule:nonzero;"/>
        </g>
        <g transform="matrix(0,-1,-1,-0,95,110)">
            <circle cx="-5" cy="0" r="5" style="fill:none;stroke:rgb(35,31,32);stroke-width:1px;"/>
        </g>
        <g transform="matrix(1,0,0,1,100,95)">
            <path d="M0,0C0,2.761 -2.239,5 -5,5C-7.761,5 -10,2.761 -10,0C-10,-2.761 -7.761,-5 -5,-5C-2.239,-5 0,-2.761 0,0" style="fill:rgb(251,176,64);fill-rule:nonzero;"/>
        </g>
        <g transform="matrix(0,-1,-1,-0,95,90)">
            <circle cx="-5" cy="0" r="5" style="fill:none;stroke:rgb(35,31,32);stroke-width:1px;"/>
        </g>
        <g transform="matrix(1,0,0,1,80,95)">
            <path d="M0,0C0,2.761 -2.239,5 -5,5C-7.761,5 -10,2.761 -10,0C-10,-2.761 -7.761,-5 -5,-5C-2.239,-5 0,-2.761 0,0" style="fill:rgb(251,176,64);fill-rule:nonzero;"/>
        </g>
        <g transform="matrix(0,-1,-1,-0,75,90)">
            <circle cx="-5" cy="0" r="5" style="fill:none;stroke:rgb(35,31,32);stroke-width:1px;"/>
        </g>
        <g transform="matrix(1,0,0,1,80,75)">
            <path d="M0,0C0,2.761 -2.239,5 -5,5C-7.761,5 -10,2.761 -10,0C-10,-2.761 -7.761,-5 -5,-5C-2.239,-5 0,-2.761 0,0" style="fill:rgb(251,176,64);fill-rule:nonzero;"/>
        </g>
        <g transform="matrix(0,-1,-1,-0,75,70)">
            <circle cx="-5" cy="0" r="5" style="fill:none;stroke:rgb(35,31,32);stroke-width:1px;"/>
        </g>
        <g transform="matrix(1,0,0,1,100,75)">
            <path d="M0,0C0,2.761 -2.239,5 -5,5C-7.761,5 -10,2.761 -10,0C-10,-2.761 -7.761,-5 -5,-5C-2.239,-5 0,-2.761 0,0" style="fill:rgb(251,176,64);fill-rule:nonzero;"/>
        </g>
        <g transform="matrix(0,-1,-1,-0,95,70)">
            <circle cx="-5" cy="0" r="5" style="fill:none;stroke:rgb(35,31,32);stroke-width:1px;"/>
        </g>
        <g transform="matrix(1,0,0,1,100,55)">
            <path d="M0,0C0,2.761 -2.239,5 -5,5C-7.761,5 -10,2.761 -10,0C-10,-2.761 -7.761,-5 -5,-5C-2.239,-5 0,-2.761 0,0" style="fill:rgb(251,176,64);fill-rule:nonzero;"/>
        </g>
        <g transform="matrix(0,-1,-1,-0,95,50)">
            <circle cx="-5" cy="0" r="5" style="fill:none;stroke:rgb(35,31,32);stroke-width:1px;"/>
        </g>
        <g transform="matrix(1,0,0,1,80,55)">
            <path d="M0,0C0,2.761 -2.239,5 -5,5C-7.761,5 -10,2.761 -10,0C-10,-2.761 -7.761,-5 -5,-5C-2.239,-5 0,-2.761 0,0" style="fill:rgb(251,176,64);fill-rule:nonzero;"/>
        </g>
        <g transform="matrix(0,-1,-1,-0,75,50)">
            <circle cx="-5" cy="0" r="5" style="fill:none;stroke:rgb(35,31,32);stroke-width:1px;"/>
        </g>
        <g transform="matrix(1,0,0,1,80,35)">
            <path d="M0,0C0,2.761 -2.239,5 -5,5C-7.761,5 -10,2.761 -10,0C-10,-2.761 -7.761,-5 -5,-5C-2.239,-5 0,-2.761 0,0" style="fill:rgb(251,176,64);fill-rule:nonzero;"/>
        </g>
        <g transform="matrix(0,-1,-1,-0,75,30)">
            <circle cx="-5" cy="0" r="5" style="fill:none;stroke:rgb(35,31,32);stroke-width:1px;"/>
        </g>
        <g transform="matrix(1,0,0,1,100,35)">
            <path d="M0,0C0,2.761 -2.239,5 -5,5C-7.761,5 -10,2.761 -10,0C-10,-2.761 -7.761,-5 -5,-5C-2.239,-5 0,-2.761 0,0" style="fill:rgb(251,176,64);fill-rule:nonzero;"/>
        </g>
        <g transform="matrix(0,-1,-1,-0,95,30)">
            <circle cx="-5" cy="0" r="5" style="fill:none;stroke:rgb(35,31,32);stroke-width:1px;"/>
        </g>
        <g transform="matrix(1,0,0,1,80,15)">
            <path d="M0,0C0,2.761 -2.239,5 -5,5C-7.761,5 -10,2.761 -10,0C-10,-2.761 -7.761,-5 -5,-5C-2.239,-5 0,-2.761 0,0" style="fill:rgb(251,176,64);fill-rule:nonzero;"/>
        </g>
        <g transform="matrix(0,-1,-1,-0,75,10)">
            <circle cx="-5" cy="0" r="5" style="fill:none;stroke:rgb(35,31,32);stroke-width:1px;"/>
        </g>
        <g transform="matrix(1,0,0,1,100,15)">
            <path d="M0,0C0,2.761 -2.239,5 -5,5C-7.761,5 -10,2.761 -10,0C-10,-2.761 -7.761,-5 -5,-5C-2.239,-5 0,-2.761 0,0" style="fill:rgb(251,176,64);fill-rule:nonzero;"/>
        </g>
        <g transform="matrix(0,-1,-1,-0,95,10)">
            <circle cx="-5" cy="0" r="5" style="fill:none;stroke:rgb(35,31,32);stroke-width:1px;"/>
        </g>
        <g transform="matrix(1,0,0,1,120,115)">
            <path d="M0,0C0,2.761 -2.239,5 -5,5C-7.761,5 -10,2.761 -10,0C-10,-2.761 -7.761,-5 -5,-5C-2.239,-5 0,-2.761 0,0" style="fill:rgb(251,176,64);fill-rule:nonzero;"/>
        </g>
        <g transform="matrix(0,-1,-1,-0,115,110)">
            <circle cx="-5" cy="0" r="5" style="fill:none;stroke:rgb(35,31,32);stroke-width:1px;"/>
        </g>
        <g transform="matrix(1,0,0,1,140,115)">
            <path d="M0,0C0,2.761 -2.239,5 -5,5C-7.761,5 -10,2.761 -10,0C-10,-2.761 -7.761,-5 -5,-5C-2.239,-5 0,-2.761 0,0" style="fill:rgb(251,176,64);fill-rule:nonzero;"/>
        </g>
        <g transform="matrix(0,-1,-1,-0,135,110)">
            <circle cx="-5" cy="0" r="5" style="fill:none;stroke:rgb(35,31,32);stroke-width:1px;"/>
        </g>
        <g transform="matrix(1,0,0,1,140,95)">
            <path d="M0,0C0,2.761 -2.239,5 -5,5C-7.761,5 -10,2.761 -10,0C-10,-2.761 -7.761,-5 -5,-5C-2.239,-5 0,-2.761 0,0" style="fill:rgb(251,176,64);fill-rule:nonzero;"/>
        </g>
        <g transform="matrix(0,-1,-1,-0,135,90)">
            <circle cx="-5" cy="0" r="5" style="fill:none;stroke:rgb(35,31,32);stroke-width:1px;"/>
        </g>
        <g transform="matrix(1,0,0,1,120,95)">
            <path d="M0,0C0,2.761 -2.239,5 -5,5C-7.761,5 -10,2.761 -10,0C-10,-2.761 -7.761,-5 -5,-5C-2.239,-5 0,-2.761 0,0" style="fill:rgb(251,176,64);fill-rule:nonzero;"/>
        </g>
        <g transform="matrix(0,-1,-1,-0,115,90)">
            <circle cx="-5" cy="0" r="5" style="fill:none;stroke:rgb(35,31,32);stroke-width:1px;"/>
        </g>
        <g transform="matrix(1,0,0,1,120,75)">
            <path d="M0,0C0,2.761 -2.239,5 -5,5C-7.761,5 -10,2.761 -10,0C-10,-2.761 -7.761,-5 -5,-5C-2.239,-5 0,-2.761 0,0" style="fill:rgb(251,176,64);fill-rule:nonzero;"/>
        </g>
        <g transform="matrix(0,-1,-1,-0,115,70)">
            <circle cx="-5" cy="0" r="5" style="fill:none;stroke:rgb(35,31,32);stroke-width:1px;"/>
        </g>
        <g transform="matrix(1,0,0,1,140,75)">
            <path d="M0,0C0,2.761 -2.239,5 -5,5C-7.761,5 -10,2.761 -10,0C-10,-2.761 -7.761,-5 -5,-5C-2.239,-5 0,-2.761 0,0" style="fill:rgb(251,176,64);fill-rule:nonzero;"/>
        </g>
        <g transform="matrix(0,-1,-1,-0,135,70)">
            <circle cx="-5" cy="0" r="5" style="fill:none;stroke:rgb(35,31,32);stroke-width:1px;"/>
        </g>
        <g transform="matrix(1,0,0,1,20,155)">
            <path d="M0,0C0,2.761 -2.239,5 -5,5C-7.761,5 -10,2.761 -10,0C-10,-2.761 -7.761,-5 -5,-5C-2.239,-5 0,-2.761 0,0" style="fill:rgb(251,176,64);fill-rule:nonzero;"/>
        </g>
        <g transform="matrix(0,-1,-1,-0,15,150)">
            <circle cx="-5" cy="0" r="5" style="fill:none;stroke:rgb(35,31,32);stroke-width:1px;"/>
        </g>
        <g transform="matrix(1,0,0,1,40,155)">
            <path d="M0,0C0,2.761 -2.239,5 -5,5C-7.761,5 -10,2.761 -10,0C-10,-2.761 -7.761,-5 -5,-5C-2.239,-5 0,-2.761 0,0" style="fill:rgb(251,176,64);fill-rule:nonzero;"/>
        </g>
        <g transform="matrix(0,-1,-1,-0,35,150)">
            <circle cx="-5" cy="0" r="5" style="fill:none;stroke:rgb(35,31,32);stroke-width:1px;"/>
        </g>
        <g transform="matrix(1,0,0,1,40,135)">
            <path d="M0,0C0,2.761 -2.239,5 -5,5C-7.761,5 -10,2.761 -10,0C-10,-2.761 -7.761,-5 -5,-5C-2.239,-5 0,-2.761 0,0" style="fill:rgb(251,176,64);fill-rule:nonzero;"/>
        </g>
        <g transform="matrix(0,-1,-1,-0,35,130)">
            <circle cx="-5" cy="0" r="5" style="fill:none;stroke:rgb(35,31,32);stroke-width:1px;"/>
        </g>
        <g transform="matrix(1,0,0,1,20,135)">
            <path d="M0,0C0,2.761 -2.239,5 -5,5C-7.761,5 -10,2.761 -10,0C-10,-2.761 -7.761,-5 -5,-5C-2.239,-5 0,-2.761 0,0" style="fill:rgb(251,176,64);fill-rule:nonzero;"/>
        </g>
        <g transform="matrix(0,-1,-1,-0,15,130)">
            <circle cx="-5" cy="0" r="5" style="fill:none;stroke:rgb(35,31,32);stroke-width:1px;"/>
        </g>
        <g transform="matrix(1,0,0,1,20,115)">
            <path d="M0,0C0,2.761 -2.239,5 -5,5C-7.761,5 -10,2.761 -10,0C-10,-2.761 -7.761,-5 -5,-5C-2.239,-5 0,-2.761 0,0" style="fill:rgb(251,176,64);fill-rule:nonzero;"/>
        </g>
        <g transform="matrix(0,-1,-1,-0,15,110)">
            <circle cx="-5" cy="0" r="5" style="fill:none;stroke:rgb(35,31,32);stroke-width:1px;"/>
        </g>
        <g transform="matrix(1,0,0,1,40,115)">
            <path d="M0,0C0,2.761 -2.239,5 -5,5C-7.761,5 -10,2.761 -10,0C-10,-2.761 -7.761,-5 -5,-5C-2.239,-5 0,-2.761 0,0" style="fill:rgb(251,176,64);fill-rule:nonzero;"/>
        </g>
        <g transform="matrix(0,-1,-1,-0,35,110)">
            <circle cx="-5" cy="0" r="5" style="fill:none;stroke:rgb(35,31,32);stroke-width:1px;"/>
        </g>
        <g transform="matrix(1,0,0,1,60,155)">
            <path d="M0,0C0,2.761 -2.239,5 -5,5C-7.761,5 -10,2.761 -10,0C-10,-2.761 -7.761,-5 -5,-5C-2.239,-5 0,-2.761 0,0" style="fill:rgb(251,176,64);fill-rule:nonzero;"/>
        </g>
        <g transform="matrix(0,-1,-1,-0,55,150)">
            <circle cx="-5" cy="0" r="5" style="fill:none;stroke:rgb(35,31,32);stroke-width:1px;"/>
        </g>
        <g transform="matrix(1,0,0,1,80,155)">
            <path d="M0,0C0,2.761 -2.239,5 -5,5C-7.761,5 -10,2.761 -10,0C-10,-2.761 -7.761,-5 -5,-5C-2.239,-5 0,-2.761 0,0" style="fill:rgb(251,176,64);fill-rule:nonzero;"/>
        </g>
        <g transform="matrix(0,-1,-1,-0,75,150)">
            <circle cx="-5" cy="0" r="5" style="fill:none;stroke:rgb(35,31,32);stroke-width:1px;"/>
        </g>
        <g transform="matrix(1,0,0,1,80,135)">
            <path d="M0,0C0,2.761 -2.239,5 -5,5C-7.761,5 -10,2.761 -10,0C-10,-2.761 -7.761,-5 -5,-5C-2.239,-5 0,-2.761 0,0" style="fill:rgb(251,176,64);fill-rule:nonzero;"/>
        </g>
        <g transform="matrix(0,-1,-1,-0,75,130)">
            <circle cx="-5" cy="0" r="5" style="fill:none;stroke:rgb(35,31,32);stroke-width:1px;"/>
        </g>
        <g transform="matrix(1,0,0,1,60,135)">
            <path d="M0,0C0,2.761 -2.239,5 -5,5C-7.761,5 -10,2.761 -10,0C-10,-2.761 -7.761,-5 -5,-5C-2.239,-5 0,-2.761 0,0" style="fill:rgb(251,176,64);fill-rule:nonzero;"/>
        </g>
        <g transform="matrix(0,-1,-1,-0,55,130)">
            <circle cx="-5" cy="0" r="5" style="fill:none;stroke:rgb(35,31,32);stroke-width:1px;"/>
        </g>
        <g transform="matrix(1,0,0,1,60,115)">
            <path d="M0,0C0,2.761 -2.239,5 -5,5C-7.761,5 -10,2.761 -10,0C-10,-2.761 -7.761,-5 -5,-5C-2.239,-5 0,-2.761 0,0" style="fill:rgb(251,176,64);fill-rule:nonzero;"/>
        </g>
        <g transform="matrix(0,-1,-1,-0,55,110)">
            <circle cx="-5" cy="0" r="5" style="fill:none;stroke:rgb(35,31,32);stroke-width:1px;"/>
        </g>
        <g transform="matrix(1,0,0,1,140,55)">
            <path d="M0,0C0,2.761 -2.239,5 -5,5C-7.761,5 -10,2.761 -10,0C-10,-2.761 -7.761,-5 -5,-5C-2.239,-5 0,-2.761 0,0" style="fill:rgb(251,176,64);fill-rule:nonzero;"/>
        </g>
        <g transform="matrix(0,-1,-1,-0,135,50)">
            <circle cx="-5" cy="0" r="5" style="fill:none;stroke:rgb(35,31,32);stroke-width:1px;"/>
        </g>
        <g transform="matrix(1,0,0,1,120,55)">
            <path d="M0,0C0,2.761 -2.239,5 -5,5C-7.761,5 -10,2.761 -10,0C-10,-2.761 -7.761,-5 -5,-5C-2.239,-5 0,-2.761 0,0" style="fill:rgb(251,176,64);fill-rule:nonzero;"/>
        </g>
        <g transform="matrix(0,-1,-1,-0,115,50)">
            <circle cx="-5" cy="0" r="5" style="fill:none;stroke:rgb(35,31,32);stroke-width:1px;"/>
        </g>
        <g transform="matrix(1,0,0,1,120,35)">
            <path d="M0,0C0,2.761 -2.239,5 -5,5C-7.761,5 -10,2.761 -10,0C-10,-2.761 -7.761,-5 -5,-5C-2.239,-5 0,-2.761 0,0" style="fill:rgb(251,176,64);fill-rule:nonzero;"/>
        </g>
        <g transform="matrix(0,-1,-1,-0,115,30)">
            <circle cx="-5" cy="0" r="5" style="fill:none;stroke:rgb(35,31,32);stroke-width:1px;"/>
        </g>
        <g transform="matrix(1,0,0,1,140,35)">
            <path d="M0,0C0,2.761 -2.239,5 -5,5C-7.761,5 -10,2.761 -10,0C-10,-2.761 -7.761,-5 -5,-5C-2.239,-5 0,-2.761 0,0" style="fill:rgb(251,176,64);fill-rule:nonzero;"/>
        </g>
        <g transform="matrix(0,-1,-1,-0,135,30)">
            <circle cx="-5" cy="0" r="5" style="fill:none;stroke:rgb(35,31,32);stroke-width:1px;"/>
        </g>
        <g transform="matrix(1,0,0,1,120,15)">
            <path d="M0,0C0,2.761 -2.239,5 -5,5C-7.761,5 -10,2.761 -10,0C-10,-2.761 -7.761,-5 -5,-5C-2.239,-5 0,-2.761 0,0" style="fill:rgb(251,176,64);fill-rule:nonzero;"/>
        </g>
        <g transform="matrix(0,-1,-1,-0,115,10)">
            <circle cx="-5" cy="0" r="5" style="fill:none;stroke:rgb(35,31,32);stroke-width:1px;"/>
        </g>
        <g transform="matrix(1,0,0,1,140,15)">
            <path d="M0,0C0,2.761 -2.239,5 -5,5C-7.761,5 -10,2.761 -10,0C-10,-2.761 -7.761,-5 -5,-5C-2.239,-5 0,-2.761 0,0" style="fill:rgb(251,176,64);fill-rule:nonzero;"/>
        </g>
        <g transform="matrix(0,-1,-1,-0,135,10)">
            <circle cx="-5" cy="0" r="5" style="fill:none;stroke:rgb(35,31,32);stroke-width:1px;"/>
        </g>
        <g transform="matrix(1,0,0,1,160,115)">
            <path d="M0,0C0,2.761 -2.239,5 -5,5C-7.761,5 -10,2.761 -10,0C-10,-2.761 -7.761,-5 -5,-5C-2.239,-5 0,-2.761 0,0" style="fill:rgb(251,176,64);fill-rule:nonzero;"/>
        </g>
        <g transform="matrix(0,-1,-1,-0,155,110)">
            <circle cx="-5" cy="0" r="5" style="fill:none;stroke:rgb(35,31,32);stroke-width:1px;"/>
        </g>
        <g transform="matrix(1,0,0,1,180,115)">
            <path d="M0,0C0,2.761 -2.239,5 -5,5C-7.761,5 -10,2.761 -10,0C-10,-2.761 -7.761,-5 -5,-5C-2.239,-5 0,-2.761 0,0" style="fill:rgb(251,176,64);fill-rule:nonzero;"/>
        </g>
        <g transform="matrix(0,-1,-1,-0,175,110)">
            <circle cx="-5" cy="0" r="5" style="fill:none;stroke:rgb(35,31,32);stroke-width:1px;"/>
        </g>
        <g transform="matrix(1,0,0,1,180,95)">
            <path d="M0,0C0,2.761 -2.239,5 -5,5C-7.761,5 -10,2.761 -10,0C-10,-2.761 -7.761,-5 -5,-5C-2.239,-5 0,-2.761 0,0" style="fill:rgb(251,176,64);fill-rule:nonzero;"/>
        </g>
        <g transform="matrix(0,-1,-1,-0,175,90)">
            <circle cx="-5" cy="0" r="5" style="fill:none;stroke:rgb(35,31,32);stroke-width:1px;"/>
        </g>
        <g transform="matrix(1,0,0,1,160,95)">
            <path d="M0,0C0,2.761 -2.239,5 -5,5C-7.761,5 -10,2.761 -10,0C-10,-2.761 -7.761,-5 -5,-5C-2.239,-5 0,-2.761 0,0" style="fill:rgb(251,176,64);fill-rule:nonzero;"/>
        </g>
        <g transform="matrix(0,-1,-1,-0,155,90)">
            <circle cx="-5" cy="0" r="5" style="fill:none;stroke:rgb(35,31,32);stroke-width:1px;"/>
        </g>
        <g transform="matrix(1,0,0,1,160,75)">
            <path d="M0,0C0,2.761 -2.239,5 -5,5C-7.761,5 -10,2.761 -10,0C-10,-2.761 -7.761,-5 -5,-5C-2.239,-5 0,-2.761 0,0" style="fill:rgb(251,176,64);fill-rule:nonzero;"/>
        </g>
        <g transform="matrix(0,-1,-1,-0,155,70)">
            <circle cx="-5" cy="0" r="5" style="fill:none;stroke:rgb(35,31,32);stroke-width:1px;"/>
        </g>
        <g transform="matrix(1,0,0,1,180,75)">
            <path d="M0,0C0,2.761 -2.239,5 -5,5C-7.761,5 -10,2.761 -10,0C-10,-2.761 -7.761,-5 -5,-5C-2.239,-5 0,-2.761 0,0" style="fill:rgb(251,176,64);fill-rule:nonzero;"/>
        </g>
        <g transform="matrix(0,-1,-1,-0,175,70)">
            <circle cx="-5" cy="0" r="5" style="fill:none;stroke:rgb(35,31,32);stroke-width:1px;"/>
        </g>
        <g transform="matrix(1,0,0,1,180,55)">
            <path d="M0,0C0,2.761 -2.239,5 -5,5C-7.761,5 -10,2.761 -10,0C-10,-2.761 -7.761,-5 -5,-5C-2.239,-5 0,-2.761 0,0" style="fill:rgb(251,176,64);fill-rule:nonzero;"/>
        </g>
        <g transform="matrix(0,-1,-1,-0,175,50)">
            <circle cx="-5" cy="0" r="5" style="fill:none;stroke:rgb(35,31,32);stroke-width:1px;"/>
        </g>
        <g transform="matrix(1,0,0,1,160,55)">
            <path d="M0,0C0,2.761 -2.239,5 -5,5C-7.761,5 -10,2.761 -10,0C-10,-2.761 -7.761,-5 -5,-5C-2.239,-5 0,-2.761 0,0" style="fill:rgb(251,176,64);fill-rule:nonzero;"/>
        </g>
        <g transform="matrix(0,-1,-1,-0,155,50)">
            <circle cx="-5" cy="0" r="5" style="fill:none;stroke:rgb(35,31,32);stroke-width:1px;"/>
        </g>
        <g transform="matrix(1,0,0,1,160,35)">
            <path d="M0,0C0,2.761 -2.239,5 -5,5C-7.761,5 -10,2.761 -10,0C-10,-2.761 -7.761,-5 -5,-5C-2.239,-5 0,-2.761 0,0" style="fill:rgb(251,176,64);fill-rule:nonzero;"/>
        </g>
        <g transform="matrix(0,-1,-1,-0,155,30)">
            <circle cx="-5" cy="0" r="5" style="fill:none;stroke:rgb(35,31,32);stroke-width:1px;"/>
        </g>
        <g transform="matrix(1,0,0,1,180,35)">
            <path d="M0,0C0,2.761 -2.239,5 -5,5C-7.761,5 -10,2.761 -10,0C-10,-2.761 -7.761,-5 -5,-5C-2.239,-5 0,-2.761 0,0" style="fill:rgb(251,176,64);fill-rule:nonzero;"/>
        </g>
        <g transform="matrix(0,-1,-1,-0,175,30)">
            <circle cx="-5" cy="0" r="5" style="fill:none;stroke:rgb(35,31,32);stroke-width:1px;"/>
        </g>
        <g transform="matrix(1,0,0,1,160,15)">
            <path d="M0,0C0,2.761 -2.239,5 -5,5C-7.761,5 -10,2.761 -10,0C-10,-2.761 -7.761,-5 -5,-5C-2.239,-5 0,-2.761 0,0" style="fill:rgb(251,176,64);fill-rule:nonzero;"/>
        </g>
        <g transform="matrix(0,-1,-1,-0,155,10)">
            <circle cx="-5" cy="0" r="5" style="fill:none;stroke:rgb(35,31,32);stroke-width:1px;"/>
        </g>
        <g transform="matrix(1,0,0,1,180,15)">
            <path d="M0,0C0,2.761 -2.239,5 -5,5C-7.761,5 -10,2.761 -10,0C-10,-2.761 -7.761,-5 -5,-5C-2.239,-5 0,-2.761 0,0" style="fill:rgb(251,176,64);fill-rule:nonzero;"/>
        </g>
        <g transform="matrix(0,-1,-1,-0,175,10)">
            <circle cx="-5" cy="0" r="5" style="fill:none;stroke:rgb(35,31,32);stroke-width:1px;"/>
        </g>
        <g transform="matrix(1,0,0,1,200,115)">
            <path d="M0,0C0,2.761 -2.239,5 -5,5C-7.761,5 -10,2.761 -10,0C-10,-2.761 -7.761,-5 -5,-5C-2.239,-5 0,-2.761 0,0" style="fill:rgb(251,176,64);fill-rule:nonzero;"/>
        </g>
        <g transform="matrix(0,-1,-1,-0,195,110)">
            <circle cx="-5" cy="0" r="5" style="fill:none;stroke:rgb(35,31,32);stroke-width:1px;"/>
        </g>
        <g transform="matrix(1,0,0,1,220,115)">
            <path d="M0,0C0,2.761 -2.239,5 -5,5C-7.761,5 -10,2.761 -10,0C-10,-2.761 -7.761,-5 -5,-5C-2.239,-5 0,-2.761 0,0" style="fill:rgb(251,176,64);fill-rule:nonzero;"/>
        </g>
        <g transform="matrix(0,-1,-1,-0,215,110)">
            <circle cx="-5" cy="0" r="5" style="fill:none;stroke:rgb(35,31,32);stroke-width:1px;"/>
        </g>
        <g transform="matrix(1,0,0,1,220,95)">
            <path d="M0,0C0,2.761 -2.239,5 -5,5C-7.761,5 -10,2.761 -10,0C-10,-2.761 -7.761,-5 -5,-5C-2.239,-5 0,-2.761 0,0" style="fill:rgb(251,176,64);fill-rule:nonzero;"/>
        </g>
        <g transform="matrix(0,-1,-1,-0,215,90)">
            <circle cx="-5" cy="0" r="5" style="fill:none;stroke:rgb(35,31,32);stroke-width:1px;"/>
        </g>
        <g transform="matrix(1,0,0,1,200,95)">
            <path d="M0,0C0,2.761 -2.239,5 -5,5C-7.761,5 -10,2.761 -10,0C-10,-2.761 -7.761,-5 -5,-5C-2.239,-5 0,-2.761 0,0" style="fill:rgb(251,176,64);fill-rule:nonzero;"/>
        </g>
        <g transform="matrix(0,-1,-1,-0,195,90)">
            <circle cx="-5" cy="0" r="5" style="fill:none;stroke:rgb(35,31,32);stroke-width:1px;"/>
        </g>
        <g transform="matrix(1,0,0,1,200,75)">
            <path d="M0,0C0,2.761 -2.239,5 -5,5C-7.761,5 -10,2.761 -10,0C-10,-2.761 -7.761,-5 -5,-5C-2.239,-5 0,-2.761 0,0" style="fill:rgb(251,176,64);fill-rule:nonzero;"/>
        </g>
        <g transform="matrix(0,-1,-1,-0,195,70)">
            <circle cx="-5" cy="0" r="5" style="fill:none;stroke:rgb(35,31,32);stroke-width:1px;"/>
        </g>
        <g transform="matrix(1,0,0,1,220,75)">
            <path d="M0,0C0,2.761 -2.239,5 -5,5C-7.761,5 -10,2.761 -10,0C-10,-2.761 -7.761,-5 -5,-5C-2.239,-5 0,-2.761 0,0" style="fill:rgb(251,176,64);fill-rule:nonzero;"/>
        </g>
        <g transform="matrix(0,-1,-1,-0,215,70)">
            <circle cx="-5" cy="0" r="5" style="fill:none;stroke:rgb(35,31,32);stroke-width:1px;"/>
        </g>
        <g transform="matrix(1,0,0,1,220,55)">
            <path d="M0,0C0,2.761 -2.239,5 -5,5C-7.761,5 -10,2.761 -10,0C-10,-2.761 -7.761,-5 -5,-5C-2.239,-5 0,-2.761 0,0" style="fill:rgb(251,176,64);fill-rule:nonzero;"/>
        </g>
        <g transform="matrix(0,-1,-1,-0,215,50)">
            <circle cx="-5" cy="0" r="5" style="fill:none;stroke:rgb(35,31,32);stroke-width:1px;"/>
        </g>
        <g transform="matrix(1,0,0,1,200,55)">
            <path d="M0,0C0,2.761 -2.239,5 -5,5C-7.761,5 -10,2.761 -10,0C-10,-2.761 -7.761,-5 -5,-5C-2.239,-5 0,-2.761 0,0" style="fill:rgb(251,176,64);fill-rule:nonzero;"/>
        </g>
        <g transform="matrix(0,-1,-1,-0,195,50)">
            <circle cx="-5" cy="0" r="5" style="fill:none;stroke:rgb(35,31,32);stroke-width:1px;"/>
        </g>
        <g transform="matrix(1,0,0,1,200,35)">
            <path d="M0,0C0,2.761 -2.239,5 -5,5C-7.761,5 -10,2.761 -10,0C-10,-2.761 -7.761,-5 -5,-5C-2.239,-5 0,-2.761 0,0" style="fill:rgb(251,176,64);fill-rule:nonzero;"/>
        </g>
        <g transform="matrix(0,-1,-1,-0,195,30)">
            <circle cx="-5" cy="0" r="5" style="fill:none;stroke:rgb(35,31,32);stroke-width:1px;"/>
        </g>
        <g transform="matrix(1,0,0,1,220,35)">
            <path d="M0,0C0,2.761 -2.239,5 -5,5C-7.761,5 -10,2.761 -10,0C-10,-2.761 -7.761,-5 -5,-5C-2.239,-5 0,-2.761 0,0" style="fill:rgb(251,176,64);fill-rule:nonzero;"/>
        </g>
        <g transform="matrix(0,-1,-1,-0,215,30)">
            <circle cx="-5" cy="0" r="5" style="fill:none;stroke:rgb(35,31,32);stroke-width:1px;"/>
        </g>
        <g transform="matrix(1,0,0,1,200,15)">
            <path d="M0,0C0,2.761 -2.239,5 -5,5C-7.761,5 -10,2.761 -10,0C-10,-2.761 -7.761,-5 -5,-5C-2.239,-5 0,-2.761 0,0" style="fill:rgb(251,176,64);fill-rule:nonzero;"/>
        </g>
        <g transform="matrix(0,-1,-1,-0,195,10)">
            <circle cx="-5" cy="0" r="5" style="fill:none;stroke:rgb(35,31,32);stroke-width:1px;"/>
        </g>
        <g transform="matrix(1,0,0,1,220,15)">
            <path d="M0,0C0,2.761 -2.239,5 -5,5C-7.761,5 -10,2.761 -10,0C-10,-2.761 -7.761,-5 -5,-5C-2.239,-5 0,-2.761 0,0" style="fill:rgb(251,176,64);fill-rule:nonzero;"/>
        </g>
        <g transform="matrix(0,-1,-1,-0,215,10)">
            <circle cx="-5" cy="0" r="5" style="fill:none;stroke:rgb(35,31,32);stroke-width:1px;"/>
        </g>
    </g>
    <g id="Layer-3" serif:id="Layer 3" transform="matrix(4.16667,0,0,4.16667,0,0)">
        <g transform="matrix(0.707107,0.707107,0.707107,-0.707107,75,107.929)">
            <path d="M-2.071,-5L12.071,-5" style="fill:none;stroke:rgb(35,31,32);stroke-width:3px;"/>
        </g>
        <g transform="matrix(0.707107,-0.707107,-0.707107,-0.707107,75,122.071)">
            <path d="M-2.071,5L12.071,5" style="fill:none;stroke:rgb(35,31,32);stroke-width:3px;"/>
        </g>
    </g>
    <g id="Layer-4" serif:id="Layer 4" transform="matrix(4.16667,0,0,4.16667,0,0)">
        <g transform="matrix(1,0,0,1,78.5605,175)">
            <path d="M0,0L132.879,0" style="fill:none;stroke:rgb(35,31,32);stroke-width:1px;stroke-linecap:round;"/>
        </g>
        <g transform="matrix(1,0,0,1,78.9629,175)">
            <path d="M0,0C1.045,-1.045 1.543,-3.111 1.584,-4.545C0.151,-2.62 -1.711,-0.941 -3.963,0C-1.711,0.901 0.069,2.682 1.584,4.545C1.461,3.01 1.086,1.146 0,0" style="fill:rgb(35,31,32);fill-rule:nonzero;"/>
        </g>
        <g transform="matrix(1,0,0,1,211.037,175)">
            <path d="M0,0C-1.045,-1.045 -1.543,-3.111 -1.584,-4.545C-0.151,-2.62 1.71,-0.941 3.963,0C1.71,0.901 -0.069,2.682 -1.584,4.545C-1.461,3.01 -1.086,1.146 0,0" style="fill:rgb(35,31,32);fill-rule:nonzero;"/>
        </g>
        <g transform="matrix(0,1,1,0,281.44,65)">
            <path d="M-46.439,-46.439L46.439,-46.439" style="fill:none;stroke:rgb(35,31,32);stroke-width:1px;stroke-linecap:round;"/>
        </g>
        <g transform="matrix(1,0,0,1,235,16.5839)">
            <path d="M0,2.379C1.045,3.424 3.111,3.922 4.545,3.963C2.62,2.53 0.941,0.668 0,-1.584C-0.901,0.668 -2.682,2.448 -4.545,3.963C-3.01,3.84 -1.146,3.465 0,2.379" style="fill:rgb(35,31,32);fill-rule:nonzero;"/>
        </g>
        <g transform="matrix(1,0,0,1,235,113.416)">
            <path d="M0,-2.379C1.045,-3.424 3.111,-3.922 4.545,-3.963C2.62,-2.53 0.941,-0.669 0,1.584C-0.901,-0.669 -2.682,-2.448 -4.545,-3.963C-3.01,-3.84 -1.146,-3.465 0,-2.379" style="fill:rgb(35,31,32);fill-rule:nonzero;"/>
        </g>
        <g transform="matrix(1,0,0,1,18.5605,175)">
            <path d="M0,0L52.879,0" style="fill:none;stroke:rgb(35,31,32);stroke-width:1px;stroke-linecap:round;"/>
        </g>
        <g transform="matrix(1,0,0,1,18.9629,175)">
            <path d="M0,0C1.045,-1.045 1.543,-3.111 1.584,-4.545C0.151,-2.62 -1.71,-0.941 -3.963,0C-1.71,0.901 0.069,2.682 1.584,4.545C1.461,3.01 1.086,1.146 0,0" style="fill:rgb(35,31,32);fill-rule:nonzero;"/>
        </g>
        <g transform="matrix(1,0,0,1,71.0371,175)">
            <path d="M0,0C-1.045,-1.045 -1.543,-3.111 -1.584,-4.545C-0.151,-2.62 1.711,-0.941 3.963,0C1.711,0.901 -0.069,2.682 -1.584,4.545C-1.461,3.01 -1.086,1.146 0,0" style="fill:rgb(35,31,32);fill-rule:nonzero;"/>
        </g>
        <g transform="matrix(0,1,1,0,251.44,135)">
            <path d="M-16.44,-16.44L16.44,-16.44" style="fill:none;stroke:rgb(35,31,32);stroke-width:1px;stroke-linecap:round;"/>
        </g>
        <g transform="matrix(1,0,0,1,235,116.584)">
            <path d="M0,2.379C1.045,3.424 3.111,3.922 4.545,3.963C2.62,2.53 0.941,0.669 0,-1.584C-0.901,0.669 -2.682,2.448 -4.545,3.963C-3.01,3.84 -1.146,3.465 0,2.379" style="fill:rgb(35,31,32);fill-rule:nonzero;"/>
        </g>
        <g transform="matrix(1,0,0,1,235,153.416)">
            <path d="M0,-2.379C1.045,-3.424 3.111,-3.922 4.545,-3.963C2.62,-2.53 0.941,-0.668 0,1.584C-0.901,-0.668 -2.682,-2.448 -4.545,-3.963C-3.01,-3.84 -1.146,-3.465 0,-2.379" style="fill:rgb(35,31,32);fill-rule:nonzero;"/>
        </g>
        <g transform="matrix(1,0,0,1,245.168,59.4948)">
            <path d="M0,7.455C-0.08,7.801 -0.213,8.36 -0.213,8.467C-0.213,8.92 0.107,9.133 0.479,9.133C0.772,9.133 1.198,8.92 1.358,8.467C1.385,8.414 1.678,7.295 1.811,6.683L2.343,4.553C2.476,4.02 2.609,3.488 2.743,2.955C2.823,2.529 3.036,1.837 3.062,1.757C3.408,1.011 4.66,-1.146 6.95,-1.146C8.015,-1.146 8.228,-0.267 8.228,0.505C8.228,1.118 8.068,1.783 7.855,2.502L7.189,5.272L6.71,7.082C6.63,7.535 6.417,8.36 6.417,8.467C6.417,8.92 6.737,9.133 7.109,9.133C7.855,9.133 7.988,8.52 8.175,7.775C8.521,6.417 9.399,2.955 9.612,2.023C9.692,1.703 10.944,-1.146 13.553,-1.146C14.565,-1.146 14.832,-0.347 14.832,0.505C14.832,1.863 13.82,4.606 13.34,5.857C13.127,6.417 13.047,6.683 13.047,7.162C13.047,8.28 13.873,9.133 14.991,9.133C17.228,9.133 18.107,5.644 18.107,5.458C18.107,5.218 17.894,5.218 17.84,5.218C17.601,5.218 17.601,5.272 17.468,5.644C17.121,6.896 16.349,8.6 15.045,8.6C14.645,8.6 14.459,8.36 14.459,7.801C14.459,7.215 14.698,6.63 14.911,6.124C15.364,4.872 16.349,2.236 16.349,0.878C16.349,-0.666 15.391,-1.678 13.607,-1.678C11.823,-1.678 10.624,-0.64 9.719,0.638C9.692,0.319 9.639,-0.48 8.973,-1.066C8.361,-1.572 7.615,-1.678 7.003,-1.678C4.873,-1.678 3.701,-0.16 3.302,0.399C3.169,-0.959 2.183,-1.678 1.092,-1.678C0,-1.678 -0.453,-0.746 -0.666,-0.32C-1.092,0.505 -1.411,1.916 -1.411,1.996C-1.411,2.236 -1.172,2.236 -1.118,2.236C-0.879,2.236 -0.852,2.209 -0.719,1.677C-0.32,-0.001 0.16,-1.146 1.038,-1.146C1.411,-1.146 1.757,-0.959 1.757,-0.054C1.757,0.452 1.704,0.692 1.385,1.943L0,7.455" style="fill:rgb(35,31,32);fill-rule:nonzero;"/>
        </g>
        <g transform="matrix(1,0,0,1,139.242,183.61)">
            <path d="M0,7.455C-0.08,7.801 -0.213,8.36 -0.213,8.467C-0.213,8.92 0.107,9.133 0.479,9.133C0.772,9.133 1.198,8.92 1.358,8.467C1.385,8.414 1.678,7.295 1.811,6.683L2.343,4.553C2.476,4.02 2.609,3.488 2.743,2.955C2.823,2.529 3.036,1.837 3.062,1.757C3.408,1.011 4.66,-1.146 6.95,-1.146C8.015,-1.146 8.228,-0.267 8.228,0.505C8.228,1.996 7.056,5.032 6.683,6.07C6.47,6.63 6.444,6.896 6.444,7.162C6.444,8.28 7.269,9.133 8.388,9.133C10.624,9.133 11.503,5.644 11.503,5.458C11.503,5.218 11.29,5.218 11.237,5.218C10.997,5.218 10.997,5.272 10.864,5.644C10.385,7.269 9.613,8.6 8.441,8.6C8.041,8.6 7.855,8.36 7.855,7.801C7.855,7.215 8.068,6.63 8.308,6.124C8.76,4.846 9.746,2.236 9.746,0.878C9.746,-0.72 8.734,-1.678 7.003,-1.678C4.873,-1.678 3.701,-0.16 3.302,0.399C3.169,-0.933 2.183,-1.678 1.092,-1.678C0,-1.678 -0.453,-0.746 -0.692,-0.32C-1.065,0.479 -1.411,1.89 -1.411,1.996C-1.411,2.236 -1.172,2.236 -1.118,2.236C-0.879,2.236 -0.852,2.209 -0.719,1.677C-0.32,-0.001 0.16,-1.146 1.038,-1.146C1.491,-1.146 1.757,-0.853 1.757,-0.054C1.757,0.452 1.704,0.692 1.385,1.943L0,7.455" style="fill:rgb(35,31,32);fill-rule:nonzero;"/>
        </g>
        <g>
            <clipPath id="_clip1">
                <rect x="35.009" y="180" width="14.991" height="45" clip-rule="nonzero"/>
            </clipPath>
            <g clip-path="url(#_clip1)">
                <g transform="matrix(1,0,0,1,37.6182,182.636)">
                    <path d="M0,7.455C-0.08,7.828 -0.24,8.36 -0.24,8.493C-0.24,8.919 0.107,9.133 0.453,9.133C0.746,9.133 1.172,8.946 1.358,8.467C1.358,8.414 1.651,7.295 1.811,6.683L2.317,4.553C2.476,4.02 2.609,3.487 2.716,2.955C2.823,2.556 3.009,1.863 3.036,1.757C3.408,1.011 4.66,-1.146 6.923,-1.146C7.988,-1.146 8.201,-0.267 8.201,0.532C8.201,1.996 7.056,5.058 6.657,6.07C6.444,6.63 6.417,6.922 6.417,7.162C6.417,8.28 7.269,9.133 8.388,9.133C10.624,9.133 11.503,5.644 11.503,5.458C11.503,5.218 11.29,5.218 11.21,5.218C10.971,5.218 10.971,5.298 10.864,5.644C10.385,7.269 9.586,8.6 8.414,8.6C8.015,8.6 7.855,8.36 7.855,7.828C7.855,7.215 8.068,6.656 8.281,6.124C8.734,4.872 9.746,2.236 9.746,0.878C9.746,-0.72 8.707,-1.678 7.003,-1.678C4.846,-1.678 3.675,-0.16 3.275,0.399C3.169,-0.933 2.183,-1.678 1.092,-1.678C0,-1.678 -0.453,-0.746 -0.692,-0.32C-1.092,0.505 -1.411,1.89 -1.411,1.996C-1.411,2.236 -1.172,2.236 -1.118,2.236C-0.905,2.236 -0.879,2.209 -0.719,1.677C-0.32,-0.001 0.16,-1.146 1.012,-1.146C1.491,-1.146 1.757,-0.853 1.757,-0.054C1.757,0.452 1.678,0.718 1.385,1.943L0,7.455" style="fill:rgb(35,31,32);fill-rule:nonzero;"/>
                </g>
                <g transform="matrix(1,0,0,1,35.4614,201.728)">
                    <path d="M0,0L14.352,0" style="fill:none;stroke:rgb(35,31,32);stroke-width:0.96px;"/>
                </g>
                <g transform="matrix(1,0,0,1,42.8638,224.095)">
                    <path d="M0,-16.27C0,-16.297 0,-16.536 -0.319,-16.536C-0.879,-16.536 -2.609,-16.35 -3.222,-16.297C-3.435,-16.27 -3.675,-16.243 -3.675,-15.817C-3.675,-15.551 -3.462,-15.551 -3.115,-15.551C-1.97,-15.551 -1.917,-15.365 -1.917,-15.125L-1.997,-14.646L-5.459,-0.933C-5.538,-0.586 -5.538,-0.533 -5.538,-0.4C-5.538,0.159 -5.059,0.266 -4.846,0.266C-4.553,0.266 -4.18,0.053 -4.047,-0.24C-3.914,-0.453 -2.849,-4.873 -2.716,-5.459C-1.891,-5.379 0.053,-5.007 0.053,-3.436C0.053,-3.249 0.053,-3.169 0,-2.93C-0.053,-2.637 -0.106,-2.344 -0.106,-2.104C-0.106,-0.693 0.852,0.266 2.077,0.266C2.796,0.266 3.435,-0.107 3.968,-0.986C4.58,-2.051 4.82,-3.356 4.82,-3.409C4.82,-3.649 4.607,-3.649 4.553,-3.649C4.314,-3.649 4.287,-3.542 4.207,-3.223C3.728,-1.465 3.195,-0.267 2.13,-0.267C1.678,-0.267 1.385,-0.533 1.385,-1.385C1.385,-1.785 1.465,-2.344 1.571,-2.717C1.651,-3.116 1.651,-3.223 1.651,-3.462C1.651,-5.007 0.16,-5.699 -1.864,-5.965C-1.118,-6.391 -0.373,-7.137 0.186,-7.723C1.331,-8.974 2.423,-10.013 3.595,-10.013C3.728,-10.013 3.755,-10.013 3.808,-9.986C4.101,-9.933 4.101,-9.933 4.314,-9.8C4.34,-9.773 4.34,-9.746 4.394,-9.693C3.249,-9.64 3.036,-8.708 3.036,-8.415C3.036,-8.042 3.302,-7.589 3.941,-7.589C4.58,-7.589 5.246,-8.095 5.246,-9.027C5.246,-9.746 4.713,-10.545 3.648,-10.545C2.956,-10.545 1.864,-10.332 0.16,-8.442C-0.666,-7.536 -1.571,-6.578 -2.503,-6.232L0,-16.27" style="fill:rgb(35,31,32);fill-rule:nonzero;"/>
                </g>
            </g>
        </g>
        <g>
            <clipPath id="_clip2">
                <rect x="245" y="115" width="21.994" height="45" clip-rule="nonzero"/>
            </clipPath>
            <g clip-path="url(#_clip2)">
                <g transform="matrix(1,0,0,1,247.609,117.636)">
                    <path d="M0,7.455C-0.08,7.828 -0.24,8.36 -0.24,8.493C-0.24,8.919 0.107,9.133 0.453,9.133C0.746,9.133 1.172,8.946 1.358,8.467C1.358,8.414 1.651,7.295 1.811,6.683L2.317,4.553C2.476,4.02 2.609,3.487 2.716,2.955C2.823,2.556 3.009,1.863 3.036,1.757C3.408,1.011 4.66,-1.146 6.923,-1.146C7.988,-1.146 8.201,-0.267 8.201,0.532C8.201,1.118 8.041,1.783 7.855,2.502L7.189,5.272L6.71,7.082C6.604,7.561 6.391,8.36 6.391,8.493C6.391,8.919 6.737,9.133 7.083,9.133C7.828,9.133 7.962,8.52 8.175,7.775C8.494,6.443 9.373,2.955 9.586,2.023C9.666,1.703 10.917,-1.146 13.527,-1.146C14.565,-1.146 14.805,-0.347 14.805,0.532C14.805,1.89 13.82,4.606 13.34,5.857C13.127,6.443 13.021,6.709 13.021,7.162C13.021,8.28 13.873,9.133 14.991,9.133C17.228,9.133 18.107,5.644 18.107,5.458C18.107,5.218 17.894,5.218 17.814,5.218C17.574,5.218 17.574,5.298 17.468,5.644C17.095,6.922 16.349,8.6 15.044,8.6C14.618,8.6 14.459,8.36 14.459,7.828C14.459,7.215 14.672,6.656 14.885,6.124C15.337,4.872 16.349,2.236 16.349,0.878C16.349,-0.666 15.391,-1.678 13.607,-1.678C11.823,-1.678 10.598,-0.613 9.719,0.638C9.692,0.319 9.613,-0.48 8.947,-1.066C8.361,-1.545 7.589,-1.678 7.003,-1.678C4.846,-1.678 3.675,-0.16 3.275,0.399C3.169,-0.959 2.157,-1.678 1.092,-1.678C0,-1.678 -0.453,-0.746 -0.666,-0.32C-1.118,0.532 -1.411,1.917 -1.411,1.996C-1.411,2.236 -1.172,2.236 -1.118,2.236C-0.879,2.236 -0.879,2.209 -0.719,1.677C-0.32,-0.001 0.16,-1.146 1.012,-1.146C1.385,-1.146 1.757,-0.959 1.757,-0.054C1.757,0.452 1.678,0.718 1.385,1.943L0,7.455" style="fill:rgb(35,31,32);fill-rule:nonzero;"/>
                </g>
                <g transform="matrix(1,0,0,1,245.559,136.728)">
                    <path d="M0,0L20.982,0" style="fill:none;stroke:rgb(35,31,32);stroke-width:0.96px;"/>
                </g>
                <g transform="matrix(1,0,0,1,256.237,159.095)">
                    <path d="M0,-16.27C0,-16.297 0,-16.536 -0.293,-16.536C-0.852,-16.536 -2.583,-16.35 -3.222,-16.297C-3.408,-16.27 -3.675,-16.243 -3.675,-15.817C-3.675,-15.551 -3.462,-15.551 -3.089,-15.551C-1.944,-15.551 -1.891,-15.365 -1.891,-15.125L-1.97,-14.646L-5.432,-0.933C-5.512,-0.586 -5.512,-0.533 -5.512,-0.4C-5.512,0.159 -5.059,0.266 -4.82,0.266C-4.527,0.266 -4.154,0.053 -4.021,-0.24C-3.914,-0.453 -2.822,-4.873 -2.689,-5.459C-1.864,-5.379 0.08,-5.007 0.08,-3.436C0.08,-3.249 0.08,-3.169 0,-2.93C-0.053,-2.637 -0.08,-2.344 -0.08,-2.104C-0.08,-0.693 0.852,0.266 2.104,0.266C2.823,0.266 3.462,-0.107 3.994,-0.986C4.58,-2.051 4.846,-3.356 4.846,-3.409C4.846,-3.649 4.633,-3.649 4.553,-3.649C4.314,-3.649 4.287,-3.542 4.234,-3.223C3.754,-1.465 3.195,-0.267 2.157,-0.267C1.704,-0.267 1.385,-0.533 1.385,-1.385C1.385,-1.785 1.491,-2.344 1.571,-2.717C1.678,-3.116 1.678,-3.223 1.678,-3.462C1.678,-5.007 0.186,-5.699 -1.864,-5.965C-1.118,-6.391 -0.346,-7.137 0.186,-7.723C1.331,-8.974 2.45,-10.013 3.595,-10.013C3.754,-10.013 3.781,-10.013 3.834,-9.986C4.101,-9.933 4.127,-9.933 4.314,-9.8C4.367,-9.773 4.367,-9.746 4.42,-9.693C3.275,-9.64 3.062,-8.708 3.062,-8.415C3.062,-8.042 3.328,-7.589 3.967,-7.589C4.58,-7.589 5.272,-8.095 5.272,-9.027C5.272,-9.746 4.74,-10.545 3.648,-10.545C2.982,-10.545 1.891,-10.332 0.186,-8.442C-0.639,-7.536 -1.571,-6.578 -2.476,-6.232L0,-16.27" style="fill:rgb(35,31,32);fill-rule:nonzero;"/>
                </g>
            </g>
        </g>
    </g>
</svg>
