<?xml version="1.0" encoding="UTF-8" standalone="no"?>
<!DOCTYPE svg PUBLIC "-//W3C//DTD SVG 1.1//EN" "http://www.w3.org/Graphics/SVG/1.1/DTD/svg11.dtd">
<svg width="100%" height="100%" viewBox="0 0 1292 1292" version="1.1" xmlns="http://www.w3.org/2000/svg" xmlns:xlink="http://www.w3.org/1999/xlink" xml:space="preserve" xmlns:serif="http://www.serif.com/" style="fill-rule:evenodd;clip-rule:evenodd;stroke-miterlimit:10;">
    <g id="Grid" transform="matrix(4.16667,0,0,4.16667,0,0)">
        <rect x="5" y="5" width="300" height="300" style="fill:none;stroke:rgb(35,31,32);stroke-width:3px;"/>
        <g transform="matrix(1,0,0,1,5,205)">
            <path d="M0,0L300,0" style="fill:none;stroke:rgb(35,31,32);stroke-width:3px;"/>
        </g>
        <g transform="matrix(1,0,0,1,5,105)">
            <path d="M0,0L300,0" style="fill:none;stroke:rgb(35,31,32);stroke-width:3px;"/>
        </g>
        <g transform="matrix(0,1,1,0,355,155)">
            <path d="M-150,-150L150,-150" style="fill:none;stroke:rgb(35,31,32);stroke-width:3px;"/>
        </g>
        <g transform="matrix(0,1,1,0,255,155)">
            <path d="M-150,-150L150,-150" style="fill:none;stroke:rgb(35,31,32);stroke-width:3px;"/>
        </g>
    </g>
    <g id="States" transform="matrix(4.16667,0,0,4.16667,0,0)">
        <g transform="matrix(1,0,0,1,95,85)">
            <path d="M0,0C0,-5.523 -4.477,-10 -10,-10C-15.523,-10 -20,-5.523 -20,0C-20,5.523 -15.523,10 -10,10C-4.477,10 0,5.523 0,0" style="fill:rgb(239,63,54);fill-rule:nonzero;"/>
        </g>
        <g transform="matrix(1,0,0,1,135,25)">
            <path d="M0,0C0,-5.523 -4.477,-10 -10,-10C-15.523,-10 -20,-5.523 -20,0C-20,5.523 -15.523,10 -10,10C-4.477,10 0,5.523 0,0" style="fill:rgb(19,117,188);fill-rule:nonzero;"/>
        </g>
        <g>
            <g opacity="0.300003">
                <g transform="matrix(1,0,0,1,165,25)">
                    <path d="M0,0C0,-5.523 -4.477,-10 -10,-10C-15.523,-10 -20,-5.523 -20,0C-20,5.523 -15.523,10 -10,10C-4.477,10 0,5.523 0,0" style="fill:rgb(19,117,188);fill-rule:nonzero;"/>
                </g>
            </g>
        </g>
        <g>
            <g opacity="0.300003">
                <g transform="matrix(1,0,0,1,195,25)">
                    <path d="M0,0C0,-5.523 -4.477,-10 -10,-10C-15.523,-10 -20,-5.523 -20,0C-20,5.523 -15.523,10 -10,10C-4.477,10 0,5.523 0,0" style="fill:rgb(19,117,188);fill-rule:nonzero;"/>
                </g>
            </g>
        </g>
        <g>
            <g opacity="0.300003">
                <g transform="matrix(1,0,0,1,195,55)">
                    <path d="M0,0C0,-5.523 -4.477,-10 -10,-10C-15.523,-10 -20,-5.523 -20,0C-20,5.523 -15.523,10 -10,10C-4.477,10 0,5.523 0,0" style="fill:rgb(19,117,188);fill-rule:nonzero;"/>
                </g>
            </g>
        </g>
        <g transform="matrix(1,0,0,1,195,85)">
            <path d="M0,0C0,-5.523 -4.477,-10 -10,-10C-15.523,-10 -20,-5.523 -20,0C-20,5.523 -15.523,10 -10,10C-4.477,10 0,5.523 0,0" style="fill:rgb(19,117,188);fill-rule:nonzero;"/>
        </g>
        <g transform="matrix(1,0,0,1,165,85)">
            <path d="M0,0C0,-5.523 -4.477,-10 -10,-10C-15.523,-10 -20,-5.523 -20,0C-20,5.523 -15.523,10 -10,10C-4.477,10 0,5.523 0,0" style="fill:rgb(19,117,188);fill-rule:nonzero;"/>
        </g>
        <g transform="matrix(1,0,0,1,165,55)">
            <path d="M0,0C0,-5.523 -4.477,-10 -10,-10C-15.523,-10 -20,-5.523 -20,0C-20,5.523 -15.523,10 -10,10C-4.477,10 0,5.523 0,0" style="fill:rgb(19,117,188);fill-rule:nonzero;"/>
        </g>
        <g transform="matrix(1,0,0,1,135,55)">
            <path d="M0,0C0,-5.523 -4.477,-10 -10,-10C-15.523,-10 -20,-5.523 -20,0C-20,5.523 -15.523,10 -10,10C-4.477,10 0,5.523 0,0" style="fill:rgb(19,117,188);fill-rule:nonzero;"/>
        </g>
        <g transform="matrix(1,0,0,1,135,85)">
            <path d="M0,0C0,-5.523 -4.477,-10 -10,-10C-15.523,-10 -20,-5.523 -20,0C-20,5.523 -15.523,10 -10,10C-4.477,10 0,5.523 0,0" style="fill:rgb(19,117,188);fill-rule:nonzero;"/>
        </g>
        <g transform="matrix(1,0,0,1,95,125)">
            <path d="M0,0C0,-5.523 -4.477,-10 -10,-10C-15.523,-10 -20,-5.523 -20,0C-20,5.523 -15.523,10 -10,10C-4.477,10 0,5.523 0,0" style="fill:rgb(239,63,54);fill-rule:nonzero;"/>
        </g>
        <g transform="matrix(1,0,0,1,95,155)">
            <path d="M0,0C0,-5.523 -4.477,-10 -10,-10C-15.523,-10 -20,-5.523 -20,0C-20,5.523 -15.523,10 -10,10C-4.477,10 0,5.523 0,0" style="fill:rgb(239,63,54);fill-rule:nonzero;"/>
        </g>
        <g transform="matrix(1,0,0,1,95,185)">
            <path d="M0,0C0,-5.523 -4.477,-10 -10,-10C-15.523,-10 -20,-5.523 -20,0C-20,5.523 -15.523,10 -10,10C-4.477,10 0,5.523 0,0" style="fill:rgb(239,63,54);fill-rule:nonzero;"/>
        </g>
        <g transform="matrix(1,0,0,1,65,185)">
            <path d="M0,0C0,-5.523 -4.477,-10 -10,-10C-15.523,-10 -20,-5.523 -20,0C-20,5.523 -15.523,10 -10,10C-4.477,10 0,5.523 0,0" style="fill:rgb(239,63,54);fill-rule:nonzero;"/>
        </g>
        <g transform="matrix(1,0,0,1,65,155)">
            <path d="M0,0C0,-5.523 -4.477,-10 -10,-10C-15.523,-10 -20,-5.523 -20,0C-20,5.523 -15.523,10 -10,10C-4.477,10 0,5.523 0,0" style="fill:rgb(239,63,54);fill-rule:nonzero;"/>
        </g>
        <g transform="matrix(1,0,0,1,135,125)">
            <path d="M0,0C0,-5.523 -4.477,-10 -10,-10C-15.523,-10 -20,-5.523 -20,0C-20,5.523 -15.523,10 -10,10C-4.477,10 0,5.523 0,0" style="fill:rgb(19,117,188);fill-rule:nonzero;"/>
        </g>
        <g transform="matrix(0,-1,-1,-0,125,115)">
            <circle cx="-10" cy="0" r="10" style="fill:none;stroke:rgb(35,31,32);stroke-width:3px;"/>
        </g>
        <g transform="matrix(1,0,0,1,165,125)">
            <path d="M0,0C0,-5.523 -4.477,-10 -10,-10C-15.523,-10 -20,-5.523 -20,0C-20,5.523 -15.523,10 -10,10C-4.477,10 0,5.523 0,0" style="fill:rgb(19,117,188);fill-rule:nonzero;"/>
        </g>
        <g transform="matrix(1,0,0,1,195,125)">
            <path d="M0,0C0,-5.523 -4.477,-10 -10,-10C-15.523,-10 -20,-5.523 -20,0C-20,5.523 -15.523,10 -10,10C-4.477,10 0,5.523 0,0" style="fill:rgb(19,117,188);fill-rule:nonzero;"/>
        </g>
        <g>
            <g opacity="0.300003">
                <g transform="matrix(1,0,0,1,195,155)">
                    <path d="M0,0C0,-5.523 -4.477,-10 -10,-10C-15.523,-10 -20,-5.523 -20,0C-20,5.523 -15.523,10 -10,10C-4.477,10 0,5.523 0,0" style="fill:rgb(19,117,188);fill-rule:nonzero;"/>
                </g>
            </g>
        </g>
        <g>
            <g opacity="0.300003">
                <g transform="matrix(1,0,0,1,195,185)">
                    <path d="M0,0C0,-5.523 -4.477,-10 -10,-10C-15.523,-10 -20,-5.523 -20,0C-20,5.523 -15.523,10 -10,10C-4.477,10 0,5.523 0,0" style="fill:rgb(19,117,188);fill-rule:nonzero;"/>
                </g>
            </g>
        </g>
        <g>
            <g opacity="0.300003">
                <g transform="matrix(1,0,0,1,165,185)">
                    <path d="M0,0C0,-5.523 -4.477,-10 -10,-10C-15.523,-10 -20,-5.523 -20,0C-20,5.523 -15.523,10 -10,10C-4.477,10 0,5.523 0,0" style="fill:rgb(19,117,188);fill-rule:nonzero;"/>
                </g>
            </g>
        </g>
        <g transform="matrix(1,0,0,1,165,155)">
            <path d="M0,0C0,-5.523 -4.477,-10 -10,-10C-15.523,-10 -20,-5.523 -20,0C-20,5.523 -15.523,10 -10,10C-4.477,10 0,5.523 0,0" style="fill:rgb(19,117,188);fill-rule:nonzero;"/>
        </g>
        <g transform="matrix(1,0,0,1,135,155)">
            <path d="M0,0C0,-5.523 -4.477,-10 -10,-10C-15.523,-10 -20,-5.523 -20,0C-20,5.523 -15.523,10 -10,10C-4.477,10 0,5.523 0,0" style="fill:rgb(19,117,188);fill-rule:nonzero;"/>
        </g>
        <g>
            <g opacity="0.300003">
                <g transform="matrix(1,0,0,1,135,185)">
                    <path d="M0,0C0,-5.523 -4.477,-10 -10,-10C-15.523,-10 -20,-5.523 -20,0C-20,5.523 -15.523,10 -10,10C-4.477,10 0,5.523 0,0" style="fill:rgb(19,117,188);fill-rule:nonzero;"/>
                </g>
            </g>
        </g>
        <g transform="matrix(1,0,0,1,235,125)">
            <path d="M0,0C0,-5.523 -4.477,-10 -10,-10C-15.523,-10 -20,-5.523 -20,0C-20,5.523 -15.523,10 -10,10C-4.477,10 0,5.523 0,0" style="fill:rgb(19,117,188);fill-rule:nonzero;"/>
        </g>
        <g>
            <g opacity="0.300003">
                <g transform="matrix(1,0,0,1,265,125)">
                    <path d="M0,0C0,-5.523 -4.477,-10 -10,-10C-15.523,-10 -20,-5.523 -20,0C-20,5.523 -15.523,10 -10,10C-4.477,10 0,5.523 0,0" style="fill:rgb(19,117,188);fill-rule:nonzero;"/>
                </g>
            </g>
        </g>
        <g>
            <g opacity="0.300003">
                <g transform="matrix(1,0,0,1,295,125)">
                    <path d="M0,0C0,-5.523 -4.477,-10 -10,-10C-15.523,-10 -20,-5.523 -20,0C-20,5.523 -15.523,10 -10,10C-4.477,10 0,5.523 0,0" style="fill:rgb(19,117,188);fill-rule:nonzero;"/>
                </g>
            </g>
        </g>
        <g>
            <g opacity="0.300003">
                <g transform="matrix(1,0,0,1,295,155)">
                    <path d="M0,0C0,-5.523 -4.477,-10 -10,-10C-15.523,-10 -20,-5.523 -20,0C-20,5.523 -15.523,10 -10,10C-4.477,10 0,5.523 0,0" style="fill:rgb(19,117,188);fill-rule:nonzero;"/>
                </g>
            </g>
        </g>
        <g>
            <g opacity="0.300003">
                <g transform="matrix(1,0,0,1,295,185)">
                    <path d="M0,0C0,-5.523 -4.477,-10 -10,-10C-15.523,-10 -20,-5.523 -20,0C-20,5.523 -15.523,10 -10,10C-4.477,10 0,5.523 0,0" style="fill:rgb(19,117,188);fill-rule:nonzero;"/>
                </g>
            </g>
        </g>
        <g>
            <g opacity="0.300003">
                <g transform="matrix(1,0,0,1,265,185)">
                    <path d="M0,0C0,-5.523 -4.477,-10 -10,-10C-15.523,-10 -20,-5.523 -20,0C-20,5.523 -15.523,10 -10,10C-4.477,10 0,5.523 0,0" style="fill:rgb(19,117,188);fill-rule:nonzero;"/>
                </g>
            </g>
        </g>
        <g>
            <g opacity="0.300003">
                <g transform="matrix(1,0,0,1,265,155)">
                    <path d="M0,0C0,-5.523 -4.477,-10 -10,-10C-15.523,-10 -20,-5.523 -20,0C-20,5.523 -15.523,10 -10,10C-4.477,10 0,5.523 0,0" style="fill:rgb(19,117,188);fill-rule:nonzero;"/>
                </g>
            </g>
        </g>
        <g>
            <g opacity="0.300003">
                <g transform="matrix(1,0,0,1,235,155)">
                    <path d="M0,0C0,-5.523 -4.477,-10 -10,-10C-15.523,-10 -20,-5.523 -20,0C-20,5.523 -15.523,10 -10,10C-4.477,10 0,5.523 0,0" style="fill:rgb(19,117,188);fill-rule:nonzero;"/>
                </g>
            </g>
        </g>
        <g>
            <g opacity="0.300003">
                <g transform="matrix(1,0,0,1,235,185)">
                    <path d="M0,0C0,-5.523 -4.477,-10 -10,-10C-15.523,-10 -20,-5.523 -20,0C-20,5.523 -15.523,10 -10,10C-4.477,10 0,5.523 0,0" style="fill:rgb(19,117,188);fill-rule:nonzero;"/>
                </g>
            </g>
        </g>
        <g transform="matrix(1,0,0,1,35,225)">
            <path d="M0,0C0,-5.523 -4.477,-10 -10,-10C-15.523,-10 -20,-5.523 -20,0C-20,5.523 -15.523,10 -10,10C-4.477,10 0,5.523 0,0" style="fill:rgb(19,117,188);fill-rule:nonzero;"/>
        </g>
        <g>
            <g opacity="0.300003">
                <g transform="matrix(1,0,0,1,65,225)">
                    <path d="M0,0C0,-5.523 -4.477,-10 -10,-10C-15.523,-10 -20,-5.523 -20,0C-20,5.523 -15.523,10 -10,10C-4.477,10 0,5.523 0,0" style="fill:rgb(19,117,188);fill-rule:nonzero;"/>
                </g>
            </g>
        </g>
        <g>
            <g opacity="0.300003">
                <g transform="matrix(1,0,0,1,95,225)">
                    <path d="M0,0C0,-5.523 -4.477,-10 -10,-10C-15.523,-10 -20,-5.523 -20,0C-20,5.523 -15.523,10 -10,10C-4.477,10 0,5.523 0,0" style="fill:rgb(19,117,188);fill-rule:nonzero;"/>
                </g>
            </g>
        </g>
        <g>
            <g opacity="0.300003">
                <g transform="matrix(1,0,0,1,95,255)">
                    <path d="M0,0C0,-5.523 -4.477,-10 -10,-10C-15.523,-10 -20,-5.523 -20,0C-20,5.523 -15.523,10 -10,10C-4.477,10 0,5.523 0,0" style="fill:rgb(19,117,188);fill-rule:nonzero;"/>
                </g>
            </g>
        </g>
        <g>
            <g opacity="0.300003">
                <g transform="matrix(1,0,0,1,95,285)">
                    <path d="M0,0C0,-5.523 -4.477,-10 -10,-10C-15.523,-10 -20,-5.523 -20,0C-20,5.523 -15.523,10 -10,10C-4.477,10 0,5.523 0,0" style="fill:rgb(19,117,188);fill-rule:nonzero;"/>
                </g>
            </g>
        </g>
        <g>
            <g opacity="0.300003">
                <g transform="matrix(1,0,0,1,65,285)">
                    <path d="M0,0C0,-5.523 -4.477,-10 -10,-10C-15.523,-10 -20,-5.523 -20,0C-20,5.523 -15.523,10 -10,10C-4.477,10 0,5.523 0,0" style="fill:rgb(19,117,188);fill-rule:nonzero;"/>
                </g>
            </g>
        </g>
        <g>
            <g opacity="0.300003">
                <g transform="matrix(1,0,0,1,65,255)">
                    <path d="M0,0C0,-5.523 -4.477,-10 -10,-10C-15.523,-10 -20,-5.523 -20,0C-20,5.523 -15.523,10 -10,10C-4.477,10 0,5.523 0,0" style="fill:rgb(19,117,188);fill-rule:nonzero;"/>
                </g>
            </g>
        </g>
        <g>
            <g opacity="0.300003">
                <g transform="matrix(1,0,0,1,35,255)">
                    <path d="M0,0C0,-5.523 -4.477,-10 -10,-10C-15.523,-10 -20,-5.523 -20,0C-20,5.523 -15.523,10 -10,10C-4.477,10 0,5.523 0,0" style="fill:rgb(19,117,188);fill-rule:nonzero;"/>
                </g>
            </g>
        </g>
        <g>
            <g opacity="0.300003">
                <g transform="matrix(1,0,0,1,35,285)">
                    <path d="M0,0C0,-5.523 -4.477,-10 -10,-10C-15.523,-10 -20,-5.523 -20,0C-20,5.523 -15.523,10 -10,10C-4.477,10 0,5.523 0,0" style="fill:rgb(19,117,188);fill-rule:nonzero;"/>
                </g>
            </g>
        </g>
    </g>
</svg>
