<svg version="1.1" viewBox="0 0 128 96" xmlns="http://www.w3.org/2000/svg"><defs><filter id="shadow-filter"><feDropShadow dx=".6" dy=".6" stdDeviation="0.5" flood-opacity="0.6"/></filter></defs><rect x="0" y="0" width="128" height="96" fill="white"/><g filter="url(#shadow-filter)"><rect x="67" y="0" width="64" height="96"/><rect x="65.41728294414362" y="-2.2769862423437153" width="4.850864485394007" height="4.850864485394007" transform="rotate(42.144259991071166 67.84271518684062 0.14844600035328837)"/><rect x="65.20920351536905" y="2.728814998935715" width="4.445098489269179" height="4.445098489269179" transform="rotate(53.46318551018017 67.43175276000365 4.951364243570304)"/><rect x="66.75366294961616" y="5.934503888539168" width="4.033189901771914" height="4.033189901771914" transform="rotate(27.056158366376064 68.77025790050212 7.951098839425125)"/><rect x="64.81227689270294" y="8.692373213929939" width="4.485711044131563" height="4.485711044131563" transform="rotate(8.75279446725948 67.05513241476872 10.93522873599572)"/><rect x="65.51552705481112" y="10.127035144712558" width="4.4468665123850375" height="4.4468665123850375" transform="rotate(69.76345821794824 67.73896031100364 12.350468400905076)"/><rect x="65.15598570733029" y="13.556183102528992" width="4.127656275319896" height="4.127656275319896" transform="rotate(81.44015406707176 67.21981384499024 15.62001124018894)"/><rect x="66.3038475649063" y="15.77186534216115" width="4.924437293490997" height="4.924437293490997" transform="rotate(40.30654745040823 68.7660662116518 18.234083988906647)"/><rect x="65.79962762999382" y="19.724510722936785" width="4.153291844580732" height="4.153291844580732" transform="rotate(35.69515022469811 67.87627355228419 21.801156645227152)"/><rect x="64.67779760786726" y="22.26784212346711" width="4.80980450835866" height="4.80980450835866" transform="rotate(26.569692384237182 67.0826998620466 24.67274437764644)"/><rect x="65.05564479550301" y="24.657281267233916" width="4.894965369288523" height="4.894965369288523" transform="rotate(36.32960442553393 67.50312748014727 27.104763951878176)"/><rect x="64.8533768093979" y="28.3166841678185" width="4.858617380548569" height="4.858617380548569" transform="rotate(3.2975029779400944 67.28268549967218 30.745992858092784)"/><rect x="65.44358342779596" y="31.20466600994732" width="4.613634674057389" height="4.613634674057389" transform="rotate(64.67347119209069 67.75040076482465 33.511483346976014)"/><rect x="65.86589887750738" y="34.4661931653269" width="4.245489364115095" height="4.245489364115095" transform="rotate(43.80702891465743 67.98864355956492 36.58893784738444)"/><rect x="66.16421194437295" y="37.1883690759694" width="4.232888787734678" height="4.232888787734678" transform="rotate(16.08260241465538 68.28065633824029 39.30481346983674)"/><rect x="66.3413961820783" y="40.06343278998032" width="4.465149117401292" height="4.465149117401292" transform="rotate(26.4842830911766 68.57397074077895 42.296007348680966)"/><rect x="66.3555548740686" y="44.86572810850614" width="4.01220956582062" height="4.01220956582062" transform="rotate(61.34638231719052 68.36165965697892 46.87183289141645)"/><rect x="65.20575227393145" y="46.44018076893295" width="4.347014326054823" height="4.347014326054823" transform="rotate(36.84310728327506 67.37925943695886 48.61368793196036)"/><rect x="66.25676270450639" y="49.05399257602163" width="4.2894679159237805" height="4.2894679159237805" transform="rotate(73.0598825301707 68.40149666246828 51.19872653398352)"/><rect x="64.93375688303993" y="52.27874559637859" width="4.214407922109941" height="4.214407922109941" transform="rotate(31.82755741048586 67.0409608440949 54.38594955743356)"/><rect x="66.09217812576777" y="56.00010628156927" width="4.321908521734308" height="4.321908521734308" transform="rotate(4.118387730886457 68.25313238663493 58.16106054243643)"/><rect x="65.96343255017256" y="59.53065615818887" width="4.11361829410343" height="4.11361829410343" transform="rotate(79.6403239390598 68.02024169722426 61.587465305240585)"/><rect x="66.18183224795682" y="61.562191071059175" width="4.548198266432643" height="4.548198266432643" transform="rotate(89.78351456214847 68.45593138117314 63.8362902042755)"/><rect x="65.00660041275849" y="64.68271293853424" width="4.486749301632767" height="4.486749301632767" transform="rotate(27.381108438457456 67.24997506357487 66.92608758935062)"/><rect x="65.97371726368353" y="68.270250857916" width="4.211147910072944" height="4.211147910072944" transform="rotate(86.41525396473841 68.07929121872 70.37582481295247)"/><rect x="65.34132764976907" y="70.77574403439961" width="4.1205485196432905" height="4.1205485196432905" transform="rotate(63.69517658170047 67.40160190959071 72.83601829422125)"/><rect x="64.88083149458042" y="73.05579820261714" width="4.965257241139369" height="4.965257241139369" transform="rotate(26.749080415364887 67.3634601151501 75.53842682318682)"/><rect x="66.06230018100403" y="77.15980897502676" width="4.788781250553171" height="4.788781250553171" transform="rotate(33.27653988992006 68.45669080628062 79.55419960030335)"/><rect x="66.2406031310965" y="79.31744324891224" width="4.097887346007115" height="4.097887346007115" transform="rotate(4.4338334685298175 68.28954680410007 81.3663869219158)"/><rect x="66.23275387394808" y="83.27485732788702" width="4.917939774507325" height="4.917939774507325" transform="rotate(84.7196615080373 68.69172376120174 85.73382721514068)"/><rect x="65.2256702264382" y="85.4362137699899" width="4.431706073434317" height="4.431706073434317" transform="rotate(63.156898026757354 67.44152326315536 87.65206680670707)"/><rect x="65.88558112246041" y="89.22331606651186" width="4.469372785570076" height="4.469372785570076" transform="rotate(55.238607362553594 68.12026751524544 91.45800245929689)"/><rect x="65.29167045461615" y="91.71359176847729" width="4.014050421127581" height="4.014050421127581" transform="rotate(33.967165020792294 67.29869566517995 93.72061697904108)"/><rect x="65.25241612591" y="94.27252627738737" width="4.600959364826542" height="4.600959364826542" transform="rotate(30.951143108840327 67.55289580832327 96.57300595980064)"/><rect x="65.60400813078934" y="98.14703668036198" width="4.35413951435211" height="4.35413951435211" transform="rotate(22.997246127157595 67.7810778879654 100.32410643753803)"/><rect x="65.25881782438984" y="100.74249146144457" width="4.946147108479514" height="4.946147108479514" transform="rotate(8.32325390767853 67.7318913786296 103.21556501568433)"/><rect x="65.46906724168345" y="103.84383490302235" width="4.685978457107222" height="4.685978457107222" transform="rotate(48.51366906375993 67.81205647023705 106.18682413157596)"/><rect x="66.20387379644453" y="105.82761243955851" width="4.553411512384323" height="4.553411512384323" transform="rotate(10.540691043528245 68.48057955263668 108.10431819575066)"/><rect x="65.71906497472415" y="110.04605141727103" width="4.161477550492675" height="4.161477550492675" transform="rotate(18.235164732953734 67.79980374997048 112.12679019251736)"/><rect x="64.63598994483662" y="113.4698043769734" width="4.788045781191111" height="4.788045781191111" transform="rotate(64.54376112021929 67.03001283543217 115.86382726756895)"/><rect x="65.48737049227313" y="115.58239430249328" width="4.659819687111358" height="4.659819687111358" transform="rotate(2.4219688083288538 67.81728033582881 117.91230414604897)"/><rect x="66.1326443679896" y="119.21228589561274" width="4.822306018710828" height="4.822306018710828" transform="rotate(48.60085049157315 68.54379737734502 121.62343890496815)"/><rect x="65.67326457976085" y="122.2844523417508" width="4.4406109760472985" height="4.4406109760472985" transform="rotate(76.54798593989628 67.89357006778451 124.50475782977445)"/><rect x="65.05490787480383" y="124.58222818474295" width="4.557212685340493" height="4.557212685340493" transform="rotate(7.641634489045062 67.33351421747408 126.86083452741319)"/><rect x="63.478844617060176" y="1.8551146110361127" width="2.1462407250236915" height="2.1462407250236915" transform="rotate(59.253604673691804 64.55196497957202 2.9282349735479585)"/><rect x="63.72554572719335" y="4.863394238835708" width="2.9771358727149364" height="2.9771358727149364" transform="rotate(0.6336472957617612 65.21411366355082 6.351962175193177)"/><rect x="64.0620162112386" y="8.333001338315729" width="2.207200495497029" height="2.207200495497029" transform="rotate(85.36034640006034 65.16561645898712 9.436601586064244)"/><rect x="62.22136568526716" y="11.635095630089655" width="1.7920110382842884" height="1.7920110382842884" transform="rotate(88.66975176291015 63.1173712044093 12.5311011492318)"/><rect x="62.645690626250584" y="17.728681645157454" width="1.8721682894544291" height="1.8721682894544291" transform="rotate(30.32925590789003 63.5817747709778 18.66476578988467)"/><rect x="64.22788375499286" y="19.35575109147247" width="2.78656844503856" height="2.78656844503856" transform="rotate(59.079358205861 65.62116797751214 20.74903531399175)"/><rect x="62.094392584899296" y="23.44215761778019" width="2.427181488528204" height="2.427181488528204" transform="rotate(22.909153923074207 63.3079833291634 24.655748362044292)"/><rect x="64.0111012684715" y="28.728555334849304" width="1.9828776267646324" height="1.9828776267646324" transform="rotate(55.06368426812764 65.00254008185382 29.71999414823162)"/><rect x="63.80498126431433" y="33.04048238076957" width="2.3068883271954377" height="2.3068883271954377" transform="rotate(26.50342736823063 64.95842542791205 34.19392654436729)"/><rect x="63.38485803882766" y="35.766329951981106" width="2.8618465806605187" height="2.8618465806605187" transform="rotate(16.485228118645797 64.81578132915791 37.19725324231136)"/><rect x="64.3590030374884" y="39.842474046030674" width="2.3762147616103935" height="2.3762147616103935" transform="rotate(5.920759924006116 65.5471104182936 41.03058142683587)"/><rect x="62.5859025219933" y="44.69966497902996" width="2.3152630027674936" height="2.3152630027674936" transform="rotate(60.01160233905351 63.743534023377045 45.85729648041371)"/><rect x="63.12925873512933" y="47.592887114038426" width="2.797087498666449" height="2.797087498666449" transform="rotate(21.065615730682293 64.52780248446255 48.99143086337165)"/><rect x="62.73517240765557" y="52.20539595525471" width="1.8764217669613883" height="1.8764217669613883" transform="rotate(87.68349244630907 63.67338329113626 53.1436068387354)"/><rect x="64.17051867627569" y="56.94277847153391" width="2.3764280516542353" height="2.3764280516542353" transform="rotate(39.50080968702071 65.35873270210281 58.13099249736103)"/><rect x="62.75969158769631" y="60.243451991684424" width="2.8244653422826183" height="2.8244653422826183" transform="rotate(76.83960961371511 64.17192425883762 61.655684662825735)"/><rect x="64.14353691261579" y="64.79559391573358" width="1.5099855344067659" height="1.5099855344067659" transform="rotate(58.89593626141318 64.89852967981916 65.55058668293695)"/><rect x="62.77123173078005" y="67.09734948554107" width="2.0467803027630573" height="2.0467803027630573" transform="rotate(65.47134797249747 63.79462188216158 68.12073963692261)"/><rect x="64.13379272431092" y="70.8712487815205" width="2.3099556495125597" height="2.3099556495125597" transform="rotate(49.6659173785965 65.28877054906721 72.0262266062768)"/><rect x="63.41277713184939" y="77.51296762928948" width="2.4985026950426352" height="2.4985026950426352" transform="rotate(32.32580175451769 64.6620284793707 78.7622189768108)"/><rect x="62.70389071510451" y="80.96574298750816" width="2.078310900467529" height="2.078310900467529" transform="rotate(25.959336179950515 63.74304616533827 82.00489843774193)"/><rect x="64.21771724147578" y="85.46186569489937" width="2.1474635228576995" height="2.1474635228576995" transform="rotate(76.4767788817437 65.29144900290463 86.53559745632822)"/><rect x="64.5301671972687" y="87.67141187354478" width="1.928808451416669" height="1.928808451416669" transform="rotate(30.754811059513806 65.49457142297703 88.63581609925312)"/><rect x="62.961534653048275" y="92.78410223029772" width="2.8928708143766633" height="2.8928708143766633" transform="rotate(67.07124273453427 64.40797006023661 94.23053763748605)"/><rect x="62.98796561204452" y="97.46452763753183" width="2.5651152495578975" height="2.5651152495578975" transform="rotate(39.53812322913205 64.27052323682346 98.74708526231078)"/><rect x="63.13718061050964" y="98.75306373663689" width="2.846047360178366" height="2.846047360178366" transform="rotate(22.46146023392719 64.56020429059882 100.17608741672608)"/><rect x="63.886859995536874" y="105.85016619802549" width="1.5343062297798622" height="1.5343062297798622" transform="rotate(52.0533225087136 64.6540131104268 106.61731931291543)"/><rect x="62.18956251883285" y="107.46007989238396" width="2.283577799771744" height="2.283577799771744" transform="rotate(73.3813483701299 63.331351418718725 108.60186879226983)"/><rect x="64.98598667022749" y="113.4315945053525" width="1.513901589361686" height="1.513901589361686" transform="rotate(23.78119448690718 65.74293746490834 114.18854530003335)"/><rect x="62.787133815417675" y="114.94837408827858" width="2.532740053688548" height="2.532740053688548" transform="rotate(49.3277140021199 64.05350384226195 116.21474411512285)"/><rect x="62.54052160318915" y="121.6368893044501" width="2.565319784079264" height="2.565319784079264" transform="rotate(68.88168696310218 63.82318149522878 122.91954919648973)"/><rect x="64.51905965310613" y="123.95973653187067" width="1.8539002515349212" height="1.8539002515349212" transform="rotate(58.7653843693735 65.44600977887359 124.88668665763814)"/><rect x="63.73378461100954" y="127.24032473338917" width="2.4849835328440144" height="2.4849835328440144" transform="rotate(12.233830406725728 64.97627637743155 128.48281649981118)"/><rect x="62.38391471287263" y="0.012833662534769807" width="1.1267364330792908" height="1.1267364330792908" transform="rotate(17.092948313957024 62.947282929412275 0.5762018790744152)"/><rect x="61.70436355529754" y="5.669120177276797" width="1.162754765355533" height="1.162754765355533" transform="rotate(39.61809279119032 62.285740937975305 6.250497559954564)"/><rect x="61.92707538816767" y="9.737441105053941" width="1.0267478668549552" height="1.0267478668549552" transform="rotate(42.13443226300666 62.44044932159515 10.250815038481418)"/><rect x="62.19327095237634" y="13.578005031448011" width="1.2851369365762153" height="1.2851369365762153" transform="rotate(74.94093033941617 62.83583942066444 14.220573499736119)"/><rect x="61.60057772287" y="18.110003695509764" width="1.1095225207280421" height="1.1095225207280421" transform="rotate(57.25157413233342 62.15533898323402 18.664764955873785)"/><rect x="62.2682960251261" y="19.681638319700674" width="1.4434846183365586" height="1.4434846183365586" transform="rotate(46.10163966731857 62.990038334294375 20.403380628868952)"/><rect x="62.10199640613878" y="26.08956535726886" width="1.1081722641829868" height="1.1081722641829868" transform="rotate(67.36731017349054 62.65608253823027 26.643651489360355)"/><rect x="62.33420940005037" y="30.247611715059" width="1.1089182038920558" height="1.1089182038920558" transform="rotate(25.488521655918532 62.8886685019964 30.802070817005028)"/><rect x="61.85285152720894" y="32.00005423369859" width="1.143198554693544" height="1.143198554693544" transform="rotate(33.16769408899683 62.42445080455571 32.57165351104536)"/><rect x="61.971253126709186" y="37.53310757954273" width="1.184727399495463" height="1.184727399495463" transform="rotate(87.66544896792155 62.563616826456915 38.12547127929046)"/><rect x="62.2782315021593" y="39.947052056633886" width="1.0671776991128796" height="1.0671776991128796" transform="rotate(86.12234114004744 62.81182035171574 40.480640906190324)"/><rect x="61.61090545826743" y="43.363149881145425" width="1.4670012442068217" height="1.4670012442068217" transform="rotate(69.96926442377408 62.344406080370845 44.09665050324884)"/><rect x="62.322510298431396" y="49.799207712309254" width="1.1832915236834005" height="1.1832915236834005" transform="rotate(54.987538435225424 62.91415606027309 50.39085347415095)"/><rect x="61.775579454111146" y="53.84171082546794" width="1.2016623521797354" height="1.2016623521797354" transform="rotate(56.19045667727102 62.376410630201015 54.44254200155781)"/><rect x="62.153581125020125" y="55.699267208166724" width="1.3953566072442278" height="1.3953566072442278" transform="rotate(37.73135844560944 62.85125942864224 56.396945511788836)"/><rect x="61.72720096622312" y="61.08799303334892" width="1.3073324803894746" height="1.3073324803894746" transform="rotate(5.4846456332321125 62.38086720641786 61.74165927354366)"/><rect x="61.88744465190078" y="63.53568598912036" width="1.3588144902471055" height="1.3588144902471055" transform="rotate(25.636445681002506 62.56685189702433 64.21509323424391)"/><rect x="61.7357262379004" y="70.29615850061367" width="1.0503487986985616" height="1.0503487986985616" transform="rotate(8.251172241207954 62.260900637249684 70.82133289996295)"/><rect x="62.12809859513701" y="72.58121554040622" width="1.4097769505605644" height="1.4097769505605644" transform="rotate(5.857061239208785 62.832987070417296 73.2861040156865)"/><rect x="61.881072397913165" y="77.97423069636554" width="1.0869585627104557" height="1.0869585627104557" transform="rotate(43.80023209920091 62.42455167926839 78.51770997772077)"/><rect x="61.50870594392274" y="80.85057986881363" width="1.3740383778172665" height="1.3740383778172665" transform="rotate(23.672119686722116 62.19572513283138 81.53759905772226)"/><rect x="61.70300116428915" y="83.78756860332655" width="1.1622688781641817" height="1.1622688781641817" transform="rotate(74.61388988106036 62.28413560337124 84.36870304240864)"/><rect x="62.19704605877411" y="88.22870112175586" width="1.246594959164006" height="1.246594959164006" transform="rotate(45.28911757923184 62.82034353835611 88.85199860133787)"/><rect x="61.9574416512939" y="92.22283163270944" width="1.433545239572949" height="1.433545239572949" transform="rotate(34.27120604632642 62.67421427108037 92.93960425249591)"/><rect x="61.7646579933897" y="96.05879526848507" width="1.329094825347949" height="1.329094825347949" transform="rotate(52.40987065945976 62.42920540606367 96.72334268115904)"/><rect x="61.98260882892595" y="101.45018001868623" width="1.0571271905734578" height="1.0571271905734578" transform="rotate(42.07110027212334 62.511172424212674 101.97874361397295)"/><rect x="61.5983995276794" y="104.7096396112436" width="1.0926168191475154" height="1.0926168191475154" transform="rotate(81.45191402724832 62.14470793725315 105.25594802081736)"/><rect x="62.217592067751866" y="109.57156496724532" width="1.2060791854811417" height="1.2060791854811417" transform="rotate(35.79792784425451 62.82063166049244 110.1746045599859)"/><rect x="62.2393204809898" y="113.69360497738403" width="1.1095893561232844" height="1.1095893561232844" transform="rotate(60.0781042418694 62.79411515905144 114.24839965544567)"/><rect x="62.367726958410465" y="117.70720150684168" width="1.0006034602771974" height="1.0006034602771974" transform="rotate(67.77788208653088 62.86802868854906 118.20750323698029)"/><rect x="62.118614806407116" y="122.25036260824785" width="1.0436714499148443" height="1.0436714499148443" transform="rotate(30.987192069702665 62.640450531364536 122.77219833320528)"/><rect x="62.16216468256756" y="124.48923734173563" width="1.104438117537664" height="1.104438117537664" transform="rotate(46.65907406276746 62.71438374133639 125.04145640050446)"/><rect x="61.65861335101648" y="129.14474150449658" width="1.212419255261182" height="1.212419255261182" transform="rotate(10.453372023506375 62.26482297864707 129.75095113212717)"/></g></svg>